<?xml version="1.0" standalone="no"?>
<!DOCTYPE svg PUBLIC "-//W3C//DTD SVG 20010904//EN"
 "http://www.w3.org/TR/2001/REC-SVG-20010904/DTD/svg10.dtd">
<svg version="1.0" xmlns="http://www.w3.org/2000/svg"
 width="770.000000pt" height="1280.000000pt" viewBox="0 0 770.000000 1280.000000"
 preserveAspectRatio="xMidYMid meet">
<metadata>
Created by potrace 1.15, written by Peter Selinger 2001-2017
</metadata>
<g transform="translate(0.000000,1280.000000) scale(0.100000,-0.100000)"
fill="#4527a0" stroke="none">
<path d="M5406 12771 c-158 -83 -383 -304 -642 -631 -194 -245 -747 -972 -799
-1051 -76 -116 -93 -172 -55 -184 21 -7 37 -46 25 -64 -15 -26 -58 -11 -131
44 -106 81 -445 145 -781 146 -254 2 -336 -22 -377 -106 -18 -36 -20 -73 -27
-421 -10 -495 -19 -549 -130 -796 -110 -247 -189 -566 -189 -767 0 -128 23
-145 77 -54 22 38 28 62 30 116 2 72 13 97 44 97 29 0 23 16 -21 51 -44 35
-50 49 -21 49 32 0 70 38 77 78 10 63 15 73 38 82 28 10 37 53 25 130 -10 75
-11 130 0 130 4 0 29 -16 55 -36 54 -41 76 -39 76 8 0 46 -12 59 -48 56 -49
-4 -93 48 -59 69 6 4 40 10 75 14 77 8 94 21 63 46 -35 29 -43 90 -30 225 13
134 13 134 115 159 98 24 164 77 164 132 0 24 -3 23 -69 -24 -60 -42 -99 -51
-126 -29 -43 36 -97 302 -98 491 0 101 3 122 22 162 39 81 90 72 148 -25 30
-50 41 -81 92 -248 10 -36 20 -55 20 -43 2 44 -39 251 -64 327 -19 55 -24 81
-16 89 15 15 152 -6 242 -38 88 -30 151 -66 178 -101 26 -33 27 -56 3 -77 -27
-25 -52 -22 -52 6 0 27 -32 59 -75 75 -35 14 -185 31 -185 22 0 -4 29 -19 64
-34 107 -46 122 -75 103 -201 -7 -49 -7 -49 8 -22 22 38 50 34 96 -12 45 -45
51 -88 20 -149 -41 -82 -35 -120 25 -161 38 -26 35 -38 -11 -43 -30 -3 -30 -3
-27 -61 3 -51 -1 -66 -34 -124 -31 -56 -36 -71 -30 -109 9 -68 -36 -171 -175
-400 -135 -221 -201 -382 -179 -439 17 -45 103 -27 149 31 27 34 22 39 -23 23
-27 -10 -39 -10 -47 -2 -23 23 0 63 64 108 117 83 119 86 114 114 -5 22 6 37
74 102 45 44 79 84 79 95 0 10 -12 37 -25 59 -39 63 -40 62 74 170 53 50 122
186 129 253 5 59 -6 69 -49 47 -36 -19 -45 -15 -29 15 16 29 50 40 131 40 43
0 81 6 100 15 38 20 84 83 105 147 20 62 10 77 -36 53 -43 -22 -56 -15 -31 17
25 32 67 43 106 28 37 -14 88 3 109 35 25 38 19 45 -21 29 -38 -16 -83 -7 -83
17 0 40 98 125 150 131 20 2 25 -2 28 -22 11 -100 17 -107 63 -60 37 36 72 47
219 65 127 17 172 29 191 51 10 12 9 18 -4 32 -15 14 -25 15 -84 5 -42 -8 -72
-8 -77 -3 -25 25 57 174 108 199 26 12 38 12 93 -1 35 -8 63 -12 63 -8 0 13
-75 57 -124 74 -27 9 -75 19 -107 23 -33 3 -57 8 -54 11 3 3 27 13 53 22 66
23 77 49 57 135 -20 87 -19 113 6 179 24 65 78 125 169 186 77 51 124 94 151
136 15 25 19 48 18 121 -1 49 2 99 5 111 10 31 51 29 72 -3 13 -20 14 -30 4
-60 -7 -20 -9 -39 -6 -43 9 -8 94 15 130 36 40 24 68 64 60 86 -6 16 -15 17
-74 11 -75 -8 -110 4 -110 35 0 23 28 40 65 40 36 0 52 37 37 89 -21 67 -14
65 61 -13 47 -49 82 -76 95 -76 29 0 28 6 -13 91 -39 81 -45 140 -19 177 18
26 51 29 58 5 2 -10 7 -44 11 -75 7 -60 40 -123 65 -123 15 0 15 3 3 77 -6 41
14 67 75 100 40 22 41 45 2 118 -35 64 -37 101 -11 144 22 34 100 105 173 154
114 78 228 83 301 14 54 -52 24 -159 -75 -267 -60 -66 -99 -91 -158 -100 -81
-13 -125 -47 -136 -104 -7 -32 -6 -33 17 -26 48 15 186 88 244 130 33 24 85
68 115 99 30 31 61 56 70 56 9 0 40 -20 69 -45 50 -43 66 -50 101 -45 26 3 51
32 135 160 90 136 135 178 203 187 74 10 171 -50 263 -162 53 -65 59 -80 30
-70 -30 9 -80 -42 -134 -138 -58 -105 -87 -140 -141 -172 -93 -55 -173 -38
-266 54 -77 77 -104 68 -122 -41 -13 -82 -1 -120 39 -116 22 3 28 -2 35 -28 4
-18 18 -35 33 -42 29 -13 125 -16 125 -4 0 4 -23 21 -51 37 -29 17 -65 48 -80
69 -51 70 -31 108 29 57 80 -69 155 -86 243 -56 65 22 111 64 180 166 66 95
119 145 144 135 30 -11 -8 -99 -133 -308 -68 -114 -114 -214 -127 -271 -7 -36
-84 -119 -139 -151 -24 -14 -65 -30 -92 -37 -54 -13 -119 -43 -129 -59 -9 -14
19 -12 82 6 72 21 80 12 54 -61 -27 -76 -47 -98 -83 -91 -36 7 -72 -10 -89
-40 -15 -30 -7 -39 21 -24 36 19 53 -4 48 -67 -6 -71 -28 -95 -79 -87 l-39 7
6 -45 c5 -35 1 -54 -16 -89 -50 -97 -111 -147 -145 -119 -19 16 -19 2 0 -45
19 -45 13 -68 -32 -118 -51 -57 -106 -148 -246 -404 -173 -317 -223 -400 -274
-454 -39 -42 -45 -55 -55 -116 -14 -91 -47 -156 -125 -244 -117 -133 -151
-217 -97 -241 23 -11 28 -10 41 7 7 11 11 29 8 40 -20 72 -20 75 17 75 67 0
129 91 341 505 216 420 352 660 472 830 160 227 272 412 388 640 93 182 164
271 187 235 16 -24 12 -45 -16 -86 -40 -58 -42 -103 -9 -169 38 -75 55 -88 55
-44 0 19 3 51 6 72 8 48 27 48 88 1 26 -20 49 -34 51 -32 2 2 -19 30 -46 63
-28 33 -63 76 -79 96 l-30 36 88 -18 c159 -33 237 -23 308 43 65 60 88 127 88
258 1 65 -4 120 -13 144 -16 45 -73 111 -131 151 -49 34 -52 55 -7 55 74 0
201 -108 251 -213 47 -101 60 -170 60 -337 1 -163 -16 -256 -64 -349 -26 -51
-84 -101 -118 -101 -42 -1 -105 -34 -133 -71 -44 -57 -93 -164 -169 -369 -39
-107 -105 -276 -145 -375 -76 -189 -94 -245 -77 -245 6 0 26 26 45 58 103 170
228 479 287 707 29 113 81 197 106 172 4 -4 -11 -66 -34 -137 -65 -201 -58
-257 38 -304 24 -11 44 -25 44 -31 1 -5 -27 -23 -61 -40 -94 -46 -119 -76
-102 -122 10 -27 78 -50 104 -36 15 9 13 13 -19 38 -20 15 -36 31 -36 36 0 15
55 37 135 53 102 21 183 61 212 104 28 42 38 125 24 191 -24 115 -98 209 -206
263 -33 17 -54 33 -48 35 13 5 284 -32 337 -46 23 -5 32 -15 39 -42 11 -40 2
-422 -12 -524 -5 -38 -15 -113 -21 -165 -26 -216 -63 -389 -144 -685 -33 -121
-82 -364 -101 -505 -47 -349 -96 -564 -185 -825 -62 -177 -77 -216 -180 -440
-99 -217 -165 -414 -230 -696 -91 -388 -134 -497 -242 -600 -69 -66 -84 -99
-56 -127 22 -22 46 -13 82 31 36 41 36 42 30 12 -14 -63 -54 -89 -176 -115
-70 -14 -164 -74 -201 -127 -51 -74 -55 -114 -17 -158 37 -43 36 -49 -8 -41
-52 8 -79 -17 -87 -83 -14 -106 -17 -120 -34 -135 -10 -9 -39 -20 -65 -25 -60
-11 -98 -46 -141 -131 -47 -94 -116 -181 -182 -231 -88 -65 -113 -91 -113
-113 0 -12 20 -46 45 -76 51 -62 69 -106 63 -156 -2 -19 -1 -34 3 -34 12 0 99
101 125 147 19 32 25 54 22 85 l-3 43 42 1 c51 0 83 26 83 66 0 31 -18 36 -66
18 -44 -17 -58 4 -43 66 22 91 55 117 95 73 43 -48 106 -63 124 -30 33 62 -5
128 -79 138 -23 3 -41 10 -41 15 0 14 127 68 202 87 68 16 68 16 67 51 0 19
-6 58 -13 85 -8 31 -10 51 -4 54 5 2 28 -14 49 -35 64 -62 74 -147 22 -181
-20 -13 -30 -14 -65 -4 -31 10 -47 10 -68 1 -52 -21 -49 -57 6 -89 19 -11 34
-26 34 -33 0 -16 -21 -48 -82 -127 -26 -34 -63 -94 -82 -134 -36 -75 -212
-316 -334 -460 -78 -91 -246 -259 -307 -307 -70 -56 -121 -81 -187 -91 -34 -5
-92 -18 -127 -29 -36 -10 -68 -17 -73 -14 -4 3 -8 24 -8 48 0 57 -39 116 -125
192 -89 77 -105 92 -105 101 0 5 30 8 66 8 63 0 67 2 99 37 85 92 59 223 -32
163 -20 -13 -24 -22 -20 -45 7 -35 -17 -59 -99 -99 -71 -34 -89 -53 -86 -92 3
-42 -17 -83 -86 -174 -68 -90 -119 -185 -136 -254 -19 -75 -8 -93 46 -72 32
12 151 101 144 108 -3 3 -35 -3 -71 -12 -36 -10 -68 -16 -71 -13 -3 3 15 23
40 43 55 45 89 96 79 120 -6 16 -2 17 37 11 62 -10 138 -45 145 -67 15 -48
-94 -154 -219 -213 -117 -56 -196 -56 -196 -2 0 38 -16 40 -43 4 -37 -50 -59
-97 -55 -121 3 -19 11 -23 65 -28 34 -3 70 -12 79 -20 24 -19 44 -72 43 -111
0 -31 -1 -31 -15 14 -36 118 -144 97 -144 -28 0 -29 -5 -56 -10 -59 -15 -9
-68 32 -86 67 -12 23 -15 46 -10 88 6 48 4 60 -14 83 -35 44 -50 35 -47 -25
l2 -53 -40 -3 c-32 -2 -66 10 -174 63 -74 36 -141 63 -148 61 -19 -8 -17 -183
3 -266 26 -110 27 -127 9 -184 -20 -63 -72 -154 -98 -170 -33 -21 -39 9 -32
171 7 171 5 175 -51 119 -38 -38 -44 -82 -19 -126 28 -49 10 -116 -33 -127
-37 -9 -106 30 -143 79 -29 40 -31 47 -25 101 6 64 -2 75 -47 58 -39 -15 -61
-54 -47 -82 12 -21 11 -22 -25 -16 -50 8 -133 59 -209 128 -74 68 -100 83
-132 75 -22 -6 -23 -4 -14 20 27 69 7 129 -74 228 -71 86 -77 97 -79 154 -2
50 -14 59 -84 61 -46 1 -41 16 15 47 81 47 112 74 112 97 0 41 -112 130 -141
111 -17 -10 -9 -34 26 -85 49 -71 45 -85 -14 -54 -65 33 -131 147 -131 228 0
58 12 60 72 14 69 -53 74 -53 39 -4 -42 57 -94 100 -171 138 -73 36 -95 65
-86 114 6 32 3 39 -26 65 -18 17 -50 45 -71 64 -31 29 -37 40 -37 75 0 60 33
91 97 91 61 0 104 -23 143 -77 16 -24 34 -43 40 -43 33 0 140 181 216 365 l33
80 -27 5 c-21 4 -28 12 -30 33 -4 33 -22 43 -51 28 -33 -18 -41 -70 -24 -146
8 -37 12 -69 9 -72 -19 -19 -137 51 -166 99 -15 25 -19 43 -14 73 6 46 -6 86
-41 127 -14 16 -25 33 -25 37 0 5 18 11 39 15 l40 6 -1 48 c-2 93 127 294 317
491 128 133 173 164 238 165 39 1 53 6 68 25 32 39 25 51 -28 50 -27 0 -73 -4
-103 -8 -72 -11 -90 -5 -90 28 0 27 52 114 98 164 39 42 68 36 150 -30 24 -20
45 -33 47 -31 3 2 -18 35 -45 73 -28 37 -48 70 -45 73 3 3 32 -3 64 -13 82
-25 93 -19 76 39 -19 61 -29 80 -66 110 -59 50 -112 22 -102 -54 5 -33 1 -43
-21 -63 -30 -28 -86 -40 -122 -27 -46 18 -23 101 24 85 42 -13 68 42 60 126
-8 83 -66 123 -135 94 -33 -14 -37 -22 -47 -99 -6 -45 -30 -86 -52 -86 -32 0
-49 68 -49 200 l0 124 -45 34 c-25 19 -45 40 -45 46 0 7 33 13 87 16 48 3 89
8 93 11 3 4 -18 16 -47 29 -103 43 -143 89 -148 170 -5 65 0 106 15 126 15 19
15 18 36 -6 19 -22 20 -32 14 -111 -7 -81 -6 -88 13 -98 24 -13 158 -15 166
-3 3 5 -21 19 -52 32 -31 12 -63 29 -71 36 -13 12 -9 16 25 30 57 25 144 29
200 10 77 -26 82 -20 29 35 -62 63 -117 92 -170 90 -22 -1 -55 -2 -73 -3 -23
-1 -41 6 -61 26 -30 29 -57 31 -104 11 -27 -12 -20 13 13 47 30 29 33 30 95
23 56 -6 66 -4 72 11 10 26 -10 48 -55 59 -72 18 -85 40 -90 147 -5 118 13
198 79 347 51 114 70 181 52 181 -40 0 -115 -175 -175 -406 -32 -125 -33 -134
-32 -324 1 -308 54 -698 144 -1045 57 -222 49 -332 -34 -501 -49 -98 -183
-290 -255 -365 -59 -61 -86 -68 -156 -39 -105 43 -152 24 -408 -163 -148 -108
-233 -160 -279 -171 -19 -4 -48 2 -90 20 -105 44 -160 28 -423 -123 -177 -101
-306 -169 -417 -217 -92 -41 -134 -75 -125 -100 16 -40 136 -27 239 25 48 24
61 27 77 18 15 -10 35 -7 104 14 129 41 146 37 182 -34 14 -26 29 -50 33 -53
12 -7 48 33 62 69 12 31 15 153 5 185 -9 30 14 102 43 133 56 60 115 72 187
37 72 -35 87 -97 27 -115 -26 -7 -34 -17 -43 -50 -15 -53 -5 -423 15 -615 77
-709 184 -1262 367 -1898 140 -487 316 -924 619 -1537 288 -583 459 -861 685
-1113 76 -84 141 -152 145 -150 24 9 147 173 177 235 40 82 43 140 8 135 -55
-9 -60 -7 -77 28 -33 66 -17 173 34 227 24 26 15 29 -22 8 -41 -23 -78 -17
-155 25 -71 39 -75 40 -171 40 -145 0 -162 20 -53 60 34 12 73 33 87 47 22 22
24 31 19 84 -4 42 -2 59 7 59 7 0 48 -41 91 -92 43 -50 81 -86 83 -80 2 7 -1
34 -7 60 -5 27 -7 59 -4 73 8 34 51 77 104 104 25 13 51 30 58 38 10 13 6 17
-24 27 -21 7 -40 21 -45 34 -11 29 6 59 29 51 14 -4 20 1 26 22 4 15 10 195
14 398 l6 370 17 -70 c41 -163 42 -186 43 -767 0 -311 3 -569 7 -573 9 -9 26
49 40 140 9 58 11 201 8 515 -7 669 -5 873 7 894 10 18 11 18 28 -8 16 -25 17
-30 2 -67 -21 -54 0 -47 32 10 17 30 27 74 36 148 8 57 16 108 20 111 4 4 27
-15 51 -43 44 -49 55 -46 34 11 -14 36 -5 61 25 68 36 9 150 -11 219 -39 70
-28 93 -22 125 36 12 21 31 44 43 50 20 11 68 8 101 -6 26 -11 21 9 -13 57
-32 43 -37 76 -19 110 10 19 9 20 -7 13 -11 -5 -32 -9 -49 -9 -22 -1 -30 4
-33 19 -6 30 -33 56 -56 53 -19 -3 -21 -9 -18 -70 4 -76 3 -77 -88 -95 l-45
-9 40 -12 c60 -18 105 -49 105 -72 0 -35 -28 -34 -105 4 -97 48 -101 62 -37
130 47 50 72 101 72 150 0 28 45 101 74 120 14 9 33 27 42 40 14 22 14 27 0
54 -15 29 -61 72 -76 72 -5 0 1 -29 13 -65 40 -123 -24 -97 -79 32 -15 35 -31
63 -36 63 -10 0 -8 16 -17 -146 -14 -244 -6 -234 -696 -860 -170 -155 -371
-338 -445 -408 -140 -132 -238 -206 -272 -206 -11 0 -28 5 -38 10 -22 12 -93
101 -86 108 3 2 27 -2 55 -9 61 -15 81 -4 81 46 0 44 -49 95 -91 95 -27 0 -28
-2 -18 -27 20 -52 -11 -71 -49 -30 -31 33 -66 118 -97 239 -34 130 -30 162 26
223 21 23 39 44 39 47 0 3 -13 19 -29 36 -35 36 -54 99 -45 147 12 65 0 71
-53 26 -88 -73 -128 -64 -103 25 11 39 11 47 -5 64 -10 11 -27 20 -37 20 -33
0 -15 23 40 53 58 31 64 42 28 51 -28 7 -56 60 -56 108 0 88 -48 174 -130 231
-17 12 -21 20 -12 23 19 9 14 34 -17 83 -39 62 -46 102 -26 141 9 18 15 34 13
36 -3 2 -19 -2 -37 -9 -29 -11 -34 -10 -47 7 -17 24 -18 50 -3 78 8 16 17 19
40 14 27 -5 28 -4 18 21 -6 15 -25 52 -44 83 -56 91 -76 150 -82 230 -6 82
-23 120 -53 120 -29 0 -26 36 11 113 20 44 29 77 27 102 -4 48 -20 43 -36 -11
-15 -52 -42 -59 -68 -19 -14 21 -16 41 -11 108 8 115 21 150 78 213 38 42 49
62 47 82 -5 40 -31 34 -41 -11 -5 -20 -15 -37 -21 -37 -21 0 -94 74 -101 103
-4 15 -4 38 -1 52 5 20 13 25 36 25 16 0 32 -4 35 -10 12 -20 25 -9 25 20 0
64 -63 95 -139 69 -18 -6 -35 -9 -38 -5 -3 3 11 29 31 58 20 29 36 63 36 74 0
12 -16 41 -35 65 -19 24 -35 52 -35 63 0 10 15 36 34 57 39 42 66 113 49 130
-6 6 -18 6 -36 0 -37 -14 -48 4 -58 101 -5 46 -14 105 -19 131 -16 76 -12 153
9 195 29 58 211 223 366 333 178 127 379 201 423 157 37 -37 -8 -104 -83 -123
-77 -19 -90 -44 -89 -168 3 -396 459 -1393 902 -1970 85 -112 251 -294 361
-399 91 -86 429 -364 435 -356 2 1 8 54 15 116 12 119 5 178 -24 202 -13 11
-23 5 -63 -39 -26 -28 -54 -51 -63 -51 -27 0 -47 32 -68 110 -22 79 -50 115
-84 106 -28 -7 -31 17 -8 62 31 60 78 104 110 100 41 -5 39 -36 -5 -74 l-39
-33 23 -23 c32 -32 95 -30 148 5 69 47 81 39 118 -79 40 -125 81 -153 137 -93
38 41 37 57 -3 55 -25 -1 -36 5 -54 32 -30 43 -49 135 -37 176 8 27 13 31 39
28 45 -4 126 -38 289 -123 314 -162 622 -256 998 -306 153 -20 497 -23 622 -5
214 31 392 95 425 155 14 24 13 30 -2 55 -46 71 -62 119 -66 190 -3 58 -1 72
10 72 8 0 46 -33 85 -73 103 -106 107 -130 68 -497 -32 -296 -46 -545 -55
-974 -10 -441 -17 -519 -46 -564 -47 -72 -253 -143 -684 -237 -297 -65 -390
-88 -407 -100 -15 -12 -12 -14 27 -25 25 -7 86 -13 136 -14 75 -1 96 2 111 17
28 24 38 22 69 -18 30 -40 40 -43 49 -17 10 33 51 42 183 42 70 0 133 4 141 9
10 7 12 22 6 66 -6 54 -5 57 12 50 48 -21 73 -17 109 15 59 51 127 66 158 34
49 -48 -8 -373 -134 -759 -63 -195 -87 -313 -70 -345 15 -29 13 -31 -28 -24
-49 8 -88 -23 -121 -95 -31 -65 -21 -81 54 -81 71 0 161 29 243 79 90 54 142
71 240 78 45 3 85 9 87 13 2 4 -14 22 -35 39 -66 53 -72 69 -80 209 -4 70 -13
139 -20 154 -7 15 -30 39 -52 53 -45 30 -68 69 -50 87 8 8 27 2 73 -27 43 -26
64 -34 71 -27 16 16 -7 66 -55 121 -44 50 -37 62 20 34 65 -31 72 -59 76 -293
4 -212 12 -264 43 -258 66 13 133 262 154 572 22 325 -24 791 -102 1026 -26
79 -44 120 -83 185 -27 45 -30 60 -33 150 -3 76 0 105 11 119 14 19 16 17 50
-30 20 -27 112 -200 206 -384 l169 -335 5 -685 c5 -685 10 -787 42 -819 33
-33 72 120 81 319 6 147 -8 551 -27 715 -50 453 -147 743 -371 1108 -44 72
-93 157 -109 189 -53 104 -54 187 -8 598 26 234 29 382 7 430 -9 19 -43 67
-77 105 -84 96 -104 140 -99 214 6 89 49 152 216 316 79 77 182 186 229 243
155 187 317 449 356 577 38 126 25 127 -38 2 -109 -211 -244 -406 -354 -511
-49 -46 -67 -57 -87 -53 -34 6 -37 -4 -18 -68 9 -31 13 -59 10 -62 -8 -9 -147
100 -195 152 -23 25 -46 45 -51 45 -6 0 -10 -15 -10 -34 0 -25 8 -42 32 -65
17 -17 37 -31 43 -31 19 0 57 -47 53 -67 -2 -10 -13 -19 -25 -21 -34 -5 -91
30 -187 114 -49 43 -86 71 -81 63 5 -8 28 -41 51 -74 87 -125 92 -158 39 -243
-42 -70 -61 -141 -70 -263 -16 -215 -55 -398 -93 -433 -18 -16 -22 -15 -72 19
-64 43 -110 46 -145 10 -18 -18 -25 -35 -25 -65 0 -27 -5 -43 -15 -46 -9 -4
-50 15 -98 44 -45 27 -101 59 -124 71 -73 37 -100 22 -38 -20 38 -26 47 -41
39 -64 -17 -44 -90 -17 -128 48 -49 83 -93 106 -171 86 -61 -15 -95 -6 -95 27
0 29 22 41 53 27 31 -14 47 -5 47 26 0 60 -55 69 -103 18 -18 -19 -41 -49 -52
-68 -25 -41 -63 -63 -83 -47 -10 9 -12 27 -7 74 7 61 7 62 -21 76 -29 14 -33
27 -19 61 6 14 2 17 -25 17 -47 0 -105 -60 -114 -118 -3 -24 -10 -40 -15 -37
-5 3 -23 35 -41 73 -31 67 -65 112 -83 112 -9 0 -8 -16 9 -122 4 -22 2 -38 -3
-38 -18 0 -88 58 -168 139 -44 45 -88 81 -97 81 -10 0 -18 -1 -18 -3 0 -16
-43 -114 -57 -129 -24 -26 -61 -40 -86 -32 -18 6 -15 11 29 49 l49 43 0 84 c0
102 11 122 61 112 37 -7 47 6 59 78 7 45 36 66 56 42 9 -10 13 -51 14 -122 1
-109 15 -167 38 -160 8 3 14 38 17 107 4 75 9 104 20 111 21 13 23 13 48 -10
15 -14 22 -33 22 -59 0 -51 29 -79 65 -63 20 9 25 19 25 47 0 28 -8 42 -40 72
-22 21 -40 45 -40 54 0 9 16 36 35 61 36 45 58 118 37 118 -6 0 -35 -27 -64
-60 -74 -84 -109 -89 -158 -20 l-21 30 30 -6 c59 -12 209 100 275 205 23 36
27 51 22 82 -7 42 -5 44 24 29 28 -15 40 -69 27 -124 -6 -25 -8 -49 -4 -52 3
-4 21 -1 38 6 28 12 33 12 45 -5 8 -10 14 -33 14 -51 0 -59 16 -53 140 54 34
28 70 52 80 52 11 0 43 -20 72 -45 100 -84 176 -112 253 -92 28 7 27 5 -17
-34 -27 -23 -48 -45 -48 -50 0 -5 19 -9 43 -9 56 0 89 -18 106 -58 15 -34 30
-39 62 -21 24 12 49 -3 49 -31 0 -20 30 -50 51 -50 27 0 38 20 28 48 -13 34
-7 37 49 24 26 -6 51 -7 56 -2 8 8 -3 69 -20 114 -11 30 11 16 35 -22 35 -53
33 -111 -7 -195 -17 -37 -27 -67 -23 -67 5 0 32 20 59 45 65 58 103 134 104
204 0 57 -15 82 -64 107 -36 19 -35 41 4 104 29 47 31 53 15 61 -25 15 -9 38
68 99 36 29 64 54 61 57 -2 2 -31 -3 -65 -12 -81 -23 -173 -17 -236 16 -88 45
-68 59 88 59 114 0 120 6 93 79 -22 61 -76 149 -95 156 -23 9 -61 -43 -61 -83
0 -24 8 -41 30 -61 17 -15 27 -30 24 -34 -15 -15 -92 -7 -115 12 -56 45 -10
164 78 203 53 23 81 21 197 -17 104 -34 147 -33 188 4 41 37 34 46 -22 26 -43
-15 -90 -20 -90 -9 0 3 4 14 10 24 16 31 -7 39 -79 27 -61 -10 -65 -9 -83 12
-39 49 -9 121 49 121 16 -1 64 -7 108 -15 44 -8 91 -15 105 -14 24 0 23 2 -17
37 -24 21 -43 41 -43 45 0 4 16 7 35 7 71 0 122 37 168 120 10 19 21 29 27 24
4 -5 21 -49 36 -99 l29 -90 7 68 c9 80 31 137 52 137 28 0 95 70 126 132 16
34 28 63 25 66 -2 3 -18 -1 -35 -8 -39 -16 -91 -8 -132 21 -41 30 -122 36
-184 15 -26 -9 -49 -14 -52 -12 -2 3 14 30 37 62 53 74 52 92 -4 132 -25 17
-45 40 -45 50 0 19 106 130 115 120 3 -3 1 -17 -5 -32 -15 -40 -12 -93 7 -122
28 -43 87 -66 193 -74 94 -7 178 -33 194 -59 13 -20 24 -12 30 23 9 46 -15
102 -46 111 -52 16 -73 58 -44 88 10 10 29 13 63 10 60 -6 159 18 217 52 54
32 123 91 115 99 -3 4 -55 -1 -115 -9 -60 -8 -122 -13 -137 -9 -25 5 -27 9
-22 35 7 33 1 35 -57 19 -47 -13 -78 1 -78 34 0 30 -16 42 -65 48 -42 6 -189
61 -212 80 -19 16 -6 28 30 28 56 0 77 23 77 83 0 64 19 94 64 103 48 9 75 42
97 120 23 82 41 112 75 120 23 6 25 9 19 46 -8 46 2 58 48 58 40 0 77 40 77
84 0 19 -4 37 -9 40 -28 18 -169 -134 -221 -237 -17 -35 -30 -76 -30 -98 0
-52 -14 -56 -44 -12 -33 47 -35 102 -5 129 59 53 103 188 128 392 11 85 41
172 60 172 16 0 13 -39 -5 -94 -9 -26 -14 -49 -11 -52 2 -3 21 17 40 43 19 26
51 63 69 81 l34 32 13 -67 c28 -147 65 -263 83 -263 11 0 10 44 -3 170 -14
128 -2 193 34 188 13 -2 23 -12 27 -28 9 -40 34 -35 106 20 61 47 72 52 106
47 44 -6 58 10 58 66 0 38 34 77 66 77 28 0 36 10 23 27 -19 22 -42 16 -149
-38 -56 -29 -121 -54 -145 -56 -37 -5 -45 -2 -58 18 -32 51 -42 131 -42 324 1
206 7 239 51 255 27 11 27 10 7 73 -4 13 1 17 21 17 40 0 83 -26 148 -88 45
-43 61 -53 70 -44 18 18 50 14 112 -14 46 -21 60 -23 71 -14 18 15 19 53 4 82
-10 18 -17 19 -64 13 l-54 -6 -15 34 c-11 28 -27 41 -89 70 -79 38 -107 65
-107 107 0 32 -17 50 -47 50 -19 0 -23 5 -23 28 0 54 121 272 151 272 8 0 9
-12 4 -37 -4 -21 -9 -51 -12 -66 l-6 -29 56 7 c49 6 56 5 66 -13 6 -12 11 -33
11 -49 0 -36 32 -97 54 -101 45 -9 0 162 -60 228 -54 59 -42 110 33 149 27 14
123 15 123 1 0 -6 -23 -26 -50 -46 -28 -20 -49 -38 -47 -40 2 -2 20 1 40 7 53
14 77 50 77 115 0 30 3 54 8 55 4 0 32 2 62 3 42 1 65 8 98 30 47 32 125 123
119 140 -5 16 -65 19 -98 6 -21 -9 -32 -23 -39 -51 -11 -38 -23 -49 -35 -29
-13 21 -65 9 -133 -31 -89 -51 -156 -73 -171 -55 -13 16 16 106 54 171 46 80
91 91 194 50 49 -20 66 -23 77 -14 8 6 14 17 14 24 0 18 24 25 90 25 75 0 95
18 104 97 9 76 -5 85 -44 28 -30 -44 -33 -45 -50 -30 -17 15 -23 15 -82 -11
-34 -15 -84 -29 -110 -31 -40 -4 -54 0 -111 35 l-66 39 55 54 c74 72 77 91 27
134 -60 51 -82 152 -37 169 8 3 44 -1 80 -10 37 -8 68 -13 71 -11 2 3 -12 15
-31 27 -63 39 -91 96 -75 153 12 42 -11 120 -50 172 -46 60 -37 61 32 4 81
-68 180 -115 210 -101 21 9 19 12 -40 67 -35 32 -63 64 -63 71 0 7 12 14 27
16 31 4 67 47 58 70 -9 24 -39 28 -92 12 -25 -8 -49 -12 -51 -9 -14 14 65 72
167 122 129 63 181 103 181 139 0 23 -10 32 -80 77 -19 13 -36 33 -38 45 -2
12 13 58 33 102 36 79 44 139 19 147 -6 2 -41 -23 -78 -57 -36 -33 -69 -60
-71 -60 -14 0 -26 60 -26 130 -1 83 14 133 50 164 30 27 27 38 -19 75 -22 17
-40 39 -40 47 0 9 15 36 33 62 26 39 32 56 31 97 -1 95 -109 282 -180 311 -19
8 -34 19 -34 24 0 5 18 22 40 36 22 15 39 32 37 38 -2 6 -29 12 -61 14 -71 4
-78 18 -37 74 30 41 41 88 21 88 -6 0 -22 11 -35 25 -19 18 -25 35 -25 67 1
116 29 117 104 4 86 -128 155 -294 156 -371 1 -36 39 -106 88 -160 66 -72 115
-148 162 -250 47 -103 64 -110 58 -22 -5 78 -39 155 -118 263 -73 101 -132
208 -159 293 -27 84 -87 193 -161 295 -75 104 -123 207 -159 343 -44 170 -74
217 -183 288 -98 64 -156 121 -168 166 -14 52 -96 173 -169 252 -112 119 -219
149 -329 93 -53 -27 -90 -60 -210 -189 -80 -86 -101 -88 -138 -14 -56 110
-225 237 -315 237 -22 0 -60 -12 -93 -29z m1202 -575 c54 -28 120 -110 138
-172 20 -70 22 -183 4 -239 -52 -162 -238 -193 -385 -64 -27 24 -35 39 -35 66
0 66 114 314 176 383 39 43 59 48 102 26z m-2010 -435 c6 -37 -6 -68 -41 -108
-34 -39 -135 -108 -144 -99 -8 7 77 141 122 194 40 46 58 49 63 13z m-389
-531 c1 -52 -31 -100 -68 -100 -17 0 -33 5 -36 10 -7 12 34 107 67 153 l23 32
6 -30 c4 -17 7 -46 8 -65z m2658 -169 c44 -27 96 -135 101 -212 5 -73 -1 -98
-32 -132 -37 -40 -79 -36 -154 13 -76 48 -105 91 -97 140 10 62 47 150 75 180
33 35 62 38 107 11z m-2779 -43 c19 -19 14 -70 -10 -95 -12 -13 -25 -23 -30
-23 -13 0 -9 105 4 118 7 7 15 12 18 12 3 0 11 -5 18 -12z m-513 -79 c157 -29
201 -109 134 -244 -35 -68 -45 -73 -110 -43 -78 36 -150 97 -198 168 -47 71
-52 106 -18 120 31 12 122 12 192 -1z m653 -36 c5 -33 -33 -66 -66 -58 -45 11
-47 22 -12 55 38 36 73 37 78 3z m-128 -128 c25 -41 26 -65 1 -65 -13 0 -27
17 -45 52 -14 29 -26 58 -26 65 0 21 46 -13 70 -52z m-729 -46 c28 -28 74
-129 94 -204 34 -131 29 -244 -13 -260 -32 -12 -44 23 -37 110 l6 80 -20 -32
c-22 -35 -49 -53 -80 -53 -30 0 -26 23 14 81 19 28 35 61 35 74 0 12 -18 49
-40 81 -43 64 -48 88 -24 122 19 28 38 28 65 1z m-894 -1321 c-7 -25 -77 -102
-85 -93 -8 8 40 115 57 125 22 12 35 -3 28 -32z m4083 -1840 c22 -37 36 -95
25 -106 -10 -10 -63 53 -71 83 -7 29 0 55 16 55 6 0 19 -15 30 -32z m-5 -178
c10 -17 -52 -72 -77 -68 -28 4 -35 39 -13 62 18 18 80 22 90 6z m-639 -1031
c29 -24 36 -60 23 -114 -6 -27 -18 -61 -27 -74 l-15 -25 -23 28 c-13 15 -24
33 -24 40 0 7 -11 23 -25 36 -18 17 -31 21 -54 17 -17 -4 -33 -2 -36 3 -11 18
26 78 58 94 36 18 98 16 123 -5z m-3986 -554 c10 -12 10 -21 1 -41 -13 -30 -7
-62 25 -125 35 -70 80 -111 118 -107 l31 3 3 -63 c4 -83 -14 -92 -69 -32 l-39
42 -87 -7 c-82 -6 -90 -5 -122 17 -100 68 -111 275 -13 252 15 -4 29 -8 31
-10 10 -8 41 19 41 36 0 19 35 50 56 50 6 0 17 -7 24 -15z m3855 -338 c20 -20
40 -55 51 -91 25 -78 38 -83 105 -41 95 62 184 41 177 -42 -4 -47 -38 -72
-111 -82 -68 -9 -95 -31 -99 -80 -3 -36 -3 -36 -48 -34 -71 3 -105 -5 -145
-37 -45 -36 -55 -37 -55 -7 0 49 -37 85 -140 135 l-75 37 70 3 c85 4 136 -16
164 -64 25 -42 43 -37 76 21 36 61 32 98 -19 187 -55 98 -60 110 -44 120 27
16 61 7 93 -25z m-5144 -8 c33 -35 47 -75 31 -91 -14 -14 -48 26 -66 78 -18
53 -6 57 35 13z m-135 10 c3 -6 -7 -25 -24 -42 -24 -24 -40 -31 -67 -30 -20 1
-39 4 -43 8 -10 9 44 51 82 63 42 14 44 14 52 1z m5180 -94 c23 -15 48 -62 59
-108 l7 -28 -43 17 c-74 29 -99 51 -99 88 0 18 3 36 7 39 11 12 48 8 69 -8z
m-97 -259 c7 -8 11 -27 9 -43 -3 -25 -6 -28 -37 -25 -44 3 -69 -20 -77 -70 -9
-55 -22 -47 -14 10 8 61 33 108 68 126 34 19 37 19 51 2z m-288 -276 c15 -49
-1 -113 -38 -156 -24 -29 -24 -29 -18 -4 4 14 9 46 12 72 5 39 2 49 -12 54
-27 11 -49 -9 -59 -52 -13 -62 -27 -92 -43 -98 -60 -24 -32 104 43 194 52 61
95 58 115 -10z m-998 -138 c34 -19 38 -31 14 -46 -10 -7 -28 -4 -56 9 -48 21
-65 39 -58 59 7 18 49 8 100 -22z m537 -225 c0 -21 -31 -45 -80 -62 -51 -18
-60 -13 -34 16 42 47 114 76 114 46z m-150 -167 c24 -24 26 -58 4 -67 -18 -7
-72 20 -117 59 l-32 27 63 1 c49 0 66 -4 82 -20z m663 -128 c-3 -62 -30 -153
-48 -156 -15 -2 -18 113 -5 159 26 87 56 85 53 -3z m-1945 -14 c7 -7 9 -27 5
-53 -5 -37 -2 -44 22 -63 37 -29 58 -28 98 8 19 17 39 30 45 30 17 0 87 -86
120 -148 36 -67 33 -75 -30 -86 -25 -5 -45 -17 -65 -42 -79 -99 -86 -104 -154
-104 -66 0 -68 8 -9 30 52 20 90 49 84 64 -9 22 -60 39 -98 32 -19 -4 -58 -22
-87 -41 -28 -19 -53 -35 -55 -35 -3 0 13 24 34 53 74 98 74 112 8 158 -39 26
-42 42 -8 47 33 5 45 35 32 80 -13 48 -13 48 6 66 18 19 36 20 52 4z m-483
-502 c60 -26 42 -57 -42 -71 -51 -8 -69 -26 -54 -54 14 -25 43 -34 81 -26 18
4 30 3 30 -4 0 -21 -42 -121 -51 -121 -12 0 -94 127 -121 187 -23 53 -15 89
24 96 49 9 100 6 133 -7z m1625 -312 c39 -33 38 -68 -3 -72 -32 -4 -87 44 -87
77 0 31 50 28 90 -5z m-3085 -477 c32 -32 55 -88 55 -134 0 -33 -14 -28 -48
15 -40 50 -62 96 -62 127 0 34 15 32 55 -8z m180 -589 c39 -46 51 -76 37 -90
-16 -16 -40 7 -63 57 -33 71 -20 87 26 33z m1141 -547 c-9 -106 -17 -151 -25
-151 -4 0 -18 18 -30 41 -21 37 -22 45 -11 87 14 57 48 114 62 106 6 -4 8 -35
4 -83z m-58 -198 c68 -34 122 -83 122 -111 0 -31 -35 -58 -112 -88 -38 -14
-68 -32 -68 -39 0 -8 16 -27 35 -42 42 -34 44 -43 7 -43 -33 0 -99 46 -136 94
-36 47 -33 59 9 39 26 -12 38 -14 46 -6 19 19 1 62 -36 86 -38 24 -44 37 -17
37 9 0 34 5 56 11 38 10 38 11 32 50 -3 21 -4 39 0 39 3 0 31 -12 62 -27z
m-208 -453 c23 -23 25 -49 6 -75 -13 -19 -15 -18 -45 14 -30 32 -39 60 -24 74
13 13 43 7 63 -13z m-44 -275 c11 -17 12 -29 5 -49 -6 -14 -14 -26 -19 -26
-16 0 -62 57 -62 77 0 38 50 37 76 -2z m248 -61 c40 -39 -40 -89 -124 -78 -28
4 -50 3 -50 -2 0 -5 17 -20 37 -34 27 -19 51 -25 96 -27 38 -1 65 -7 77 -18
22 -20 45 -73 36 -82 -13 -13 -75 -3 -159 26 -99 33 -147 64 -147 92 0 44 50
108 100 128 40 16 116 13 134 -5z m3016 -209 c0 -22 -28 -86 -47 -107 -40 -44
-47 44 -7 91 28 33 54 41 54 16z"/>
<path d="M1783 5623 c-7 -2 -13 -16 -13 -29 0 -18 12 -32 48 -54 72 -45 84
-41 57 23 -24 58 -52 77 -92 60z"/>
<path d="M3493 3975 c-44 -19 -41 -40 7 -65 65 -33 130 -22 130 24 0 51 -68
71 -137 41z"/>
<path d="M2716 1464 c-21 -20 -21 -63 0 -71 17 -6 60 22 78 50 21 34 -48 52
-78 21z"/>
<path d="M5745 12373 c-43 -43 -123 -154 -225 -313 -155 -243 -328 -477 -485
-660 -345 -401 -712 -957 -798 -1209 -11 -30 -31 -65 -45 -78 -15 -13 -35 -32
-46 -41 -59 -53 -186 -295 -205 -393 -21 -101 14 -137 79 -82 47 39 71 83 124
223 26 69 65 154 86 190 30 50 42 82 50 140 11 75 23 95 50 84 46 -19 50 -17
44 12 -8 40 20 73 95 113 82 43 119 76 129 114 9 33 21 37 68 22 16 -5 33 3
67 33 54 47 82 58 102 42 13 -10 12 -17 0 -48 -18 -41 -15 -48 13 -33 51 27
130 6 240 -62 34 -22 65 -37 69 -34 8 9 -50 97 -93 139 -19 20 -61 49 -92 66
-67 36 -255 92 -306 92 -40 0 -43 7 -20 53 54 106 137 177 207 177 46 0 46 9
7 92 -17 36 -26 64 -20 66 6 2 33 -1 60 -8 27 -6 54 -9 59 -5 6 3 8 24 5 49
-5 32 -1 53 16 87 32 64 112 168 231 299 89 98 168 189 250 288 13 15 30 22
54 22 28 0 35 4 39 23 38 200 56 245 154 395 78 118 101 207 37 145z m-1055
-1768 c0 -35 -38 -57 -92 -53 -36 3 -44 7 -46 26 -6 39 15 52 79 52 56 0 59
-1 59 -25z"/>
<path d="M5023 11108 c-93 -130 -103 -158 -59 -158 29 0 56 24 56 49 0 30 25
45 50 31 35 -19 43 1 24 51 -28 73 -36 76 -71 27z"/>
<path d="M4945 10870 c-181 -22 -238 -82 -127 -134 40 -18 65 -21 164 -21 98
0 120 3 135 18 15 15 16 19 2 32 -8 9 -41 20 -73 25 -32 5 -61 11 -63 14 -3 3
22 19 56 35 34 17 61 33 61 36 0 7 -81 4 -155 -5z"/>
<path d="M5940 10723 c0 -5 16 -18 36 -31 30 -19 35 -28 30 -48 -5 -20 -2 -26
19 -34 47 -18 125 -10 125 12 0 22 -44 70 -80 88 -38 19 -130 28 -130 13z"/>
<path d="M7352 10585 c-32 -15 -52 -30 -50 -37 6 -17 101 -23 128 -8 24 13 27
55 4 64 -22 9 -24 8 -82 -19z"/>
<path d="M7635 9990 c6 -644 11 -833 24 -825 38 23 49 666 18 1005 -10 102
-22 241 -27 309 -5 68 -12 127 -15 130 -3 3 -3 -276 0 -619z"/>
<path d="M7005 10563 c-16 -9 -47 -31 -68 -49 -53 -48 -58 -46 -69 30 -5 30
-26 31 -34 2 -13 -53 43 -130 86 -119 41 11 140 115 140 148 0 9 -25 4 -55
-12z"/>
<path d="M5779 10399 c-22 -22 -18 -55 10 -76 23 -18 38 -16 61 7 25 25 26 52
2 73 -25 23 -48 21 -73 -4z"/>
<path d="M5575 10352 c-43 -27 -105 -99 -105 -122 0 -37 50 -21 108 34 79 73
76 136 -3 88z"/>
<path d="M5651 10216 c-58 -59 -53 -81 30 -126 53 -28 68 -32 118 -28 35 2 84
17 131 38 81 36 112 57 70 46 -48 -12 -129 -18 -154 -12 -13 3 -28 16 -31 27
-7 22 -23 23 -112 4 -28 -6 -33 -5 -33 12 0 10 7 29 16 41 30 43 8 42 -35 -2z"/>
<path d="M6248 10065 c-18 -25 -77 -128 -131 -228 -117 -217 -149 -268 -201
-325 l-39 -43 -24 22 c-54 51 -40 -36 17 -105 48 -58 51 -76 11 -76 -50 0 -62
-31 -47 -122 7 -44 5 -49 -17 -59 -18 -8 -49 -7 -123 4 -54 8 -100 13 -102 12
-2 -2 28 -20 65 -40 73 -40 133 -91 133 -112 0 -7 -9 -17 -20 -23 -26 -14 -53
0 -77 40 -19 33 -57 41 -67 14 -9 -23 -7 -63 4 -83 13 -25 81 -51 134 -51 81
0 118 63 207 350 55 178 120 356 212 575 80 194 112 283 104 292 -3 3 -21 -16
-39 -42z"/>
<path d="M7358 9873 c6 -10 37 -47 70 -83 50 -54 62 -63 74 -52 11 12 2 24
-52 74 -74 68 -108 91 -92 61z"/>
<path d="M4951 9795 c-34 -29 -39 -50 -15 -59 44 -17 88 13 82 56 -4 32 -30
33 -67 3z"/>
<path d="M6544 9672 c-47 -34 -73 -77 -57 -93 20 -20 95 1 130 36 37 37 40 47
17 69 -22 23 -46 20 -90 -12z"/>
<path d="M7462 9637 c-29 -30 -56 -107 -38 -107 26 0 76 71 76 109 0 27 -11
26 -38 -2z"/>
<path d="M6727 9578 c-40 -61 -37 -107 10 -158 37 -42 71 -66 80 -57 2 3 -12
29 -31 57 -29 42 -36 62 -36 100 0 27 4 60 10 74 15 39 -2 31 -33 -16z"/>
<path d="M7360 9455 c-19 -23 -8 -68 22 -85 25 -13 29 -13 44 2 16 15 15 19
-5 51 -25 41 -45 51 -61 32z"/>
<path d="M5725 9389 c15 -50 11 -73 -15 -79 -34 -8 -38 -45 -9 -76 32 -34 47
-30 69 19 32 69 21 120 -32 148 -19 10 -20 9 -13 -12z"/>
<path d="M6272 9367 c-12 -13 -26 -47 -32 -77 -11 -58 -29 -84 -74 -107 -26
-14 -27 -16 -12 -25 45 -25 136 59 162 150 23 80 2 108 -44 59z"/>
<path d="M3611 9295 c-58 -55 -78 -94 -61 -124 32 -60 97 9 124 131 10 44 -11
42 -63 -7z"/>
<path d="M7287 9211 c-23 -22 -39 -43 -35 -47 12 -11 123 49 126 69 6 33 -45
20 -91 -22z"/>
<path d="M3342 9174 c3 -85 -8 -94 -111 -95 l-76 0 41 -19 c42 -18 84 -62 84
-86 0 -24 14 -15 75 46 33 33 63 60 66 60 4 0 13 -16 19 -36 19 -57 104 -96
138 -62 18 18 14 73 -7 92 -10 9 -35 20 -55 23 -43 7 -68 36 -59 71 5 22 4 23
-16 10 -20 -12 -25 -10 -57 25 -19 20 -37 37 -39 37 -3 0 -5 -30 -3 -66z"/>
<path d="M6310 9132 c-28 -23 -20 -39 26 -58 74 -31 167 -8 133 33 -35 42
-122 55 -159 25z"/>
<path d="M7588 8800 c-4 -14 -10 -47 -13 -75 -26 -198 -97 -453 -212 -765
-128 -346 -169 -520 -198 -839 -8 -91 -17 -184 -19 -206 -8 -73 11 7 50 210
58 309 121 534 250 896 102 287 144 444 158 594 7 72 -6 223 -16 185z"/>
<path d="M3969 8777 c-25 -31 -28 -31 -60 -20 -37 14 -42 13 -33 -10 10 -26
83 -48 149 -45 33 2 60 8 62 15 5 14 -64 93 -81 93 -6 0 -23 -15 -37 -33z"/>
<path d="M4579 8743 c-47 -24 -55 -32 -59 -63 -4 -30 -12 -38 -55 -60 -35 -17
-71 -26 -121 -28 -70 -4 -72 -3 -111 32 -50 45 -59 39 -109 -69 -33 -72 -37
-78 -44 -55 -5 14 -8 45 -9 68 -1 49 -13 51 -45 8 -30 -39 -27 -95 8 -140 36
-47 95 -86 132 -87 47 -1 162 44 192 75 22 23 23 27 7 21 -43 -17 -75 -17 -81
-2 -20 54 126 130 155 80 9 -16 12 -16 43 -1 85 41 230 206 207 235 -17 20
-50 16 -110 -14z m-349 -248 c0 -50 -24 -87 -53 -83 -19 3 -22 9 -21 44 0 24
10 56 24 79 22 35 24 36 37 19 7 -10 13 -36 13 -59z"/>
<path d="M5838 8761 c-37 -8 -78 -36 -78 -53 0 -5 21 -29 46 -54 47 -45 50
-57 30 -106 -5 -11 -1 -20 14 -28 20 -11 27 -7 65 35 l44 46 20 -20 c11 -11
31 -42 45 -69 33 -65 112 -136 170 -152 40 -11 49 -10 71 4 21 14 26 24 23 49
-3 31 -5 32 -58 37 -34 3 -67 13 -85 26 -52 37 -133 130 -157 178 -19 40 -20
50 -9 68 7 12 9 24 4 29 -13 13 -101 19 -145 10z"/>
<path d="M3877 8498 c-27 -21 -46 -81 -58 -184 -13 -124 -39 -204 -100 -319
-45 -85 -99 -218 -99 -246 0 -27 44 31 102 133 64 112 137 203 145 181 10 -27
19 -11 15 24 -7 54 12 63 130 63 59 0 98 4 98 10 0 6 -5 10 -10 10 -6 0 -22
11 -36 25 -20 20 -23 31 -18 63 7 44 0 52 -71 80 -27 11 -58 31 -69 45 -17 24
-18 31 -7 68 14 46 4 66 -22 47z m121 -221 c5 -28 -53 -79 -85 -75 -41 5 -42
39 -2 72 36 31 82 32 87 3z"/>
<path d="M4930 8401 c0 -22 123 -102 136 -88 11 10 -24 56 -59 77 -33 21 -77
27 -77 11z"/>
<path d="M6545 8358 c-65 -75 -96 -171 -60 -185 9 -3 25 3 36 13 16 14 19 26
14 58 -5 35 -1 50 29 99 41 67 32 74 -19 15z"/>
<path d="M5183 8310 c-54 -33 -67 -76 -33 -110 26 -26 17 -25 -94 4 -50 14
-111 27 -136 31 l-45 6 64 -32 c75 -37 130 -90 163 -155 39 -78 88 -91 53 -14
-10 22 -15 43 -12 46 3 4 27 -1 53 -10 26 -9 56 -16 66 -16 16 0 17 3 8 21
-14 25 -4 58 33 113 29 42 28 56 -7 56 -33 0 -50 23 -37 49 6 11 11 22 11 25
0 14 -58 4 -87 -14z"/>
<path d="M4929 8124 c-28 -32 -39 -61 -39 -103 0 -48 34 -131 53 -131 15 0 57
86 57 115 0 12 -5 15 -17 10 -33 -14 -63 -17 -63 -8 0 5 7 30 16 56 9 25 14
54 12 63 -3 14 -5 14 -19 -2z"/>
<path d="M7257 8124 c-11 -11 -8 -114 3 -114 15 0 31 49 28 84 -3 29 -18 43
-31 30z"/>
<path d="M6321 8056 c-9 -10 -11 -29 -6 -56 8 -45 -5 -70 -36 -70 -25 0 -44
-41 -35 -74 15 -59 88 -11 136 90 18 37 30 76 28 92 -3 23 -8 27 -39 30 -23 2
-40 -2 -48 -12z"/>
<path d="M6909 8052 c-31 -26 -20 -48 38 -75 64 -29 203 -32 230 -4 14 14 15
21 6 35 -9 14 -23 17 -84 14 -91 -3 -115 2 -122 28 -6 25 -37 26 -68 2z"/>
<path d="M3396 7998 c3 -22 -1 -42 -13 -59 -86 -124 -85 -121 -80 -180 5 -61
-5 -89 -31 -89 -33 0 -45 -15 -31 -38 18 -29 0 -84 -61 -185 -27 -45 -47 -84
-44 -88 2 -4 27 0 55 8 46 14 52 14 70 -3 10 -9 19 -30 19 -46 0 -33 16 -68
31 -68 7 0 8 39 3 118 -5 93 -3 135 11 202 21 105 67 238 106 307 35 64 37 96
4 128 -33 34 -45 31 -39 -7z"/>
<path d="M6207 7756 c-8 -21 35 -81 58 -81 15 0 21 8 23 33 2 18 -2 40 -9 48
-15 18 -65 18 -72 0z"/>
<path d="M4164 7612 c-43 -31 -114 -107 -114 -121 0 -20 53 -22 89 -3 38 19
81 87 81 129 0 30 -9 29 -56 -5z"/>
<path d="M6690 7621 c-16 -30 -12 -47 16 -81 32 -37 44 -27 44 36 0 59 -37 87
-60 45z"/>
<path d="M4028 7376 c-24 -54 19 -75 68 -33 37 32 27 57 -21 57 -28 0 -38 -5
-47 -24z"/>
<path d="M5310 7376 c0 -27 45 -79 63 -73 16 5 21 65 6 83 -6 8 -24 14 -40 14
-24 0 -29 -4 -29 -24z"/>
<path d="M6676 7383 c-13 -13 -5 -48 19 -90 31 -52 61 -59 51 -12 -13 65 -51
121 -70 102z"/>
<path d="M3835 7288 c19 -90 57 -127 115 -113 80 19 100 27 100 39 0 17 -169
106 -200 106 -19 0 -21 -4 -15 -32z"/>
<path d="M3734 7212 c-60 -44 -188 -183 -204 -221 -13 -32 -12 -35 8 -49 33
-22 27 -47 -19 -84 -42 -34 -69 -74 -69 -104 0 -23 47 -84 65 -84 23 0 25 14
11 67 -15 55 -7 83 23 83 18 0 50 -30 68 -64 7 -13 10 14 9 95 -1 111 0 117
32 182 46 92 96 114 124 53 14 -32 0 -51 -41 -59 -18 -4 -32 -15 -36 -28 -9
-28 7 -43 38 -35 36 9 121 69 125 87 2 9 -11 30 -28 47 -22 23 -30 40 -30 67
0 37 -14 75 -29 75 -4 0 -26 -13 -47 -28z"/>
<path d="M3172 7143 c-23 -34 -44 -94 -36 -102 11 -11 84 81 84 105 0 32 -24
31 -48 -3z"/>
<path d="M4731 7071 c-26 -16 0 -31 54 -31 63 0 78 13 33 29 -37 13 -68 14
-87 2z"/>
<path d="M6738 6919 c-10 -5 -18 -19 -18 -30 0 -29 69 -163 103 -201 34 -37
47 -26 27 22 -15 36 -7 60 19 60 29 0 38 43 17 86 -27 58 -102 90 -148 63z"/>
<path d="M6434 6881 c-49 -36 -89 -79 -81 -87 3 -4 22 -3 42 0 46 9 105 60
105 92 0 32 -18 30 -66 -5z"/>
<path d="M3836 6769 c-32 -37 -37 -103 -8 -97 18 3 62 80 62 110 0 27 -25 21
-54 -13z"/>
<path d="M7090 6704 c-105 -223 -290 -752 -384 -1102 -54 -198 -102 -452 -87
-452 15 0 76 184 170 516 77 270 147 485 228 704 91 244 131 384 113 395 -5 3
-23 -25 -40 -61z"/>
<path d="M4560 6750 c0 -5 5 -20 11 -34 14 -30 0 -53 -34 -58 -33 -5 -32 -32
2 -70 26 -29 31 -31 44 -18 8 8 22 35 31 59 14 35 15 50 6 77 -13 38 -60 73
-60 44z"/>
<path d="M2972 6698 c-7 -7 -12 -31 -12 -54 0 -60 -8 -75 -34 -68 -41 10 -118
-104 -146 -219 -11 -42 -10 -50 10 -82 31 -50 44 -45 35 13 -12 85 -11 107 5
104 8 -2 35 -6 60 -9 42 -5 50 -2 84 27 89 79 107 207 38 273 -22 21 -31 24
-40 15z"/>
<path d="M6830 6590 c-15 -28 -6 -61 26 -99 38 -46 54 -41 54 17 0 26 -6 58
-13 72 -16 33 -52 38 -67 10z"/>
<path d="M4325 6522 c-6 -4 -11 -31 -12 -60 -1 -29 -16 -96 -33 -149 -33 -102
-31 -120 14 -109 35 9 56 54 56 123 1 53 2 56 15 38 8 -11 20 -26 26 -33 11
-14 46 -12 82 3 13 6 17 2 17 -17 0 -22 -16 -48 -105 -172 -56 -77 -25 -84 59
-13 51 42 95 125 120 228 18 72 20 117 8 137 -15 23 -220 44 -247 24z m145
-77 c10 -28 2 -45 -23 -45 -45 0 -76 67 -45 98 9 9 17 7 36 -11 13 -12 28 -31
32 -42z"/>
<path d="M2942 6258 c-15 -15 -16 -118 -1 -118 20 0 48 45 49 77 0 37 -28 61
-48 41z"/>
<path d="M2619 6221 c-46 -46 -48 -62 -13 -94 31 -29 26 -33 -54 -46 -93 -15
-152 -66 -152 -129 0 -74 53 -52 199 82 87 80 153 121 177 112 27 -10 14 14
-34 64 -27 28 -56 50 -66 50 -10 0 -36 -17 -57 -39z"/>
<path d="M6296 6218 c-3 -7 -6 -22 -8 -33 -3 -15 -11 -20 -33 -19 -17 0 -38 4
-49 9 -16 7 -17 6 -7 -13 24 -45 7 -88 -42 -105 -22 -8 -13 -27 12 -27 30 0
109 57 136 99 17 25 25 50 23 67 -3 29 -25 44 -32 22z"/>
<path d="M4192 6118 c-28 -28 -2 -88 38 -88 40 0 66 60 38 88 -7 7 -24 12 -38
12 -14 0 -31 -5 -38 -12z"/>
<path d="M4310 5980 c-35 -33 -33 -44 12 -55 33 -8 71 25 66 58 -5 34 -40 33
-78 -3z"/>
<path d="M2307 5864 c-18 -18 75 -124 108 -124 36 0 1 81 -48 110 -33 21 -49
24 -60 14z"/>
<path d="M4165 5858 c-56 -31 -125 -130 -125 -180 0 -25 7 -23 67 24 68 52
133 125 133 149 0 22 -42 26 -75 7z"/>
<path d="M2778 5539 c-26 -15 -22 -26 11 -32 34 -7 101 2 101 14 0 8 -64 29
-85 29 -5 0 -18 -5 -27 -11z"/>
<path d="M1813 5333 c-36 -14 0 -70 82 -128 66 -48 195 -125 207 -125 5 0 8
18 8 40 0 42 -18 60 -62 60 -37 0 -85 36 -107 79 -33 64 -83 93 -128 74z"/>
<path d="M4975 5227 c-123 -41 -163 -51 -222 -51 -62 -1 -73 -4 -73 -18 0 -24
30 -38 80 -38 76 0 130 -49 130 -117 0 -33 -8 -46 -36 -61 -24 -13 -44 1 -44
30 0 25 -25 33 -56 20 -41 -19 -31 -51 32 -108 56 -50 64 -74 25 -74 -32 0
-65 -50 -42 -64 28 -18 170 68 208 126 22 32 25 45 19 86 -11 87 47 124 97 61
24 -31 25 -31 20 -6 -9 47 -47 72 -115 74 -33 1 -62 4 -65 6 -4 5 72 72 172
155 22 17 35 32 30 31 -6 0 -77 -24 -160 -52z"/>
<path d="M1091 5242 c-23 -22 -31 -40 -31 -66 0 -19 4 -37 9 -41 13 -7 47 38
62 82 17 52 -2 64 -40 25z"/>
<path d="M4517 5123 c-14 -13 -6 -33 25 -69 30 -33 33 -35 45 -18 18 25 16 58
-5 77 -19 17 -53 22 -65 10z"/>
<path d="M2487 4935 c-30 -63 -18 -105 30 -105 15 0 27 9 35 25 10 22 8 33
-10 70 -12 25 -25 45 -30 45 -5 0 -16 -16 -25 -35z"/>
<path d="M4577 4963 c-24 -23 26 -102 56 -90 25 9 23 73 -2 87 -23 12 -45 13
-54 3z"/>
<path d="M4416 4919 c-61 -72 -11 -154 139 -226 l70 -33 3 46 c4 64 -8 75 -74
68 l-54 -7 1 71 c1 111 -33 144 -85 81z"/>
<path d="M5904 4702 c-31 -20 -46 -109 -24 -142 9 -13 13 -12 30 8 28 33 46
100 34 120 -13 19 -25 24 -40 14z"/>
<path d="M2367 4578 c-47 -35 -86 -66 -87 -69 0 -12 64 -17 90 -7 36 13 69 48
86 87 29 68 20 67 -89 -11z"/>
<path d="M2827 4470 c-20 -10 -60 -39 -87 -64 -50 -44 -81 -59 -152 -71 -46
-7 -48 -25 -7 -59 42 -35 82 -33 170 9 91 43 103 44 94 8 -11 -45 -43 -72 -88
-75 -33 -2 -44 -8 -57 -33 -16 -29 -19 -30 -99 -32 -45 -1 -89 -4 -97 -7 -35
-14 7 -106 55 -119 30 -8 87 24 226 127 72 52 139 96 151 96 15 0 28 -17 55
-72 28 -61 39 -74 60 -76 56 -6 38 54 -42 149 -17 20 -37 54 -44 75 -13 39
-14 39 -60 36 -104 -7 -102 68 3 99 23 7 42 16 42 21 0 15 -85 7 -123 -12z"/>
<path d="M2295 4430 c-4 -6 0 -21 8 -33 24 -37 155 -172 160 -167 4 3 -1 37
-10 75 -20 87 -61 135 -116 135 -20 0 -39 -5 -42 -10z"/>
<path d="M5617 4203 c-33 -33 48 -133 108 -133 41 0 -10 96 -66 126 -32 16
-33 16 -42 7z"/>
<path d="M4818 4119 c-64 -10 -68 -14 -68 -64 0 -37 -6 -50 -35 -79 -19 -20
-35 -38 -35 -41 0 -19 184 12 246 42 46 22 48 37 7 41 -41 4 -58 24 -44 51 24
44 0 61 -71 50z"/>
<path d="M4387 3932 c-10 -10 -17 -31 -17 -45 0 -32 29 -107 41 -107 15 0 67
79 75 112 5 24 2 35 -12 45 -25 19 -68 16 -87 -5z"/>
<path d="M4623 3839 c-56 -13 -103 -58 -103 -97 0 -53 55 -52 97 1 29 37 57
49 89 37 15 -6 33 -9 41 -6 17 7 17 40 1 54 -20 16 -79 21 -125 11z"/>
<path d="M4725 3690 c-9 -15 21 -64 48 -79 28 -15 69 -12 75 7 6 20 -63 82
-91 82 -14 0 -29 -4 -32 -10z"/>
<path d="M5342 3624 c-29 -25 -50 -50 -46 -55 3 -5 23 -9 45 -9 51 0 92 37 87
78 -5 41 -30 37 -86 -14z"/>
<path d="M5244 3466 c-9 -22 0 -111 11 -111 14 0 29 68 21 99 -7 28 -23 35
-32 12z"/>
<path d="M5354 3469 c-10 -17 16 -29 61 -29 53 0 75 14 47 29 -27 14 -99 14
-108 0z"/>
<path d="M3583 3243 c-11 -29 31 -86 108 -145 80 -63 105 -72 95 -35 -4 12
-10 38 -13 57 l-6 35 74 -70 c105 -99 251 -165 366 -165 45 0 58 10 48 39 -8
26 -49 42 -133 52 -95 11 -163 42 -241 113 -68 60 -93 71 -144 63 -38 -6 -62
5 -95 44 -27 33 -49 37 -59 12z"/>
<path d="M5756 3048 c-61 -110 -88 -177 -89 -226 -2 -38 1 -47 16 -50 10 -2
28 4 39 15 17 15 19 26 14 64 -6 42 -4 48 18 62 13 9 29 31 34 49 14 45 21
137 11 144 -4 2 -24 -24 -43 -58z"/>
<path d="M4364 2995 c-15 -37 30 -115 66 -115 45 0 54 66 15 105 -27 28 -73
33 -81 10z"/>
<path d="M4561 2947 c-17 -17 -14 -102 4 -117 22 -18 65 12 65 46 0 47 -45 95
-69 71z"/>
<path d="M4913 2921 c-79 -63 -109 -99 -95 -113 10 -10 25 1 72 51 55 57 88
101 76 101 -2 0 -26 -17 -53 -39z"/>
<path d="M3726 2925 c-55 -19 -63 -30 -42 -54 26 -28 100 -61 138 -61 32 1 32
1 13 16 -51 37 -56 45 -53 76 4 38 -5 41 -56 23z"/>
<path d="M5649 2556 c-27 -9 -34 -16 -34 -36 0 -20 6 -26 35 -30 47 -8 84 2
88 23 8 40 -35 60 -89 43z"/>
<path d="M3336 2454 c-3 -9 -6 -30 -6 -48 0 -35 -24 -76 -44 -76 -23 0 -63
-39 -68 -65 -9 -42 11 -109 42 -147 25 -30 153 -108 176 -108 5 0 -26 33 -68
73 -94 88 -95 95 -38 217 42 90 54 170 26 170 -8 0 -17 -7 -20 -16z"/>
<path d="M5622 2418 c-14 -14 -16 -64 -2 -73 14 -9 68 22 81 46 9 17 8 23 -2
30 -20 13 -63 11 -77 -3z"/>
<path d="M3460 2236 c0 -26 59 -66 97 -66 49 0 41 29 -17 57 -52 26 -80 29
-80 9z"/>
<path d="M5655 2188 c-2 -7 -6 -35 -7 -63 -3 -47 -5 -51 -38 -61 -29 -10 -36
-17 -38 -44 -5 -50 4 -71 48 -118 22 -23 40 -47 40 -52 0 -5 -16 -27 -35 -49
-41 -46 -68 -105 -60 -132 9 -28 50 -24 74 7 29 37 38 80 50 224 5 69 17 145
26 170 27 75 28 79 11 105 -18 27 -63 35 -71 13z"/>
<path d="M1857 2088 c-25 -25 -27 -34 -27 -105 0 -97 14 -127 58 -131 43 -4
62 12 62 52 0 23 -9 41 -31 62 -45 43 -53 61 -39 94 19 46 8 59 -23 28z"/>
<path d="M3146 2006 c18 -52 52 -92 66 -78 16 16 2 56 -31 91 -41 44 -53 40
-35 -13z"/>
<path d="M3410 1904 c-10 -11 -11 -23 -4 -42 9 -25 14 -27 63 -25 l54 3 -6
-37 c-4 -20 -16 -47 -29 -60 -19 -20 -28 -23 -61 -17 -38 6 -38 5 -27 -16 14
-26 67 -50 113 -50 41 0 58 17 46 45 -13 33 -10 43 21 79 19 21 28 40 24 50
-7 18 -137 86 -164 86 -10 0 -23 -7 -30 -16z"/>
<path d="M5577 1570 c-29 -19 -9 -30 54 -30 53 0 74 10 51 24 -20 12 -88 16
-105 6z"/>
<path d="M3245 1469 c-16 -25 31 -64 99 -81 122 -33 326 -147 326 -184 0 -17
35 -18 95 -3 53 14 73 4 100 -48 15 -28 27 -39 48 -41 32 -4 44 16 27 48 -6
12 -9 24 -6 27 10 11 77 -8 96 -27 23 -23 19 -38 -27 -102 -19 -27 -33 -48
-30 -48 3 0 28 16 57 35 54 37 87 43 109 23 10 -11 11 -6 6 22 -8 46 18 73 67
68 28 -3 33 -7 36 -33 2 -16 -1 -47 -8 -68 -6 -22 -9 -41 -6 -44 3 -3 33 13
67 36 34 22 65 41 71 41 5 0 17 -13 26 -30 9 -16 20 -30 25 -30 12 0 8 48 -7
85 -23 54 -50 65 -188 75 -68 5 -124 10 -125 10 -1 0 -16 13 -32 29 -22 21
-44 31 -78 36 -131 16 -283 58 -423 115 -83 34 -240 86 -282 94 -23 4 -39 2
-43 -5z"/>
<path d="M2823 1094 c-13 -35 74 -104 106 -84 22 13 4 59 -32 80 -39 24 -66
25 -74 4z"/>
<path d="M5230 1040 c-18 -25 -80 -163 -80 -178 0 -3 26 21 58 55 41 43 67 62
92 66 19 4 48 19 63 33 31 29 30 42 -1 25 -31 -16 -57 -13 -77 9 -24 26 -30
25 -55 -10z"/>
<path d="M4331 849 c-27 -29 -49 -125 -33 -141 26 -26 111 98 97 142 -8 26
-39 26 -64 -1z"/>
</g>
</svg>
