<?xml version="1.0" standalone="no"?>
<!DOCTYPE svg PUBLIC "-//W3C//DTD SVG 20010904//EN"
 "http://www.w3.org/TR/2001/REC-SVG-20010904/DTD/svg10.dtd">
<svg version="1.0" xmlns="http://www.w3.org/2000/svg"
 width="1280.000000pt" height="564.000000pt" viewBox="0 0 1280.000000 564.000000"
 preserveAspectRatio="xMidYMid meet">
<metadata>
Created by potrace 1.15, written by Peter Selinger 2001-2017
</metadata>
<g transform="translate(0.000000,564.000000) scale(0.100000,-0.100000)"
fill="#ffb300" stroke="none">
<path d="M6784 5390 c-32 -16 -66 -40 -74 -52 -16 -26 -16 -214 0 -753 13
-396 12 -438 -3 -458 -10 -15 -191 -83 -635 -238 -138 -48 -156 -59 -176 -110
-43 -106 15 -208 127 -224 36 -5 89 10 347 94 168 56 315 101 327 101 15 0 24
-7 28 -22 8 -37 25 -961 26 -1413 0 -232 4 -450 9 -485 8 -68 -15 -844 -26
-873 -3 -9 -10 -15 -15 -12 -4 3 -4 17 1 31 7 17 7 23 0 19 -6 -3 -10 -13 -10
-22 0 -13 -2 -13 -17 -2 -15 13 -15 12 -3 -7 8 -14 10 -31 5 -50 l-8 -29 -7
25 c-7 23 -8 23 -9 3 -1 -12 -5 -24 -11 -28 -5 -3 -7 -12 -3 -20 3 -8 1 -15
-5 -15 -28 0 -29 77 -1 131 11 23 18 43 15 46 -5 6 -76 -138 -76 -156 0 -6 3
-10 8 -10 20 3 23 -3 11 -18 -13 -15 -11 -16 10 -10 22 6 23 5 5 -12 -11 -10
-22 -17 -26 -14 -5 2 -8 -6 -8 -19 0 -18 -2 -20 -10 -8 -6 10 -4 20 5 30 13
14 11 22 -10 62 -16 29 -22 53 -18 69 6 21 5 23 -10 10 -9 -7 -17 -10 -17 -5
0 5 -7 -1 -15 -13 -18 -26 -42 -21 -56 11 -8 17 -8 16 -4 -8 4 -19 0 -34 -11
-47 -19 -21 -40 -26 -28 -8 4 7 8 28 10 47 2 20 9 39 15 43 7 4 9 14 4 25 -6
14 -13 -1 -27 -58 -12 -45 -24 -75 -30 -72 -5 4 -8 17 -5 30 6 34 -10 20 -33
-29 l-19 -42 -2 50 c-5 119 -12 144 -24 76 -4 -22 -12 -45 -19 -50 -10 -9 -12
0 -10 41 3 50 0 44 -12 -30 -3 -18 -9 -30 -15 -27 -5 4 -10 0 -11 -7 0 -7 -2
-17 -3 -23 -2 -5 -3 -17 -4 -25 -2 -24 -21 13 -21 42 0 12 -4 50 -9 83 -9 57
-9 54 -9 -45 1 -132 1 -130 -18 -130 -9 0 -14 6 -11 13 2 6 9 11 15 10 12 -3
4 35 -10 43 -6 4 -8 -2 -3 -15 4 -13 2 -21 -6 -21 -7 0 -10 10 -6 29 4 20 1
33 -11 44 -16 14 -17 13 -17 -16 0 -27 -4 -32 -25 -32 -20 -1 -24 -6 -23 -23
2 -12 -2 -22 -8 -22 -7 0 -9 11 -6 29 4 19 2 31 -6 34 -9 3 -6 16 9 45 15 27
18 44 12 54 -8 10 -9 9 -5 -4 3 -9 -1 -19 -9 -22 -8 -3 -14 0 -15 7 0 7 -10
-10 -23 -38 -12 -27 -30 -56 -39 -63 -13 -11 -15 -10 -13 11 2 13 6 29 10 35
11 18 -10 14 -29 -5 -14 -14 -18 -14 -26 -2 -7 11 -9 9 -9 -8 0 -12 -5 -25
-10 -28 -14 -8 -1 45 14 62 31 34 36 43 28 43 -5 0 -22 -16 -36 -35 -15 -20
-32 -33 -37 -30 -5 4 -9 1 -9 -4 0 -20 -18 -11 -25 12 -6 19 -9 15 -18 -26 -6
-26 -14 -47 -19 -47 -5 0 -7 -10 -4 -22 4 -14 0 -11 -11 9 -16 31 -15 36 6
114 22 79 24 120 3 61 -11 -31 -50 -82 -63 -82 -4 0 -5 10 -3 23 2 12 2 16 -2
10 -9 -20 -22 -15 -27 9 -3 17 -5 13 -7 -12 -1 -19 -2 -40 -1 -46 1 -6 -6 -17
-14 -24 -18 -15 -20 1 -2 19 10 11 7 12 -13 6 -23 -7 -24 -7 -10 10 11 14 11
17 1 11 -10 -7 -12 -3 -6 15 4 17 3 20 -3 10 -6 -8 -15 -10 -22 -6 -10 6 -12
1 -7 -23 6 -29 -7 -46 -15 -21 -2 7 -10 4 -18 -7 -8 -10 -10 -15 -4 -11 7 4
12 -2 12 -18 0 -14 -4 -25 -8 -25 -8 0 -12 22 -12 77 0 24 -4 43 -9 43 -5 0
-9 -6 -9 -12 0 -7 -9 -24 -20 -38 -17 -21 -21 -23 -30 -10 -8 12 -10 10 -11
-10 -1 -14 -2 -29 -4 -35 -1 -5 -3 -16 -3 -22 -1 -7 -7 -13 -14 -13 -9 0 -9 3
0 12 15 15 16 32 2 23 -16 -10 -11 51 5 65 9 7 14 18 12 24 -3 6 0 19 5 30 8
14 7 17 -3 11 -9 -6 -11 -3 -6 9 4 9 3 15 -1 12 -5 -3 -15 -24 -22 -48 -24
-74 -50 -95 -76 -61 -10 13 -13 34 -9 73 4 36 3 50 -4 41 -5 -8 -12 -50 -16
-93 -4 -43 -10 -78 -14 -78 -9 1 -68 91 -75 117 -13 41 -31 16 -27 -38 1 -27
0 -66 -4 -85 l-6 -36 -40 58 -40 57 -11 556 c-5 306 -11 684 -11 840 l-2 283
140 49 c77 27 209 72 293 100 176 60 189 70 177 145 -4 31 -15 54 -32 70 -51
47 -72 44 -333 -51 -143 -52 -245 -84 -250 -79 -5 5 -14 147 -19 316 -6 169
-14 314 -17 323 -4 9 -25 25 -47 36 -34 18 -46 19 -77 10 -19 -6 -46 -20 -59
-32 l-22 -21 7 -363 7 -362 -54 -20 c-30 -11 -137 -49 -239 -84 -101 -35 -192
-71 -202 -81 -13 -13 -18 -33 -18 -68 0 -46 3 -52 33 -70 17 -11 45 -20 61
-20 16 0 114 28 218 61 111 36 193 58 198 53 26 -26 35 -1663 9 -1689 -6 -5
-9 -3 -9 8 0 9 -4 17 -10 17 -5 0 -7 -7 -4 -15 9 -23 -6 -92 -16 -75 -6 10 -9
8 -13 -6 -4 -14 -5 -12 -5 6 1 14 0 61 -2 105 l-4 80 -5 -95 c-5 -75 -9 -95
-21 -95 -16 0 -16 4 -6 45 3 15 -1 11 -10 -10 l-15 -35 -72 0 c-40 0 -87 -4
-104 -8 -32 -6 -33 -5 -34 26 l-1 32 -12 -35 c-9 -26 -21 -38 -47 -46 -19 -7
-35 -11 -37 -9 -2 2 4 18 13 37 l16 33 -20 -25 c-27 -34 -38 -18 -17 26 9 20
15 38 13 41 -2 2 -15 -21 -28 -51 -22 -51 -26 -55 -56 -54 -18 1 -33 6 -33 12
0 5 -7 1 -15 -10 -13 -17 -15 -14 -16 41 -1 37 -4 47 -6 25 -6 -56 -13 -80
-23 -80 -6 0 -11 17 -11 38 -1 37 -1 37 -9 7 -8 -30 -8 -30 -9 8 0 20 -6 37
-12 37 -8 0 -9 -11 -5 -31 4 -20 1 -38 -6 -47 -10 -13 -10 -14 0 -8 6 4 12 2
12 -3 0 -14 -17 -14 -26 0 -4 8 -9 7 -15 -2 -6 -11 -9 -11 -13 1 -13 43 -14
45 -15 24 -1 -17 -8 -21 -37 -22 -34 -1 -36 0 -30 26 l6 27 -17 -27 c-16 -25
-43 -38 -43 -22 0 4 35 43 78 87 48 51 62 69 37 50 -22 -17 -56 -47 -74 -67
-41 -42 -48 -44 -54 -14 -3 18 -5 16 -6 -8 -1 -36 -24 -59 -64 -66 -37 -7 -41
3 -22 64 8 28 15 61 14 72 0 12 -6 -1 -14 -29 -20 -74 -33 -105 -45 -105 -13
0 -15 -8 20 90 17 47 30 87 30 90 0 3 5 -2 11 -10 9 -13 10 -13 6 0 -2 8 0 25
4 38 5 13 5 21 0 18 -7 -5 -58 -104 -89 -176 -9 -22 -11 -18 -13 35 l-2 60 -6
-45 c-8 -54 -29 -90 -54 -90 -23 0 -31 23 -17 50 8 15 8 20 1 16 -13 -9 -12
-20 -21 139 l-7 130 -1 -135 c-1 -74 -1 -149 -1 -167 -1 -29 -4 -32 -31 -31
-17 1 -30 3 -30 6 0 3 11 20 25 38 27 36 19 56 -10 24 -22 -25 -42 -27 -24 -3
11 15 11 16 -1 5 -20 -18 -26 -15 -49 21 -12 17 -32 45 -46 60 l-25 28 -28
-32 c-15 -18 -33 -40 -40 -48 -11 -13 -12 -5 -8 49 l5 65 -14 -70 c-17 -81
-33 -125 -47 -125 -5 0 -7 4 -4 8 2 4 1 14 -5 22 -7 12 -9 10 -9 -7 0 -14 -11
-27 -32 -37 -38 -19 -59 -7 -37 21 13 16 12 17 -3 4 -17 -12 -18 -10 -18 24 0
21 7 46 15 55 13 14 12 16 -5 16 -10 0 -17 -4 -14 -7 2 -4 0 -10 -4 -13 -5 -3
-7 -18 -5 -33 3 -21 2 -24 -6 -13 -5 8 -7 18 -5 22 3 4 0 8 -5 8 -23 0 -15 13
58 93 13 15 22 27 18 27 -11 0 -87 -83 -135 -148 -45 -61 -61 -74 -63 -49 -1
12 -2 22 -15 82 -3 20 2 50 15 85 22 57 23 82 1 30 -9 -23 -15 -28 -21 -18 -6
8 -9 0 -9 -22 0 -39 -29 -129 -48 -153 -10 -12 -10 -16 0 -20 7 -3 3 -4 -10
-4 -19 1 -23 6 -19 24 2 12 0 20 -4 17 -5 -3 -9 -1 -9 5 0 5 -2 16 -5 23 -3 8
11 34 32 58 l37 45 -40 -38 -40 -37 -12 33 c-6 18 -19 42 -27 52 -8 11 -4 -4
9 -34 l25 -54 -32 -43 c-22 -29 -40 -43 -55 -44 l-24 0 23 37 c13 20 17 33 9
28 -10 -6 -11 -2 -6 21 5 24 4 26 -5 11 -6 -10 -8 -25 -5 -33 3 -8 1 -14 -4
-14 -5 0 -12 -9 -15 -21 -12 -36 -18 -12 -17 63 0 67 0 70 -9 33 -6 -22 -10
-53 -11 -70 0 -23 -1 -25 -5 -8 -2 13 -8 23 -13 23 -5 0 -11 12 -13 27 -3 19
-5 13 -6 -17 -1 -33 -4 -41 -11 -30 -7 12 -10 8 -10 -15 0 -21 -3 -26 -9 -16
-7 11 -9 11 -14 0 -3 -10 -7 -9 -12 5 -5 10 -3 34 4 53 7 19 11 37 8 39 -2 3
-8 -8 -12 -23 l-7 -28 -13 35 c-14 37 -18 16 -6 -35 8 -32 -5 -85 -20 -85 -6
0 -5 9 1 20 8 16 8 20 -4 20 -8 0 -16 -6 -19 -12 -10 -29 -18 3 -9 35 8 27 7
37 -2 40 -7 3 -13 0 -14 -6 -3 -38 -29 -87 -44 -87 -24 0 -23 11 4 46 l22 29
-22 -19 c-12 -11 -22 -15 -23 -10 0 5 -4 -1 -9 -14 -15 -35 -27 -26 -41 29
-12 46 -14 48 -23 27 -5 -13 -8 -27 -7 -31 3 -15 -20 -48 -30 -42 -5 4 -9 1
-9 -6 0 -7 -3 -9 -7 -6 -3 4 0 15 8 24 9 10 15 30 14 45 0 15 1 25 4 23 5 -6
35 35 37 52 3 20 -4 16 -38 -23 -18 -20 -33 -45 -33 -56 -1 -11 -6 -23 -12
-26 -5 -4 -13 -16 -17 -27 -6 -14 -10 -16 -13 -7 -3 7 4 24 16 36 27 28 27 40
1 26 -18 -10 -20 -8 -21 27 -1 38 -1 38 -9 9 -5 -16 -7 -33 -4 -38 3 -5 0 -7
-8 -6 -8 2 -15 26 -19 68 l-5 65 -2 -79 c-2 -68 -4 -77 -17 -66 -10 8 -15 30
-15 64 0 40 5 57 25 80 40 47 28 45 -14 -1 -21 -24 -43 -43 -48 -43 -5 0 -25
-17 -44 -37 -43 -47 -61 -76 -31 -49 24 21 42 15 24 -7 -7 -8 -8 -18 -4 -22 4
-5 2 -5 -5 -1 -6 3 -14 2 -18 -4 -3 -5 -10 -10 -14 -10 -12 0 -4 186 13 295 5
34 4 36 -4 11 -5 -16 -14 -63 -21 -105 -6 -42 -19 -84 -27 -94 -22 -25 -26
-13 -7 20 16 28 12 23 -29 -32 -15 -19 -15 -19 -22 13 -4 18 -10 35 -15 38 -5
2 -7 17 -5 32 2 15 1 21 -1 13 -4 -11 -10 -9 -24 10 l-19 24 15 -37 c18 -44
19 -51 5 -43 -9 5 -14 -36 -11 -85 0 -10 -1 -11 -5 -2 -3 6 -10 10 -14 7 -14
-9 -31 69 -25 114 3 23 1 41 -4 41 -4 0 -11 -24 -15 -54 -3 -30 -11 -67 -18
-83 l-11 -28 -7 35 c-5 25 -8 28 -9 12 -2 -34 -37 -79 -67 -86 -41 -11 -49 13
-17 46 24 25 28 26 43 13 16 -15 30 -11 30 7 0 5 -4 7 -9 3 -19 -11 -22 17 -4
38 13 16 14 18 2 9 -28 -21 -55 -22 -70 -1 -7 10 -18 19 -23 19 -5 0 2 -13 17
-28 l27 -28 -23 -22 c-29 -28 -37 -28 -38 1 l0 22 -11 -22 c-6 -13 -15 -23
-20 -23 -13 0 -10 18 5 23 9 4 9 6 0 6 -18 1 -16 56 2 71 8 7 15 18 15 24 0 6
-5 3 -11 -7 -6 -9 -14 -15 -20 -12 -5 4 -9 -1 -9 -10 0 -8 -7 -18 -15 -21 -8
-4 -15 -12 -15 -19 0 -7 -6 -18 -14 -24 -12 -10 -15 -8 -19 11 -3 17 -5 14 -6
-10 0 -18 -5 -31 -10 -28 -5 4 -11 1 -13 -5 -2 -6 -16 -13 -31 -14 -35 -4 -35
17 0 64 l26 36 -31 -29 c-33 -31 -40 -29 -21 6 8 15 8 19 0 14 -6 -4 -11 0
-11 9 0 9 -4 13 -10 10 -5 -3 -10 -18 -10 -32 0 -13 -9 -36 -20 -50 -11 -15
-18 -34 -15 -44 3 -9 2 -20 -3 -23 -5 -3 -8 16 -8 42 1 33 11 64 34 105 19 31
31 57 28 57 -3 0 -17 -20 -31 -45 -15 -24 -32 -43 -38 -42 -6 1 -12 -10 -12
-25 -1 -30 -25 -65 -25 -37 0 8 6 21 13 28 8 10 8 12 0 7 -21 -12 -23 11 -3
37 13 16 16 28 10 32 -5 3 -10 3 -10 -2 -1 -4 -10 -19 -21 -33 -21 -24 -21
-24 -36 -5 -15 19 -15 19 -9 -5 5 -21 4 -20 -8 5 -8 17 -17 39 -20 49 -12 37
-16 8 -6 -39 10 -46 9 -50 -16 -77 -15 -15 -31 -28 -35 -28 -8 0 -4 68 7 125
4 23 3 26 -5 15 -6 -8 -11 -25 -11 -38 0 -45 -18 -11 -26 50 -4 36 -9 52 -11
38 -2 -14 0 -50 4 -80 5 -30 7 -66 4 -80 -3 -23 -4 -24 -12 -5 -6 15 -8 9 -8
-22 -1 -50 -21 -59 -21 -10 -1 29 -2 30 -12 12 -16 -29 -16 -29 -31 -16 -11 8
-12 23 -5 67 9 61 4 87 -6 30 -9 -46 -29 -62 -50 -41 -17 18 -21 35 -8 35 5 0
9 7 9 15 0 8 -4 15 -8 15 -4 0 -10 10 -12 23 -3 13 -5 6 -6 -17 -1 -42 -32
-100 -61 -116 -24 -13 -30 -13 -30 1 0 5 4 7 10 4 19 -12 10 12 -12 31 -18 15
-20 16 -9 2 11 -15 11 -22 -3 -43 -19 -29 -28 -32 -20 -7 5 13 4 14 -4 3 -6
-8 -15 -10 -23 -6 -11 6 -12 5 -2 -5 10 -11 9 -17 -4 -32 -22 -24 -30 -23 -37
8 -5 17 0 35 15 57 l23 32 -27 -24 -27 -24 0 30 c0 20 17 54 50 101 62 88 57
95 -6 9 -25 -34 -49 -64 -53 -67 -3 -3 -17 -26 -31 -52 -13 -27 -28 -48 -33
-48 -4 0 -6 4 -3 9 3 5 -1 26 -9 47 l-15 39 5 -72 c4 -47 2 -73 -5 -78 -8 -5
-10 5 -6 32 4 25 3 31 -2 18 -5 -12 -7 25 -4 90 2 67 1 106 -5 100 -25 -28
-82 -104 -98 -132 -11 -18 -22 -33 -26 -33 -13 0 -18 44 -7 57 15 19 4 16 -20
-6 -12 -10 -22 -23 -22 -28 0 -6 -6 -16 -14 -22 -20 -17 -43 115 -27 161 6 17
11 34 11 37 -1 12 -25 -35 -36 -69 -12 -35 -12 -34 -13 25 -2 72 -13 59 -31
-37 -12 -59 -19 -72 -59 -110 -25 -24 -40 -36 -35 -28 7 11 5 25 -8 50 l-19
35 3 -72 c1 -39 6 -70 10 -67 4 3 8 1 8 -5 0 -5 -5 -13 -10 -16 -6 -4 -10 -77
-10 -186 l0 -179 5910 0 5910 0 -1 418 c-1 229 -4 408 -6 397 -3 -11 -8 -24
-12 -28 -11 -11 -44 137 -39 168 3 14 4 25 2 25 -2 0 -20 -18 -40 -40 -20 -22
-40 -37 -45 -34 -5 3 -8 1 -7 -4 5 -14 -71 -94 -82 -87 -6 4 -8 12 -4 18 3 7
-1 4 -9 -6 -21 -25 -30 -6 -30 57 0 47 0 48 -4 9 -2 -24 -9 -43 -15 -43 -5 0
-8 -7 -5 -15 4 -8 -1 -27 -9 -42 -15 -28 -15 -28 -9 18 4 33 2 49 -8 58 -11 9
-17 8 -27 -4 -7 -8 -16 -15 -21 -15 -12 0 -11 37 1 45 6 3 10 12 10 18 0 7 -4
6 -10 -3 -9 -13 -10 -13 -10 0 -1 8 -14 -10 -29 -40 -26 -49 -75 -109 -71 -85
6 26 -3 36 -9 11 -3 -16 -13 -31 -21 -33 -12 -4 -12 -3 -1 5 11 8 11 10 0 14
-10 3 -3 26 29 89 49 96 30 87 -23 -11 -21 -41 -35 -57 -35 -44 0 11 -6 21
-13 21 -8 0 -12 -14 -10 -41 2 -39 1 -38 -11 14 -11 45 -14 49 -16 25 l-2 -30
-11 28 c-6 15 -14 27 -19 27 -4 0 -3 -12 3 -27 5 -15 7 -39 3 -53 -7 -22 -9
-20 -15 20 l-7 45 1 -53 c1 -28 -1 -52 -5 -52 -5 0 -8 5 -8 10 0 6 -4 10 -10
10 -5 0 -10 -6 -10 -14 0 -8 -5 -18 -12 -22 -8 -5 -9 -2 -3 12 4 10 12 39 17
64 6 25 13 47 17 50 3 3 11 20 18 38 10 27 9 31 -1 23 -7 -6 -16 -8 -19 -4 -4
3 -7 -5 -7 -19 0 -33 -20 -88 -32 -88 -5 0 -6 6 -2 12 3 7 -5 0 -20 -17 -14
-16 -25 -25 -26 -18 0 6 7 19 16 27 8 9 13 19 10 24 -2 4 8 35 24 67 16 33 28
61 27 62 -2 1 -25 -25 -52 -58 l-50 -61 -6 34 -6 33 -3 -30 c-1 -16 -2 -34 -1
-38 2 -14 -19 -47 -31 -47 -5 0 -8 9 -5 20 3 11 1 18 -3 15 -5 -3 -10 1 -13 7
-2 7 -8 9 -13 5 -4 -4 -2 -17 5 -29 10 -16 10 -23 0 -32 -9 -8 -11 -7 -6 6 7
21 -3 31 -19 17 -9 -8 -11 -5 -7 11 3 11 9 23 14 26 5 3 9 13 9 22 -1 15 -2
15 -15 -2 -14 -19 -15 -18 -15 11 0 17 10 43 22 58 l22 28 -27 -18 c-15 -9
-27 -24 -27 -31 0 -8 -5 -14 -11 -14 -5 0 -8 4 -4 9 3 5 0 13 -6 17 -9 5 -10
-1 -5 -20 8 -32 -28 -101 -47 -89 -6 4 -8 0 -4 -9 3 -9 -1 -26 -10 -38 -12
-17 -17 -19 -24 -9 -14 23 -10 163 6 208 8 23 10 39 5 36 -6 -3 -10 -12 -10
-20 0 -7 -6 -20 -12 -27 -7 -7 -14 -22 -15 -33 -5 -52 -37 -185 -45 -185 -5 0
-7 9 -4 20 3 11 8 30 11 43 6 22 6 22 -8 -2 -12 -20 -15 -21 -20 -6 -4 9 -7
38 -8 63 l-1 47 -13 -55 c-8 -35 -10 -61 -4 -72 15 -28 10 -84 -8 -99 -15 -13
-16 -11 -9 14 4 19 3 26 -4 22 -14 -8 -13 31 2 58 10 19 9 20 -4 10 -13 -11
-19 -4 -43 52 -15 36 -29 64 -30 63 -2 -2 8 -36 22 -77 24 -74 24 -74 5 -94
-20 -19 -20 -19 -16 29 3 48 3 48 -8 16 l-11 -33 -28 27 -28 27 20 31 21 31
-22 -25 c-13 -14 -26 -24 -31 -23 -5 2 -6 -3 -3 -11 7 -19 -24 -42 -38 -28 -9
9 -6 18 12 37 13 14 19 25 14 25 -5 0 -15 -9 -22 -20 -18 -30 -29 -25 -38 18
-5 26 -9 31 -12 17 -2 -11 -8 -25 -13 -31 -5 -6 -10 -32 -10 -58 -1 -26 -5
-42 -9 -35 -6 8 -9 8 -14 -2 -6 -13 -1 19 7 53 2 7 2 10 0 6 -14 -25 -23 3
-26 84 l-3 93 -2 -101 c-1 -74 -6 -105 -18 -120 -14 -18 -15 -13 -10 58 3 43
8 97 11 120 5 42 4 42 -5 8 -5 -19 -15 -71 -21 -115 -9 -58 -14 -73 -19 -55
l-6 25 -8 -25 c-7 -24 -8 -23 -17 14 -13 56 -21 59 -13 6 l7 -45 -57 68 c-31
37 -59 67 -62 67 -8 0 14 -36 31 -50 9 -7 23 -26 31 -42 13 -25 12 -32 -3 -65
l-17 -38 -3 45 c-5 64 -15 83 -22 41 -4 -21 -15 -39 -31 -49 -18 -11 -21 -12
-12 -2 17 20 15 35 -3 20 -18 -15 -19 -7 -4 23 10 18 7 17 -19 -6 -50 -48 -53
-11 -5 66 31 49 26 56 -7 11 -14 -18 -28 -34 -32 -34 -4 0 -9 21 -11 47 -3 44
-4 43 -5 -14 -1 -34 -6 -65 -12 -68 -5 -3 -10 -11 -10 -17 0 -6 7 -5 17 3 14
12 14 10 -1 -13 -20 -31 -29 -36 -20 -13 5 11 2 13 -11 9 -16 -7 -16 -5 0 26
9 18 11 29 5 25 -6 -4 -21 -28 -33 -54 -18 -39 -21 -43 -25 -23 -2 13 4 32 12
41 9 10 16 22 16 27 0 5 -4 2 -10 -6 -16 -26 -21 -4 -10 45 14 62 4 72 -11 11
-11 -45 -29 -54 -29 -14 0 32 -10 16 -11 -18 -1 -16 -3 -42 -6 -57 -4 -24 -7
-26 -21 -15 -13 11 -15 10 -9 -5 4 -11 3 -16 -3 -12 -6 3 -10 18 -11 33 0 15
-5 36 -10 47 -7 15 -8 6 -6 -33 5 -64 -1 -60 -19 10 -7 29 -13 45 -13 36 -1
-10 -4 -18 -9 -18 -4 0 -6 -18 -4 -40 3 -25 0 -40 -7 -40 -17 0 -17 65 0 86
10 12 30 109 21 99 -3 -3 -13 -26 -22 -52 -17 -49 -42 -72 -34 -31 3 13 -9 -8
-27 -47 -17 -38 -34 -72 -36 -75 -3 -3 -13 5 -23 18 -11 13 -21 18 -25 12 -3
-5 -10 -10 -14 -10 -7 0 -7 11 -2 52 1 3 13 20 27 37 27 33 23 42 -8 14 -17
-15 -18 -15 -19 3 -1 20 0 20 -21 -35 -8 -23 -9 -23 -24 -5 -14 18 -15 18 -8
-5 5 -19 3 -23 -9 -18 -12 4 -15 1 -11 -11 3 -9 -4 -1 -16 18 l-21 35 6 -32
c5 -25 2 -34 -14 -42 -32 -18 -40 -13 -47 26 -7 36 -8 36 -15 13 l-7 -25 -8
25 c-8 23 -9 23 -14 -13 -5 -39 -26 -52 -23 -14 1 15 0 16 -3 4 -8 -27 -24
-20 -25 11 l-1 27 -10 -27 c-11 -30 -33 -39 -24 -10 8 25 10 101 4 108 -4 3
-9 -23 -13 -59 l-7 -65 -49 2 c-27 0 -49 3 -49 6 0 3 7 17 16 30 15 25 15 25
-3 4 -10 -11 -22 -21 -26 -21 -5 -1 -12 -5 -15 -9 -4 -4 0 -4 8 1 9 5 12 4 7
-1 -5 -5 -28 -9 -51 -10 -42 -2 -43 -1 -41 30 2 17 13 49 25 71 l23 40 -26
-30 c-15 -16 -27 -39 -27 -50 -1 -19 -1 -19 -11 -1 -6 10 -9 40 -7 67 6 54 -6
58 -16 4 -4 -19 -11 -37 -16 -40 -13 -8 -32 43 -25 67 4 12 2 17 -5 16 -30 -7
-17 23 25 57 25 21 43 40 40 43 -3 3 -35 -23 -70 -58 -37 -36 -65 -58 -66 -50
0 8 -11 -9 -24 -37 -13 -29 -28 -53 -33 -53 -15 0 -42 113 -30 127 7 9 7 13 0
13 -6 0 -1 35 14 88 37 133 37 148 0 37 -22 -65 -35 -93 -38 -80 -3 11 -5 0
-4 -25 1 -38 -5 -54 -34 -90 l-35 -44 -8 35 c-20 78 -52 172 -65 188 -11 14
-12 13 -3 -6 25 -52 65 -229 55 -245 -3 -4 -14 -3 -25 2 -11 6 -16 16 -13 22
5 7 2 8 -6 3 -13 -8 -12 1 5 50 4 12 0 9 -11 -7 -26 -39 -34 -35 -35 15 -2 40
-2 40 -8 -12 -4 -30 -12 -56 -19 -59 -7 -2 -10 -7 -7 -12 3 -4 -2 -13 -10 -20
-11 -9 -15 -9 -15 -1 0 7 -4 9 -10 6 -15 -9 -12 7 5 29 8 11 15 27 15 35 -1 9
-9 0 -20 -19 -11 -19 -19 -30 -20 -25 0 6 -7 2 -15 -8 -7 -11 -11 -25 -8 -33
3 -8 0 -14 -5 -14 -7 0 -9 19 -7 48 4 47 3 47 -10 17 -7 -16 -14 -23 -14 -15
-1 13 -2 13 -11 0 -6 -9 -6 -18 0 -24 13 -13 13 -39 0 -31 -6 4 -8 10 -5 15 3
5 1 11 -4 15 -13 7 3 46 44 105 63 91 50 84 -25 -14 -19 -25 -38 -46 -42 -46
-8 0 -12 22 -8 54 1 11 -3 15 -9 12 -6 -4 -11 -22 -12 -39 -1 -18 -4 -43 -9
-57 -8 -27 -7 -28 -34 50 l-15 45 6 -45 c3 -25 6 -47 5 -50 0 -38 -4 -50 -12
-45 -6 4 -10 32 -10 63 1 31 -3 73 -9 92 -10 33 -10 31 -6 -17 6 -55 -12 -114
-27 -91 -6 10 -8 10 -8 -2 0 -13 -1 -13 -10 0 -5 8 -7 24 -4 35 4 17 3 16 -9
-3 -14 -24 -30 -21 -20 4 3 8 0 14 -7 14 -7 0 -10 7 -6 15 3 8 2 15 -2 15 -10
0 -9 -34 -21 605 -5 314 -13 692 -16 841 -5 225 -4 272 8 282 7 6 106 43 218
81 404 137 389 130 389 188 0 55 -23 98 -65 117 -47 23 -53 21 -265 -57 -270
-100 -278 -103 -289 -92 -6 6 -13 133 -16 295 -4 157 -11 302 -16 323 -8 31
-18 42 -54 59 -43 21 -45 21 -84 3 -76 -34 -73 -11 -63 -401 4 -192 5 -356 1
-364 -5 -10 -101 -48 -236 -94 -125 -44 -238 -88 -250 -99 -16 -15 -23 -32
-23 -59 0 -53 13 -73 59 -91 39 -16 40 -16 242 49 111 36 206 61 211 56 8 -8
26 -732 29 -1127 2 -285 -12 -585 -28 -585 -14 0 -32 32 -38 71 -12 65 -17 34
-7 -39 9 -61 8 -63 -16 -69 -19 -4 -29 0 -44 18 -17 22 -18 22 -9 2 15 -31 14
-34 -11 -31 -34 5 -48 17 -48 41 0 20 0 20 -14 2 -8 -11 -12 -23 -10 -27 3 -5
-6 -8 -20 -8 -18 0 -26 5 -26 17 0 15 -2 14 -14 -3 -21 -29 -30 -10 -10 23 15
25 14 24 -10 -4 -29 -35 -60 -45 -49 -17 5 13 7 13 15 2 5 -8 6 -2 2 17 -9 41
-9 41 -22 -4 -10 -31 -18 -40 -43 -45 -38 -7 -49 -2 -42 23 3 10 0 22 -6 25
-7 5 -8 1 -4 -10 10 -26 -16 -7 -28 20 -7 17 -8 14 -3 -11 3 -18 2 -43 -2 -55
-6 -18 -12 -2 -25 67 l-17 90 5 -88 c4 -62 3 -87 -6 -87 -6 0 -11 12 -11 27 0
14 -3 23 -7 19 -4 -4 -8 -14 -8 -22 0 -34 -20 -14 -38 39 -23 70 -33 71 -12 1
19 -64 19 -64 -9 -64 -20 0 -25 6 -31 39 -3 21 -3 56 1 77 4 22 4 36 0 33 -3
-3 -11 -32 -17 -65 -5 -32 -12 -66 -15 -76 -5 -16 -47 -33 -73 -29 -8 1 -18
-3 -22 -11 -6 -9 -9 -7 -9 9 0 12 5 25 10 28 6 3 10 11 10 18 0 6 -7 1 -16
-12 l-16 -23 -27 26 -27 26 4 -35 c3 -21 0 -35 -7 -35 -6 0 -11 9 -11 20 0 13
-5 18 -16 13 -8 -3 -13 -11 -10 -18 2 -6 0 -18 -6 -26 -7 -11 -8 -9 -3 6 6 18
4 17 -16 -3 -16 -18 -24 -21 -30 -11 -4 7 -5 18 -2 24 4 5 -4 1 -18 -10 l-24
-20 15 20 c8 11 23 31 35 45 l20 25 -30 -25 c-16 -14 -36 -33 -43 -43 -7 -9
-26 -24 -43 -32 -26 -14 -29 -14 -29 0 0 9 15 29 32 46 18 16 28 29 22 29 -5
0 -16 -6 -23 -12 -11 -11 -12 -7 -7 22 5 28 2 24 -16 -20 -13 -30 -27 -55 -33
-55 -5 0 -14 18 -21 40 l-11 40 -7 -49 c-5 -32 -11 -45 -16 -36 -6 10 -9 8
-12 -6 -2 -10 -8 6 -12 37 -6 45 -3 64 14 103 25 59 21 73 -5 16 -13 -30 -21
-37 -27 -28 -7 9 -8 4 -5 -14 2 -15 0 -25 -4 -22 -5 3 -11 -7 -15 -21 -3 -14
-9 -25 -13 -25 -3 0 -7 -12 -8 -26 0 -14 -6 -31 -13 -38 -9 -8 -11 -3 -5 24 3
19 9 43 12 54 3 12 1 16 -6 11 -9 -5 -11 5 -7 34 3 23 3 41 1 41 -3 0 -21 -32
-41 -71 -19 -39 -38 -69 -40 -66 -3 3 3 18 13 34 14 23 15 26 2 15 -15 -11
-20 -6 -43 38 -22 43 -26 63 -27 142 0 51 -5 147 -10 213 -5 66 -11 311 -13
545 -4 447 -21 1351 -32 1775 -6 218 -5 253 8 266 9 8 110 48 224 89 115 40
317 111 449 157 238 84 279 102 302 132 19 25 15 140 -6 188 -25 55 -97 98
-161 97 -33 0 -146 -38 -410 -137 -203 -77 -376 -137 -390 -135 -24 3 -25 7
-32 88 -3 47 -11 276 -18 509 -8 317 -14 432 -25 457 -16 39 -104 94 -151 94
-17 0 -57 -13 -90 -30z m5450 -4282 c-7 -70 -14 -88 -14 -39 0 18 -4 30 -9 27
-5 -3 -14 1 -21 9 -11 13 -9 20 10 40 13 14 27 25 32 25 5 0 6 -28 2 -62z
m-650 -30 c-16 -32 -35 -51 -42 -43 -4 4 47 75 54 75 3 0 -3 -15 -12 -32z
m616 -44 c0 -54 -12 -61 -52 -33 -21 16 -33 19 -36 11 -2 -7 -8 -12 -13 -12
-13 0 10 38 46 78 27 30 31 31 42 15 7 -9 13 -36 13 -59z m-217 25 c-6 -23
-23 -36 -23 -18 0 7 -18 -7 -40 -32 l-41 -44 22 38 c11 20 25 37 30 37 5 0 9
5 9 12 0 6 8 20 17 30 19 21 34 8 26 -23z m-2477 -8 c-1 -18 -15 -43 -34 -62
-34 -35 -37 -34 -22 5 5 14 7 26 5 26 -3 0 -10 -12 -16 -26 -5 -15 -12 -24
-15 -21 -12 12 61 121 76 112 4 -3 7 -18 6 -34z m2753 -13 c-1 -12 3 -35 9
-49 6 -14 7 -32 2 -39 -4 -7 -6 -19 -3 -27 3 -7 0 -13 -5 -13 -6 0 -10 17 -10
38 0 20 -2 62 -6 92 -5 40 -4 50 4 38 5 -9 9 -27 9 -40z m-2907 -54 c-10 -50
-30 -56 -25 -7 3 21 6 47 7 58 2 11 4 27 6 35 1 8 6 1 11 -17 5 -17 6 -48 1
-69z m2578 87 c0 -6 -11 -23 -25 -38 l-24 -28 16 38 c16 34 33 49 33 28z
m-2618 -57 c-5 -21 -14 -38 -19 -37 -6 1 -9 -6 -6 -17 7 -27 -6 -25 -16 2 -6
17 -2 32 17 61 14 20 27 36 29 34 2 -2 -1 -22 -5 -43z m1969 -21 c-9 -16 -10
-16 -11 4 0 12 3 30 7 40 7 16 8 16 11 -4 2 -12 -1 -30 -7 -40z m100 30 c-12
-20 -14 -14 -5 12 4 9 9 14 11 11 3 -2 0 -13 -6 -23z m670 -5 c6 -13 8 -20 4
-16 -4 4 -14 0 -21 -10 -12 -15 -13 -15 -14 9 0 22 7 39 16 39 2 0 9 -10 15
-22z m29 12 c0 -5 -4 -10 -10 -10 -5 0 -10 5 -10 10 0 6 5 10 10 10 6 0 10 -4
10 -10z m-1137 -20 c3 -11 1 -23 -4 -26 -5 -3 -9 6 -9 20 0 31 6 34 13 6z
m453 -27 c-11 -11 -17 4 -9 23 7 18 8 18 11 1 2 -10 1 -21 -2 -24z m145 -6
c-8 -8 -11 -5 -11 9 0 27 14 41 18 19 2 -9 -1 -22 -7 -28z m-2006 12 c4 -11 4
-23 1 -26 -10 -10 -35 18 -29 33 8 20 21 17 28 -7z m2311 -7 c-18 -16 -18 -16
-6 6 6 13 14 21 18 18 3 -4 -2 -14 -12 -24z m-2276 -2 c0 -11 -4 -20 -10 -20
-5 0 -10 9 -10 20 0 11 5 20 10 20 6 0 10 -9 10 -20z m1477 2 c12 -19 7 -69
-8 -78 -5 -3 -6 1 -3 9 3 8 -1 14 -10 14 -8 0 -12 -6 -8 -15 3 -10 1 -13 -6
-8 -16 10 -1 96 17 96 3 0 11 -8 18 -18z m309 -7 c-18 -28 -21 -39 -6 -30 6 4
7 -1 3 -11 -4 -11 -8 -13 -11 -6 -2 7 -8 10 -13 6 -5 -3 -2 11 8 30 9 20 21
36 26 36 5 0 2 -11 -7 -25z m117 1 c-10 -13 -20 -20 -22 -14 -1 5 5 16 15 23
26 20 28 18 7 -9z m42 -8 c-4 -18 -13 -40 -21 -48 -12 -12 -14 -12 -14 7 0 30
11 54 21 47 5 -3 9 2 9 10 0 9 3 16 6 16 3 0 3 -15 -1 -32z m633 15 c5 -17
-26 -29 -40 -15 -6 6 -7 15 -3 22 9 14 37 9 43 -7z m-2662 -20 c-2 -21 -9 -29
-27 -30 -13 -1 -18 0 -11 3 6 3 12 11 12 18 0 10 19 36 26 36 2 0 1 -12 0 -27z
m2085 -4 c-9 -22 -10 -22 -10 -3 -1 11 2 24 6 27 12 12 14 0 4 -24z m379 21
c0 -5 -5 -10 -11 -10 -5 0 -7 5 -4 10 3 6 8 10 11 10 2 0 4 -4 4 -10z m-3460
-10 c0 -5 -2 -10 -4 -10 -3 0 -8 5 -11 10 -3 6 -1 10 4 10 6 0 11 -4 11 -10z
m318 -11 c10 -14 10 -18 -3 -23 -11 -4 -15 1 -15 21 0 14 1 24 3 22 1 -2 8
-11 15 -20z m412 0 c0 -5 -4 -9 -8 -9 -5 0 -9 7 -9 15 0 8 4 12 9 9 4 -3 8 -9
8 -15z m2077 -1 c-3 -8 -6 -5 -6 6 -1 11 2 17 5 13 3 -3 4 -12 1 -19z m778 -5
c-9 -38 -45 -60 -45 -28 0 12 37 55 48 55 2 0 1 -12 -3 -27z m-1111 -55 c-9
-15 -23 17 -22 52 0 23 1 22 14 -8 8 -18 11 -38 8 -44z m632 35 c-11 -11 -17
4 -9 23 7 18 8 18 11 1 2 -10 1 -21 -2 -24z m634 22 c0 -8 -4 -15 -10 -15 -5
0 -10 7 -10 15 0 8 5 15 10 15 6 0 10 -7 10 -15z m-3145 -14 c-3 -6 -11 -11
-17 -11 -6 0 -6 6 2 15 14 17 26 13 15 -4z m1144 -25 c-9 -8 -10 -7 -5 7 3 10
7 24 7 30 1 7 3 4 6 -7 3 -10 -1 -23 -8 -30z m1871 34 c0 -5 -5 -10 -11 -10
-5 0 -7 5 -4 10 3 6 8 10 11 10 2 0 4 -4 4 -10z m-2905 -10 c3 -5 1 -10 -4
-10 -6 0 -11 5 -11 10 0 6 2 10 4 10 3 0 8 -4 11 -10z m55 6 c0 -3 -4 -8 -10
-11 -5 -3 -10 -1 -10 4 0 6 5 11 10 11 6 0 10 -2 10 -4z m2297 -28 c-3 -8 -6
-5 -6 6 -1 11 2 17 5 13 3 -3 4 -12 1 -19z m94 9 c-6 -8 -7 -18 -3 -23 4 -4
-1 -2 -10 5 -20 15 -15 31 9 31 12 0 13 -3 4 -13z m527 -7 c-13 -20 -28 -27
-28 -12 0 10 22 32 32 32 5 0 3 -9 -4 -20z m-5856 -22 c-8 -8 -9 -4 -5 13 4
13 8 18 11 10 2 -7 -1 -18 -6 -23z m206 -24 l-12 -29 -4 28 c-4 31 20 73 26
45 2 -8 -3 -28 -10 -44z m4339 41 c0 -8 -5 -11 -10 -8 -6 4 -8 0 -4 -10 3 -9
2 -19 -3 -22 -14 -9 -12 29 2 43 15 15 15 15 15 -3z m1033 5 c0 -5 -5 -10 -11
-10 -5 0 -7 5 -4 10 3 6 8 10 11 10 2 0 4 -4 4 -10z m230 1 c0 -5 -7 -14 -15
-21 -12 -10 -15 -10 -15 2 0 8 3 18 7 21 9 10 23 9 23 -2z m-1577 -21 c-3 -11
-9 -20 -14 -20 -11 0 -11 3 -3 24 9 23 23 20 17 -4z m108 -7 c-8 -15 -10 -15
-11 -2 0 17 10 32 18 25 2 -3 -1 -13 -7 -23z m816 5 c-3 -8 -6 -5 -6 6 -1 11
2 17 5 13 3 -3 4 -12 1 -19z m-3757 -13 c0 -8 -4 -17 -10 -20 -6 -4 -10 5 -10
20 0 15 4 24 10 20 6 -3 10 -12 10 -20z m3792 3 c-7 -7 -12 -8 -12 -2 0 14 12
26 19 19 2 -3 -1 -11 -7 -17z m558 -3 c-7 -9 -15 -13 -18 -10 -3 2 1 11 8 20
7 9 15 13 18 10 3 -2 -1 -11 -8 -20z m-6297 -17 c-3 -15 -11 -29 -18 -32 -14
-5 -9 30 8 52 13 17 16 12 10 -20z m784 -9 c-15 -23 -16 -20 -10 14 4 19 8 25
13 16 5 -7 3 -20 -3 -30z m713 15 c0 -14 -4 -23 -9 -20 -5 3 -8 -2 -7 -11 0
-9 -5 -18 -12 -20 -13 -5 -9 13 11 55 13 28 17 28 17 -4z m3370 22 c0 -3 -4
-8 -10 -11 -5 -3 -10 -1 -10 4 0 6 5 11 10 11 6 0 10 -2 10 -4z m110 -11 c-7
-9 -15 -13 -19 -10 -3 3 1 10 9 15 21 14 24 12 10 -5z m1390 5 c0 -5 -5 -10
-11 -10 -5 0 -7 5 -4 10 3 6 8 10 11 10 2 0 4 -4 4 -10z m70 0 c0 -5 -5 -10
-11 -10 -5 0 -7 5 -4 10 3 6 8 10 11 10 2 0 4 -4 4 -10z m25 1 c3 -5 1 -12 -5
-16 -5 -3 -10 1 -10 9 0 18 6 21 15 7z m-6935 -53 c0 -16 -4 -28 -10 -28 -5 0
-10 19 -10 43 0 31 3 38 10 27 5 -8 10 -27 10 -42z m2046 -6 c-12 -12 -18 8
-10 35 l8 28 4 -28 c2 -16 1 -31 -2 -35z m-633 33 c-3 -9 -8 -14 -10 -11 -3 3
-2 9 2 15 9 16 15 13 8 -4z m-1326 -57 c-2 -13 -4 -3 -4 22 0 25 2 35 4 23 2
-13 2 -33 0 -45z m1003 43 c0 -22 -16 -36 -24 -22 -8 12 3 41 15 41 5 0 9 -9
9 -19z m107 -3 c-3 -8 -6 -5 -6 6 -1 11 2 17 5 13 3 -3 4 -12 1 -19z m920 -15
c-3 -10 -5 -4 -5 12 0 17 2 24 5 18 2 -7 2 -21 0 -30z m-2067 -46 c1 -20 -27
21 -33 48 -7 30 -7 30 13 -5 10 -19 19 -39 20 -43z m541 42 c-5 -13 -10 -19
-10 -12 -1 15 10 45 15 40 3 -2 0 -15 -5 -28z m428 -53 c-5 -6 -9 10 -8 40 l1
49 8 -40 c5 -22 4 -44 -1 -49z m-1088 -8 c9 -22 8 -31 -5 -50 -13 -18 -16 -19
-16 -5 0 9 5 17 12 17 6 0 8 3 4 8 -4 4 -10 6 -13 4 -10 -6 -44 81 -38 97 5
12 10 8 25 -14 11 -17 25 -42 31 -57z m471 50 c-7 -7 -12 -8 -12 -2 0 14 12
26 19 19 2 -3 -1 -11 -7 -17z m-5069 -49 c-5 -5 -7 7 -4 29 5 34 6 35 9 8 2
-16 0 -32 -5 -37z m261 -6 c-7 -72 -40 -144 -55 -121 -6 9 -8 5 -7 -11 2 -13
-3 -26 -11 -29 -14 -5 -13 -1 2 65 2 7 12 21 22 33 19 20 19 21 -1 13 -10 -4
-27 -16 -37 -28 -15 -16 -14 -12 4 25 26 54 34 64 25 30 -6 -19 -5 -21 3 -10
6 8 11 21 11 28 0 14 38 72 46 72 3 0 2 -30 -2 -67z m2711 -60 c-7 -36 -25
-45 -25 -12 0 11 -4 18 -9 14 -5 -3 -12 5 -14 17 -3 15 -5 9 -6 -14 -1 -27 -6
-38 -16 -38 -28 0 -16 45 28 104 l42 58 3 -49 c2 -26 1 -63 -3 -80z m2514 93
c-3 -3 -11 5 -18 17 -13 21 -12 21 5 5 10 -10 16 -20 13 -22z m343 9 c-2 -14
-8 -25 -13 -25 -10 0 -11 12 -3 34 10 25 22 19 16 -9z m-2783 -62 c13 -20 16
-35 10 -39 -6 -3 -8 -13 -5 -21 3 -8 2 -11 -3 -8 -5 3 -12 1 -16 -5 -3 -5 -10
-10 -15 -10 -10 0 -30 88 -30 133 l0 32 20 -25 c11 -14 29 -39 39 -57z m2721
53 c0 -3 -4 -8 -10 -11 -5 -3 -10 -1 -10 4 0 6 5 11 10 11 6 0 10 -2 10 -4z
m-4220 -34 c0 -9 -5 -24 -10 -32 -7 -11 -10 -5 -10 23 0 23 4 36 10 32 6 -3
10 -14 10 -23z m-1496 -40 c7 -58 1 -92 -14 -92 -4 0 -10 24 -12 53 -7 103 15
137 26 39z m1156 -6 c0 -50 -4 -65 -16 -70 -9 -4 -19 -5 -21 -3 -3 4 30 137
34 137 2 0 3 -29 3 -64z m546 27 c-8 -15 -15 -22 -16 -15 0 17 20 55 27 49 2
-3 -2 -18 -11 -34z m2954 9 c0 -15 -2 -15 -10 -2 -13 20 -13 33 0 25 6 -3 10
-14 10 -23z m747 6 c-3 -8 -6 -5 -6 6 -1 11 2 17 5 13 3 -3 4 -12 1 -19z
m-4535 0 c-5 -7 -12 -22 -15 -33 -5 -20 -5 -20 -6 1 0 11 4 25 11 32 16 16 23
15 10 0z m122 -22 c-3 -9 -10 -16 -15 -16 -6 0 -5 9 1 21 13 24 24 20 14 -5z
m556 4 c-6 -11 -13 -20 -16 -20 -2 0 0 9 6 20 6 11 13 20 16 20 2 0 0 -9 -6
-20z m3742 -2 c-7 -7 -12 -8 -12 -2 0 14 12 26 19 19 2 -3 -1 -11 -7 -17z
m-5336 -4 c-3 -9 -9 -28 -13 -42 l-7 -27 -7 25 c-6 23 -7 23 -8 -7 -1 -35 -9
-40 -31 -20 -8 6 -7 3 3 -9 19 -23 22 -40 8 -48 -5 -3 -16 6 -26 20 -17 26
-16 27 16 60 18 18 36 31 41 28 4 -3 8 4 8 15 0 12 5 21 11 21 6 0 8 -7 5 -16z
m606 -31 c3 -49 -8 -93 -24 -93 -4 0 -8 10 -8 23 0 13 -5 28 -12 35 -9 9 -7
20 8 47 10 19 22 35 26 35 4 0 8 -21 10 -47z m1160 7 c-5 -13 -11 -19 -14 -14
-3 5 -1 20 4 34 13 31 22 12 10 -20z m-592 15 c0 -8 -4 -15 -10 -15 -5 0 -7 7
-4 15 4 8 8 15 10 15 2 0 4 -7 4 -15z m440 -10 c-7 -9 -15 -13 -18 -10 -3 2 1
11 8 20 7 9 15 13 18 10 3 -2 -1 -11 -8 -20z m1086 -1 c-3 -8 -1 -13 3 -11 5
1 9 -1 10 -5 4 -27 -1 -38 -15 -38 -10 0 -14 6 -10 15 3 8 2 15 -3 15 -4 0 -6
11 -3 25 2 14 9 22 14 19 5 -3 7 -12 4 -20z m-2346 -37 c-18 -40 -40 -69 -40
-53 0 9 55 105 58 102 1 -2 -7 -24 -18 -49z m283 16 c-4 -11 -2 -14 5 -9 8 5
10 -2 5 -26 -8 -44 -13 -48 -13 -10 0 18 -4 32 -10 32 -5 0 -10 12 -10 26 0
22 2 24 14 14 8 -6 12 -19 9 -27z m1817 -10 c0 -16 -6 -23 -19 -23 -14 0 -19
6 -17 23 2 13 6 30 11 37 10 16 25 -6 25 -37z m115 17 c0 -17 -5 -30 -12 -30
-7 0 -10 7 -8 15 3 8 7 22 10 30 7 23 10 18 10 -15z m-2439 -15 c6 -34 1 -55
-11 -43 -3 3 -9 22 -12 42 -8 48 14 48 23 1z m744 0 c0 -14 -8 -29 -20 -35
-12 -6 -18 -16 -14 -23 5 -9 4 -9 -5 -1 -10 10 -9 19 4 48 20 42 35 47 35 11z
m90 -5 c-6 -12 -14 -19 -17 -17 -2 3 1 15 7 27 6 12 14 19 17 17 2 -3 -1 -15
-7 -27z m580 26 c0 -2 -7 -9 -15 -16 -13 -11 -14 -10 -9 4 5 14 24 23 24 12z
m1123 -16 c-3 -11 -12 -20 -19 -20 -17 0 -18 12 -2 28 18 18 27 15 21 -8z
m-1833 6 c0 -2 -8 -10 -17 -17 -16 -13 -17 -12 -4 4 13 16 21 21 21 13z m450
0 c0 -3 -4 -8 -10 -11 -5 -3 -10 -1 -10 4 0 6 5 11 10 11 6 0 10 -2 10 -4z
m-1181 -63 c1 -32 -16 -29 -22 4 -7 36 4 64 14 37 4 -10 8 -29 8 -41z m1715
42 c-4 -8 -8 -15 -10 -15 -2 0 -4 7 -4 15 0 8 4 15 10 15 5 0 7 -7 4 -15z
m-1804 -37 c0 -37 -2 -40 -14 -28 -9 9 -12 26 -9 43 8 42 23 32 23 -15z m503
18 c-10 -13 -20 -20 -21 -15 -7 17 7 39 23 39 14 0 14 -3 -2 -24z m769 -8 c-7
-7 -10 -5 -7 8 5 29 6 30 12 16 3 -8 1 -18 -5 -24z m78 28 c0 -2 -6 -9 -14
-15 -11 -9 -16 -9 -22 0 -4 7 -3 9 4 5 6 -3 13 -2 17 4 6 10 15 14 15 6z m390
-16 c0 -5 -5 -10 -11 -10 -5 0 -7 5 -4 10 3 6 8 10 11 10 2 0 4 -4 4 -10z
m-1376 -27 c-2 -38 -4 -41 -13 -18 -9 21 -4 45 8 45 4 0 6 -12 5 -27z m296 -3
c0 -16 -4 -30 -10 -30 -11 0 -14 43 -3 53 11 12 13 8 13 -23z m-120 -2 c0 -12
-3 -18 -7 -15 -3 4 -12 2 -20 -4 -9 -9 -13 -8 -13 0 0 6 5 11 10 11 6 0 10 7
10 15 0 8 5 15 10 15 6 0 10 -10 10 -22z m-480 -19 c0 -5 -4 -9 -10 -9 -5 0
-10 7 -10 16 0 8 5 12 10 9 6 -3 10 -10 10 -16z m363 1 c-3 -11 -9 -20 -14
-20 -10 0 -12 24 -2 33 13 13 21 7 16 -13z m-285 -15 c-3 -3 -9 2 -12 12 -6
14 -5 15 5 6 7 -7 10 -15 7 -18z m557 15 c3 -5 1 -10 -4 -10 -6 0 -11 5 -11
10 0 6 2 10 4 10 3 0 8 -4 11 -10z"/>
<path d="M2081 944 c0 -11 3 -14 6 -6 3 7 2 16 -1 19 -3 4 -6 -2 -5 -13z"/>
<path d="M511 824 c-12 -15 -21 -32 -21 -38 0 -6 6 -2 12 9 6 11 18 28 26 38
8 9 12 17 9 17 -3 0 -15 -12 -26 -26z"/>
<path d="M2112 790 c0 -19 2 -27 5 -17 2 9 2 25 0 35 -3 9 -5 1 -5 -18z"/>
<path d="M2755 779 c-4 -6 -5 -12 -2 -15 2 -3 7 2 10 11 7 17 1 20 -8 4z"/>
<path d="M1256 757 c3 -10 9 -15 12 -12 3 3 0 11 -7 18 -10 9 -11 8 -5 -6z"/>
<path d="M1967 741 c3 -12 9 -21 14 -21 14 0 11 16 -5 29 -12 10 -13 8 -9 -8z"/>
<path d="M2676 745 c-9 -26 -7 -32 5 -12 6 10 9 21 6 23 -2 3 -7 -2 -11 -11z"/>
</g>
</svg>
