<?xml version="1.0" standalone="no"?>
<!DOCTYPE svg PUBLIC "-//W3C//DTD SVG 20010904//EN"
 "http://www.w3.org/TR/2001/REC-SVG-20010904/DTD/svg10.dtd">
<svg version="1.0" xmlns="http://www.w3.org/2000/svg"
 width="766.000000pt" height="1280.000000pt" viewBox="0 0 766.000000 1280.000000"
 preserveAspectRatio="xMidYMid meet">
<metadata>
Created by potrace 1.15, written by Peter Selinger 2001-2017
</metadata>
<g transform="translate(0.000000,1280.000000) scale(0.100000,-0.100000)"
fill="#4527a0" stroke="none">
<path d="M3781 12773 c-9 -18 -127 -407 -155 -513 l-12 -45 -60 0 c-32 0 -171
3 -309 7 l-250 7 30 -24 c17 -14 127 -91 245 -172 118 -80 219 -149 223 -153
4 -4 -29 -110 -73 -236 -115 -323 -122 -345 -119 -349 2 -1 112 80 243 181
131 101 242 184 245 184 8 -1 54 -35 291 -218 107 -83 196 -149 198 -148 2 3
-59 182 -158 459 -23 65 -38 122 -34 126 9 7 253 176 412 284 39 27 72 53 72
58 0 5 -102 6 -247 2 -137 -5 -273 -8 -302 -8 l-55 0 -28 95 c-16 52 -53 180
-83 284 -31 105 -57 192 -59 194 -3 2 -9 -5 -15 -15z"/>
<path d="M3716 11358 c-55 -41 -68 -124 -28 -173 50 -61 122 -69 181 -19 58
48 59 126 3 187 -22 23 -34 27 -76 27 -36 -1 -59 -7 -80 -22z"/>
<path d="M3698 11005 c-2 -3 1 -47 9 -97 7 -51 12 -99 11 -107 -2 -9 -28 6
-76 44 -40 31 -77 55 -83 53 -6 -2 17 -39 50 -83 33 -43 59 -80 58 -81 -2 -2
-43 3 -92 11 -50 8 -98 15 -107 15 -42 0 -11 -22 82 -57 55 -21 100 -40 100
-43 0 -3 -18 -11 -39 -17 -22 -7 -66 -25 -98 -40 l-58 -27 35 -4 c19 -2 66 1
103 8 38 7 70 10 72 8 2 -2 -25 -41 -61 -87 -36 -45 -63 -85 -60 -88 6 -6 49
24 130 91 l49 41 -6 -53 c-4 -28 -10 -74 -13 -102 -10 -74 9 -63 46 28 18 42
36 81 40 85 4 5 25 -35 45 -87 53 -133 66 -128 44 14 -17 109 -14 110 69 45
40 -31 77 -55 83 -53 6 2 -17 39 -51 83 -58 75 -61 80 -39 83 13 2 39 -1 59
-6 45 -14 150 -26 150 -18 0 8 -56 36 -129 62 -35 13 -68 27 -73 32 -5 5 34
25 91 47 145 54 135 69 -27 39 -46 -8 -86 -13 -89 -11 -2 3 23 40 56 83 88
111 84 121 -18 42 -36 -28 -72 -57 -80 -62 -15 -11 -14 3 5 163 10 77 -7 60
-51 -55 -21 -53 -41 -92 -45 -87 -4 4 -21 44 -39 88 -35 89 -45 108 -53 100z"/>
<path d="M3813 10243 c-9 -3 -13 -25 -13 -61 l0 -57 -28 35 c-44 56 -65 75
-70 62 -2 -7 19 -43 47 -81 37 -49 51 -78 51 -101 l0 -33 -41 52 c-51 64 -85
71 -39 9 85 -119 81 -108 78 -197 l-3 -82 -138 101 c-76 56 -141 99 -144 97
-3 -3 2 -71 11 -151 23 -206 27 -192 -45 -149 -62 37 -75 54 -109 146 -22 58
-50 94 -50 63 0 -9 11 -43 24 -76 14 -33 20 -60 15 -60 -22 0 -57 49 -82 115
-35 91 -44 105 -52 84 -3 -9 3 -39 15 -68 11 -28 20 -56 20 -61 0 -6 -24 3
-53 20 -30 16 -57 30 -61 30 -16 0 18 -43 50 -62 19 -11 34 -23 34 -28 0 -4
-25 -10 -55 -12 -31 -3 -61 -11 -68 -18 -10 -10 6 -11 86 -6 95 6 137 -1 137
-24 0 -6 -19 -10 -42 -10 -24 -1 -56 -7 -73 -16 -28 -13 -22 -14 73 -9 l102 5
70 -42 c39 -23 67 -45 63 -48 -5 -4 -77 -38 -160 -75 -84 -37 -153 -70 -153
-74 0 -4 65 -35 145 -70 80 -35 145 -68 145 -72 0 -5 -27 -22 -59 -39 l-59
-29 -92 15 c-51 8 -95 12 -97 10 -12 -12 12 -25 55 -32 26 -4 56 -10 67 -14
19 -7 18 -9 -7 -20 -21 -10 -44 -10 -103 -1 -42 6 -86 11 -97 11 -44 0 2 -25
65 -36 l62 -10 -52 -30 c-32 -18 -53 -36 -53 -47 0 -15 5 -15 51 9 28 14 53
23 55 21 2 -2 -4 -24 -15 -48 -10 -24 -22 -55 -26 -69 -16 -51 27 2 62 77 24
52 42 77 63 88 l29 15 -23 -53 c-13 -28 -27 -63 -31 -77 -16 -51 27 2 64 80
34 71 39 77 105 112 38 21 72 38 75 38 4 0 -1 -71 -11 -157 -25 -226 -27 -210
30 -171 26 17 88 63 139 100 50 37 94 68 97 68 3 0 6 -35 6 -78 l0 -78 -55
-74 c-39 -52 -52 -76 -43 -81 8 -5 26 12 53 48 l40 55 3 -31 c3 -25 -7 -46
-47 -100 -65 -87 -65 -113 -1 -42 l50 55 0 -57 c0 -43 4 -57 15 -57 10 0 15
16 17 63 l3 62 44 -57 c40 -54 61 -70 61 -49 0 5 -16 31 -35 57 -65 90 -75
109 -74 139 l0 30 27 -34 c54 -69 70 -86 78 -79 4 4 -5 25 -19 45 -14 21 -40
58 -56 82 -27 39 -31 52 -31 113 0 37 3 68 8 68 4 0 68 -45 142 -99 l135 -100
3 30 c2 17 -4 91 -12 166 -9 75 -16 140 -16 144 0 10 131 -68 143 -85 4 -6 16
-36 28 -66 23 -63 58 -116 59 -88 0 10 -9 41 -20 69 -12 28 -19 54 -16 56 10
10 46 -24 60 -57 8 -19 24 -56 35 -82 11 -27 25 -48 30 -48 15 0 14 12 -9 71
-12 28 -19 53 -17 56 3 2 20 -5 38 -16 19 -10 44 -22 57 -26 21 -6 22 -5 11
13 -7 10 -29 30 -51 43 -47 29 -48 39 -5 39 52 0 107 12 107 23 0 6 -35 8
-103 3 -88 -5 -105 -4 -127 11 l-25 18 63 6 c35 3 68 12 75 19 10 10 -7 11
-86 6 l-97 -6 -65 37 c-35 21 -64 41 -65 44 0 3 70 36 155 74 86 37 158 71
160 75 2 3 -61 35 -141 70 -80 35 -147 67 -150 72 -8 13 134 79 159 73 40 -10
167 -21 167 -15 0 7 -37 19 -110 37 l-35 9 24 13 c20 11 40 11 113 1 85 -13
118 -9 88 10 -8 5 -38 12 -67 16 -29 3 -53 9 -53 13 0 3 18 15 41 25 42 21 72
56 46 56 -8 0 -35 -11 -61 -25 -26 -14 -49 -25 -51 -25 -2 0 6 24 19 53 13 28
27 63 31 77 16 51 -27 -3 -62 -77 -29 -63 -62 -103 -85 -103 -3 0 5 27 18 61
41 101 22 100 -31 -1 -49 -92 -52 -96 -119 -132 -38 -21 -71 -36 -74 -34 -2 3
3 67 12 144 9 76 16 156 16 176 l0 37 -47 -33 c-27 -17 -89 -63 -140 -100 -50
-37 -94 -68 -97 -68 -3 0 -6 35 -6 78 l0 79 55 72 c30 40 55 77 55 82 0 21
-22 6 -57 -40 -42 -56 -53 -61 -53 -28 0 22 13 45 75 131 19 26 35 52 35 57 0
22 -23 5 -62 -48 l-43 -57 -5 66 c-4 46 -9 64 -17 61z"/>
<path d="M3173 8623 c3 -16 9 -57 13 -93 l7 -64 -67 53 c-37 29 -70 51 -73 47
-6 -6 -1 -13 60 -88 44 -54 45 -54 -63 -38 -36 5 -68 6 -73 1 -8 -8 80 -51
105 -51 8 0 22 -6 33 -14 16 -12 12 -15 -51 -40 -82 -31 -100 -41 -86 -49 9
-6 89 4 147 19 28 7 29 7 15 -13 -64 -88 -81 -115 -77 -119 2 -2 32 16 67 42
l63 46 -7 -63 c-4 -35 -10 -76 -13 -91 -11 -55 14 -26 47 54 27 67 35 79 41
63 5 -11 21 -47 36 -80 26 -58 27 -59 31 -28 2 17 -1 56 -7 85 -5 29 -8 54 -7
56 2 1 29 -18 61 -43 90 -70 98 -61 28 28 l-47 60 70 -6 c38 -4 79 -10 92 -13
12 -4 22 -2 22 3 0 6 -34 23 -76 40 -41 16 -76 33 -77 38 -1 5 28 21 64 35 36
14 65 29 65 35 -1 5 -8 9 -16 7 -63 -9 -140 -18 -140 -15 0 1 20 31 45 64 66
89 60 88 -78 -11 -19 -14 -20 -14 -14 4 4 10 10 53 14 95 7 90 -2 87 -42 -17
-16 -40 -32 -69 -35 -65 -4 4 -20 41 -35 81 -28 71 -53 98 -42 45z"/>
<path d="M4283 8618 c3 -18 9 -60 13 -92 l7 -59 -63 51 c-35 28 -67 49 -72 46
-4 -3 6 -25 24 -50 70 -96 71 -87 -2 -79 -36 3 -72 9 -82 11 -9 3 -19 1 -22
-5 -3 -5 30 -23 74 -41 45 -18 79 -34 78 -35 -2 -2 -38 -17 -80 -35 -43 -17
-78 -36 -78 -42 0 -6 10 -8 23 -5 12 3 51 9 87 13 64 7 64 7 50 -13 -66 -91
-79 -112 -72 -117 5 -3 37 18 72 46 l63 51 -7 -59 c-4 -32 -9 -72 -12 -88 -11
-52 17 -24 45 46 14 37 29 69 32 72 3 3 19 -27 34 -66 47 -121 58 -120 40 2
-7 47 -12 86 -11 87 1 1 22 -14 46 -33 25 -20 58 -43 74 -51 l30 -16 -18 29
c-11 16 -35 49 -54 73 l-36 44 65 -7 c35 -4 76 -10 92 -13 55 -11 25 16 -55
48 l-81 33 29 13 c16 7 50 22 77 33 44 18 68 47 30 36 -10 -2 -49 -8 -87 -12
l-69 -7 58 72 c32 39 55 74 51 78 -3 3 -33 -15 -67 -41 -89 -70 -88 -70 -74
24 18 124 3 117 -50 -23 -10 -26 -21 -44 -25 -40 -4 4 -20 41 -35 81 -29 75
-51 96 -42 40z"/>
<path d="M3792 8618 c-7 -7 -12 -43 -12 -91 l0 -80 -49 64 c-53 71 -88 105
-97 97 -7 -8 36 -76 93 -149 48 -62 66 -110 57 -152 -6 -27 -6 -27 -54 35 -26
35 -60 74 -75 88 l-27 25 7 -25 c4 -14 38 -66 76 -117 76 -102 74 -91 71 -290
l-2 -132 -97 -3 -96 -3 -48 -80 c-26 -44 -53 -79 -59 -77 -17 4 -233 134 -252
151 -9 9 -38 69 -63 134 -26 64 -51 117 -55 117 -22 0 -18 -25 16 -110 20 -50
35 -93 32 -95 -2 -2 -22 7 -44 20 -38 22 -45 34 -89 145 -37 93 -52 120 -66
120 -18 0 -18 -1 0 -47 11 -27 28 -72 40 -101 12 -29 21 -55 21 -57 0 -3 -33
16 -74 40 -80 49 -91 52 -100 30 -5 -15 12 -28 102 -80 17 -11 32 -22 32 -26
0 -4 -37 -10 -82 -14 -87 -8 -118 -18 -118 -38 0 -7 -51 -38 -114 -70 l-113
-57 -57 26 c-31 14 -56 30 -56 35 0 5 -6 9 -12 9 -7 0 -35 12 -63 26 -47 23
-50 24 -53 6 -2 -10 6 -69 18 -132 23 -131 31 -110 -90 -227 -47 -45 -82 -84
-80 -87 3 -3 63 -13 132 -22 70 -9 130 -20 135 -23 4 -3 21 -33 37 -66 43 -91
78 -159 86 -168 3 -4 30 42 59 103 30 60 60 115 69 122 8 7 73 22 144 33 l129
20 -95 94 c-108 106 -110 110 -81 241 8 36 14 79 15 96 0 37 7 39 157 50 94 6
103 5 142 -17 47 -26 39 -39 -26 -39 -62 0 -144 -20 -137 -32 7 -11 135 -6
222 8 33 5 50 -2 175 -77 75 -45 137 -87 137 -92 0 -6 -18 -41 -40 -79 -22
-39 -40 -75 -40 -82 0 -6 20 -47 45 -90 25 -44 44 -80 42 -81 -25 -20 -278
-147 -292 -147 -11 0 -70 7 -132 17 -118 18 -137 18 -124 -3 4 -7 50 -19 101
-28 52 -8 96 -16 98 -18 1 -2 -12 -13 -31 -25 -41 -25 -73 -26 -187 -6 -47 8
-101 15 -120 15 -30 0 -32 -2 -20 -14 12 -12 159 -45 205 -46 16 -1 -25 -29
-87 -61 -53 -27 -68 -45 -52 -62 4 -3 42 12 87 34 44 22 77 35 74 27 -3 -7
-22 -50 -42 -96 -20 -46 -35 -86 -32 -89 13 -12 33 17 82 121 50 105 55 112
99 133 25 13 46 21 46 19 0 -2 -15 -37 -34 -77 -44 -96 -52 -123 -35 -117 8 2
39 54 69 117 l56 113 139 74 c77 40 145 74 151 74 6 0 32 -36 58 -80 l46 -80
95 0 95 0 0 -174 0 -175 -75 -99 c-41 -55 -75 -102 -75 -105 0 -2 6 -7 14 -10
8 -3 35 23 72 73 52 69 60 76 67 58 14 -40 -5 -90 -68 -172 -85 -112 -103
-146 -65 -126 11 6 44 42 72 80 29 38 53 68 54 67 2 -1 4 -37 5 -80 2 -65 5
-80 21 -88 24 -13 27 -4 30 98 l3 83 55 -72 c53 -69 100 -111 100 -90 0 6 -36
59 -80 118 -77 104 -80 110 -80 163 0 31 4 51 8 45 5 -5 35 -44 66 -86 66 -89
76 -98 76 -67 0 13 -33 65 -75 120 l-75 98 0 170 0 171 94 0 94 0 43 75 c23
41 46 75 50 75 10 0 258 -148 281 -167 15 -13 88 -180 88 -201 0 -8 -152 -33
-159 -26 -2 2 17 30 42 63 26 33 47 62 47 65 0 16 -30 1 -80 -39 -62 -51 -67
-47 -51 41 22 119 8 126 -33 19 -16 -42 -32 -78 -37 -80 -4 -3 -19 26 -34 65
-15 38 -31 72 -36 76 -11 6 -11 -53 0 -118 4 -27 7 -48 5 -48 -2 0 -33 23 -70
50 -36 28 -69 49 -72 46 -3 -3 18 -36 46 -73 29 -36 50 -68 49 -70 -2 -1 -30
2 -63 7 -127 21 -139 6 -30 -36 41 -15 73 -31 71 -34 -2 -4 -37 -19 -77 -35
-40 -15 -77 -32 -83 -36 -12 -12 35 -11 114 1 35 6 65 9 67 8 1 -2 -20 -32
-47 -68 -29 -36 -46 -66 -39 -68 6 -2 38 17 70 42 32 25 60 46 63 46 2 0 0
-26 -5 -57 -5 -32 -7 -71 -6 -88 4 -29 4 -29 26 20 12 28 28 64 36 80 l14 30
17 -40 c44 -104 56 -128 61 -122 4 3 1 43 -5 88 -7 44 -11 83 -8 85 2 2 30
-16 62 -41 89 -70 98 -61 29 27 -25 33 -44 61 -41 64 2 3 33 0 68 -6 132 -21
139 -10 22 35 -40 16 -73 31 -73 35 0 3 34 20 75 37 66 27 76 29 95 16 28 -20
26 -7 -15 99 -20 50 -34 93 -31 95 2 2 20 -6 40 -18 40 -23 55 -48 105 -176
18 -45 39 -84 47 -87 22 -8 17 16 -21 111 -19 48 -34 87 -32 89 1 1 35 -18 76
-42 41 -24 78 -41 83 -38 21 13 2 37 -62 75 -39 23 -72 45 -75 49 -3 4 34 11
82 15 95 8 133 18 133 36 0 9 -18 10 -62 5 -190 -21 -224 -20 -263 4 -46 28
-36 35 65 44 87 8 110 14 110 27 0 12 -89 11 -188 -2 l-81 -11 -138 83 c-76
45 -142 85 -146 89 -5 4 2 25 16 46 13 22 36 63 51 92 l27 53 -27 47 c-15 26
-34 57 -41 69 -14 20 -9 24 128 97 90 48 154 76 174 76 16 0 71 -7 120 -15 50
-8 101 -15 115 -15 22 0 23 2 9 15 -8 8 -55 22 -104 31 -50 8 -91 17 -93 19
-2 2 15 13 39 25 36 19 52 21 107 16 36 -4 72 -11 81 -16 18 -9 56 -204 46
-231 -3 -8 -41 -47 -85 -87 -121 -110 -121 -106 18 -126 64 -10 126 -21 137
-25 11 -5 42 -52 75 -116 30 -60 60 -110 65 -111 6 -2 34 49 64 111 30 63 62
117 70 119 14 4 232 36 246 36 19 0 -7 33 -87 109 l-92 89 17 109 c9 59 17
121 17 136 l0 29 -116 -62 -117 -62 -59 28 c-33 16 -72 40 -88 55 -21 21 -42
28 -91 34 -111 13 -113 17 -31 61 46 25 72 45 72 57 0 24 -11 22 -100 -23
l-80 -40 14 32 c8 18 28 63 45 100 36 79 39 98 10 72 -12 -10 -45 -68 -73
-129 -50 -104 -55 -111 -99 -132 l-46 -22 16 37 c8 20 26 58 39 84 13 26 24
60 24 75 l0 28 -18 -23 c-10 -13 -38 -67 -62 -120 -24 -53 -48 -102 -54 -108
-12 -13 -248 -140 -275 -149 -12 -4 -29 19 -69 90 l-54 95 -94 0 -94 0 0 161
0 162 73 96 c91 119 90 118 72 125 -10 4 -35 -21 -80 -81 l-65 -86 0 56 c0 54
2 59 76 156 46 61 74 107 72 118 -5 21 -22 3 -102 -101 l-46 -59 0 65 c0 71
-9 128 -19 128 -4 0 -12 -5 -19 -12z"/>
<path d="M4894 8481 c-47 -29 -66 -57 -71 -103 -5 -54 20 -98 71 -122 112 -53
222 73 156 178 -33 55 -107 77 -156 47z"/>
<path d="M2575 8472 c-57 -48 -71 -111 -35 -169 25 -41 53 -56 107 -55 71 2
123 54 123 124 0 30 -8 47 -36 78 -34 37 -40 40 -88 40 -33 -1 -58 -7 -71 -18z"/>
<path d="M3087 7605 c-58 -70 -57 -138 4 -190 55 -45 152 -27 184 35 35 69 8
147 -61 176 -56 24 -95 17 -127 -21z"/>
<path d="M4385 7633 c-63 -16 -106 -94 -86 -156 30 -90 148 -119 212 -51 34
36 38 120 8 158 -22 28 -76 57 -101 55 -7 -1 -22 -4 -33 -6z"/>
<path d="M5320 7118 c-13 -35 -32 -81 -43 -103 l-20 -40 -17 50 c-10 28 -28
73 -41 100 -22 49 -23 49 -27 20 -2 -16 1 -63 8 -103 6 -41 10 -75 8 -77 -2
-2 -38 23 -81 56 -42 34 -82 59 -88 57 -6 -2 17 -39 51 -83 69 -91 68 -92 -40
-76 -132 21 -136 7 -10 -44 49 -21 87 -41 85 -45 -3 -4 -50 -25 -106 -46 -99
-37 -103 -40 -150 -103 l-49 -64 0 77 c0 69 -2 76 -20 76 -18 0 -20 -7 -21
-72 l0 -73 -22 30 c-39 53 -95 110 -101 104 -6 -6 19 -47 93 -150 26 -36 32
-54 29 -84 l-3 -38 -40 53 c-39 51 -85 92 -85 74 0 -5 29 -48 65 -97 l65 -87
0 -106 0 -106 -47 34 c-27 19 -101 74 -166 121 -65 48 -123 87 -128 87 -6 0
-8 -15 -5 -32 12 -72 38 -347 35 -357 -3 -7 -38 9 -83 37 l-78 48 -35 90 c-18
49 -43 98 -53 109 -28 28 -26 6 10 -84 16 -41 27 -77 25 -79 -2 -3 -20 7 -38
21 -25 19 -42 47 -67 111 -18 47 -41 93 -52 103 -19 17 -19 17 -12 -12 3 -17
17 -56 30 -87 13 -32 24 -60 24 -63 0 -4 -24 7 -54 24 -51 30 -96 40 -96 23 0
-4 28 -26 62 -47 l62 -40 -44 -7 c-25 -3 -62 -7 -82 -7 -30 -1 -38 -5 -38 -19
0 -16 6 -17 58 -11 99 13 161 10 195 -8 l32 -17 -30 -7 c-16 -4 -48 -7 -71 -8
-22 0 -49 -8 -60 -17 -17 -14 -9 -15 98 -9 l118 6 86 -51 c47 -29 82 -56 77
-60 -4 -4 -78 -37 -163 -75 -85 -37 -171 -75 -190 -85 l-35 -18 35 -16 c169
-72 320 -143 322 -150 2 -5 -30 -27 -70 -49 l-72 -39 -99 17 c-55 9 -110 15
-123 13 -23 -3 -23 -3 -2 -15 12 -7 52 -17 90 -23 38 -6 71 -13 73 -16 7 -7
-18 -23 -48 -31 -22 -5 -188 11 -233 24 -29 7 -20 -14 10 -25 15 -6 50 -14 77
-18 80 -11 82 -17 17 -52 -59 -32 -87 -62 -56 -62 8 0 41 14 74 30 l60 30 -10
-25 c-5 -14 -17 -40 -26 -58 -10 -17 -21 -47 -25 -65 -13 -58 20 -17 67 85 33
72 49 95 74 108 18 9 33 15 35 13 2 -2 -12 -38 -31 -81 -39 -90 -40 -91 -17
-78 10 5 38 51 63 103 l45 93 92 48 93 48 -5 -28 c-2 -15 -11 -98 -20 -183 -8
-85 -17 -172 -19 -192 -5 -47 -14 -51 179 91 83 61 153 111 158 111 4 0 7 -42
7 -94 0 -91 -1 -95 -35 -142 -61 -85 -95 -138 -95 -148 0 -12 73 62 107 109
l22 30 0 -45 c0 -40 -7 -54 -64 -130 -65 -86 -73 -100 -55 -100 14 0 39 27 80
84 l35 48 3 -76 c2 -42 6 -76 10 -76 21 0 32 30 33 89 l0 66 27 -34 c111 -140
141 -136 37 5 -57 78 -65 94 -65 133 l0 45 44 -59 c49 -68 86 -105 86 -86 0
19 -17 47 -76 123 l-54 70 0 94 c0 52 3 94 8 93 4 0 79 -53 167 -118 l160
-118 3 31 c1 17 -6 109 -16 204 -10 94 -15 172 -11 172 13 0 128 -70 153 -93
13 -12 38 -58 55 -102 18 -44 39 -89 48 -100 14 -19 15 -18 8 20 -3 22 -15 60
-26 84 -26 59 -24 64 12 45 30 -15 63 -74 100 -176 7 -21 19 -38 26 -38 18 0
17 11 -13 85 -15 36 -25 68 -22 70 2 2 29 -11 60 -30 47 -28 59 -31 68 -20 9
11 0 21 -49 52 -34 21 -61 41 -61 44 0 3 32 9 71 13 39 3 81 12 92 19 21 11
21 12 -8 15 -16 2 -72 -1 -123 -8 -89 -11 -94 -11 -129 11 l-37 23 93 13 c52
7 96 15 99 18 14 13 -40 17 -131 8 l-102 -10 -88 51 -87 50 27 15 c16 8 91 42
168 76 77 34 153 68 169 77 l29 15 -181 79 c-100 43 -180 83 -179 89 2 5 39
28 83 51 l80 42 75 -14 c41 -7 92 -13 114 -13 36 0 38 1 22 13 -10 8 -39 17
-65 21 -26 3 -58 9 -71 12 -23 6 -23 6 9 26 29 19 37 19 113 8 120 -17 147
-19 147 -11 0 12 -46 28 -103 35 -32 4 -57 10 -57 14 0 3 25 19 55 36 35 19
55 36 55 47 0 23 1 24 -79 -17 l-69 -34 34 78 c38 89 43 111 18 90 -9 -7 -35
-54 -59 -105 -34 -73 -50 -96 -75 -109 -17 -9 -34 -15 -36 -13 -2 2 8 28 22
58 68 145 41 148 -31 5 l-50 -100 -89 -47 c-49 -26 -91 -47 -92 -45 -2 1 7 96
19 209 11 114 18 210 15 213 -6 6 -80 -45 -265 -182 l-73 -54 0 105 0 104 41
52 c51 65 89 120 89 131 0 21 -36 -9 -81 -69 l-49 -65 0 44 c0 38 8 54 61 124
33 44 68 83 77 86 27 10 183 31 189 26 3 -3 -23 -40 -56 -82 -60 -76 -72 -112
-26 -78 13 10 51 40 84 66 34 27 61 42 61 35 0 -7 -7 -56 -15 -108 -21 -138
-9 -136 47 7 18 46 36 83 39 83 4 0 21 -37 39 -82 54 -137 67 -134 46 8 -8 54
-14 100 -12 101 1 1 33 -23 71 -53 72 -57 104 -78 110 -72 2 2 -20 34 -48 72
-92 123 -87 110 -42 103 90 -15 178 -20 172 -10 -4 6 -44 25 -89 43 -46 18
-87 36 -91 40 -5 4 35 24 87 44 152 59 142 65 -63 40 l-54 -7 63 81 c35 45 60
85 57 88 -8 8 -48 -17 -115 -74 -29 -25 -54 -43 -57 -41 -2 3 2 45 10 94 8 50
15 98 15 108 0 35 -18 15 -40 -45z"/>
<path d="M2243 7113 c4 -32 10 -80 13 -107 l7 -49 -79 61 c-117 91 -125 83
-33 -34 l62 -77 -59 6 c-33 4 -80 9 -106 13 -76 11 -58 -10 45 -51 50 -20 93
-38 95 -40 2 -1 -39 -19 -90 -40 -51 -20 -97 -41 -103 -47 -10 -11 60 -7 169
8 l50 7 -50 -62 c-27 -34 -57 -73 -67 -86 -34 -45 0 -33 77 27 42 33 80 58 83
54 3 -3 0 -39 -6 -81 -23 -156 -12 -160 44 -17 21 51 39 92 40 90 2 -2 20 -45
40 -96 55 -137 67 -132 43 20 -6 43 -9 81 -5 84 3 4 28 -11 54 -33 67 -55 113
-86 119 -80 3 3 -25 44 -62 92 l-66 88 38 -7 c22 -3 73 -9 114 -12 94 -8 87 2
-38 51 -51 21 -92 39 -90 40 2 2 45 20 96 40 113 46 127 61 46 51 -32 -3 -83
-9 -113 -13 l-54 -6 62 77 c33 43 61 82 61 87 0 15 -17 10 -47 -14 -15 -13
-50 -41 -77 -63 l-49 -39 6 55 c4 30 10 79 13 108 10 80 -9 64 -51 -43 -20
-52 -38 -95 -40 -95 -2 0 -20 43 -41 95 -20 52 -42 95 -47 95 -6 0 -7 -23 -4
-57z"/>
<path d="M3316 7033 c7 -48 11 -89 9 -91 -2 -2 -32 19 -67 47 -95 78 -105 68
-27 -27 28 -35 49 -65 47 -67 -2 -2 -43 2 -91 9 -55 8 -86 9 -84 3 1 -5 38
-23 80 -40 42 -17 77 -33 77 -36 0 -4 -34 -19 -75 -35 -116 -44 -108 -57 24
-36 35 6 65 9 67 7 2 -2 -16 -30 -41 -62 -70 -89 -61 -99 28 -29 32 25 61 44
63 41 2 -2 0 -28 -6 -57 -12 -65 -13 -127 -1 -114 4 5 21 42 36 82 16 39 31
72 34 72 4 0 19 -34 35 -75 42 -110 56 -101 36 24 -6 35 -9 66 -6 68 3 3 33
-18 68 -46 95 -78 105 -68 27 27 -28 35 -49 66 -46 68 3 3 31 1 63 -5 70 -13
117 -14 110 -2 -3 4 -39 21 -81 37 -41 16 -75 31 -75 35 0 3 34 19 75 35 109
42 97 55 -29 34 -33 -5 -62 -8 -64 -5 -2 2 17 31 43 64 26 33 45 65 44 70 -2
6 -33 -12 -68 -39 -36 -27 -66 -48 -68 -46 -2 2 1 32 7 67 5 35 10 72 10 82 0
37 -19 14 -45 -53 -15 -38 -30 -72 -35 -75 -4 -2 -20 30 -36 72 -41 107 -54
105 -38 -4z"/>
<path d="M2720 6753 c0 -10 27 -54 60 -98 52 -69 60 -86 60 -124 l0 -45 -40
55 c-41 54 -66 79 -82 79 -13 0 5 -29 67 -110 l55 -73 0 -104 c0 -57 -3 -103
-6 -103 -4 0 -78 52 -166 116 -87 64 -162 114 -165 110 -3 -3 3 -92 14 -198
11 -106 19 -195 17 -196 -1 -2 -38 17 -81 43 l-79 47 -33 87 c-36 94 -56 131
-70 131 -12 0 4 -59 34 -127 13 -29 21 -53 17 -53 -4 0 -21 9 -38 19 -25 15
-39 39 -69 115 -21 53 -47 104 -57 113 -19 17 -19 16 -12 -12 4 -17 20 -60 35
-97 15 -38 25 -68 22 -68 -3 0 -28 14 -55 30 -45 28 -98 40 -98 22 0 -4 28
-25 63 -46 34 -22 58 -41 52 -43 -5 -1 -41 -6 -80 -10 -52 -6 -70 -12 -70 -23
0 -8 6 -14 13 -12 7 1 59 5 115 8 93 6 104 5 127 -13 l24 -21 -54 -6 c-93 -12
-110 -17 -110 -33 0 -11 7 -14 23 -10 12 3 63 9 112 12 l90 7 78 -48 c43 -27
78 -53 77 -59 0 -5 -85 -47 -187 -93 -103 -45 -188 -84 -190 -86 -2 -2 80 -40
182 -86 102 -45 185 -84 185 -86 0 -2 -36 -22 -80 -44 l-81 -41 -87 16 c-48 8
-100 15 -116 15 -56 0 -10 -24 77 -40 l82 -16 -34 -18 c-36 -19 -41 -19 -208
2 -62 8 -80 2 -45 -16 9 -6 42 -13 72 -17 89 -12 91 -19 21 -55 -46 -23 -61
-35 -57 -46 3 -9 6 -18 6 -21 0 -2 29 12 65 32 36 20 65 35 65 33 0 -2 -16
-39 -35 -83 -19 -43 -32 -81 -30 -84 11 -10 39 29 76 108 29 64 48 91 71 104
17 10 32 16 35 14 2 -2 -10 -36 -27 -75 -35 -82 -38 -101 -14 -81 10 8 36 54
59 104 l42 90 92 48 c50 27 91 45 91 40 0 -4 -9 -93 -21 -196 -11 -103 -19
-198 -17 -211 3 -21 17 -13 165 95 90 66 165 119 168 119 3 0 5 -44 5 -98 l0
-98 -65 -88 c-36 -48 -65 -92 -65 -97 0 -20 38 12 79 66 23 30 44 55 46 55 3
0 5 -17 5 -38 0 -31 -11 -53 -61 -120 -79 -106 -78 -148 1 -47 l55 69 5 -69
c4 -53 9 -70 20 -70 12 0 16 18 20 78 l5 78 53 -71 c50 -67 72 -85 72 -57 0 6
-27 48 -60 92 -64 85 -74 106 -68 151 3 27 4 26 47 -31 23 -33 54 -68 67 -78
24 -18 24 -18 14 7 -5 13 -36 61 -69 106 l-61 82 0 89 c0 49 3 89 8 89 4 0 81
-54 171 -120 91 -66 166 -118 168 -116 2 1 -6 92 -18 200 -12 108 -19 199 -16
203 3 3 42 -16 86 -41 l79 -47 42 -100 c23 -54 46 -102 51 -105 17 -10 9 41
-16 101 -29 69 -28 65 -16 65 30 0 71 -57 106 -145 21 -52 42 -95 46 -95 16 0
9 39 -16 102 -14 34 -23 63 -21 65 1 2 29 -12 61 -32 44 -26 61 -32 67 -22 13
20 11 22 -52 57 -33 19 -60 37 -60 41 0 3 36 10 79 13 43 4 87 14 97 21 17 13
15 14 -26 14 -25 0 -79 -4 -120 -10 -63 -8 -81 -7 -112 7 -21 10 -38 20 -38
25 0 4 34 10 75 14 41 4 82 13 92 21 16 12 12 13 -32 13 -27 0 -81 -4 -120 -9
l-70 -9 -83 51 c-46 28 -80 54 -75 58 4 5 87 43 183 85 96 43 179 81 183 85 7
6 -34 26 -293 142 -73 33 -76 28 40 87 l75 38 75 -13 c41 -7 90 -13 109 -13
56 -2 19 27 -47 35 -92 11 -101 17 -54 38 37 17 45 17 136 2 58 -9 106 -12
119 -7 20 8 18 10 -18 19 -22 6 -64 14 -92 18 -29 4 -53 10 -53 13 0 4 25 19
55 34 39 19 55 32 55 47 0 26 -3 26 -77 -15 -35 -19 -63 -31 -63 -26 0 5 13
37 29 72 16 35 32 75 36 89 7 24 7 25 -12 7 -11 -10 -39 -60 -63 -111 -35 -78
-47 -96 -76 -110 -19 -9 -37 -16 -39 -16 -2 0 11 32 30 72 35 73 45 115 24
102 -7 -4 -33 -52 -60 -108 l-47 -101 -93 -49 -92 -49 6 79 c4 43 14 142 22
218 8 77 14 140 13 142 -2 1 -79 -53 -173 -121 l-170 -124 -3 96 -3 97 38 53
c83 116 103 146 103 157 0 12 -67 -56 -112 -114 l-27 -35 -1 42 c0 36 9 53 65
128 72 97 89 146 27 80 -20 -22 -49 -56 -64 -75 l-27 -35 -1 78 c0 69 -2 78
-17 75 -15 -3 -19 -16 -21 -71 l-3 -69 -49 65 c-56 74 -70 86 -70 60z"/>
<path d="M1843 6640 c-74 -45 -83 -139 -17 -199 33 -31 40 -33 86 -29 130 13
161 184 43 234 -46 19 -74 18 -112 -6z"/>
<path d="M5609 6646 c-80 -46 -86 -161 -11 -215 56 -40 146 -20 177 39 42 82
-6 175 -95 185 -30 4 -54 0 -71 -9z"/>
<path d="M1663 6118 c3 -18 12 -68 18 -111 l13 -78 -79 -79 c-54 -54 -74 -81
-64 -84 8 -3 52 -10 99 -16 46 -7 92 -16 101 -20 9 -5 36 -50 59 -100 24 -49
46 -90 50 -90 3 0 26 41 50 91 25 50 52 95 61 99 8 5 56 14 105 20 49 7 92 15
97 19 4 4 -27 40 -68 80 -47 47 -75 81 -75 95 0 11 7 59 14 106 8 47 12 87 10
90 -3 2 -48 -17 -100 -43 l-96 -48 -100 52 -101 51 6 -34z"/>
<path d="M5585 6082 c4 -20 11 -59 16 -85 14 -74 13 -77 -56 -143 -59 -57 -77
-83 -57 -84 23 -1 159 -21 173 -25 9 -3 33 -44 54 -90 21 -47 42 -85 46 -85 5
0 27 38 49 85 23 46 49 86 58 89 9 3 54 10 100 17 45 6 82 15 82 19 0 4 -30
35 -66 70 l-67 62 7 62 c3 33 9 81 12 105 l7 43 -90 -46 c-100 -51 -100 -51
-122 -33 -9 8 -47 28 -84 45 l-68 31 6 -37z"/>
<path d="M1535 5493 c13 -71 25 -160 25 -181 0 -20 -8 -16 -76 38 -115 91
-125 81 -34 -34 69 -87 74 -84 -78 -62 -57 8 -91 9 -89 3 1 -5 48 -27 102 -49
55 -22 101 -41 103 -43 1 -1 -41 -20 -94 -41 -139 -56 -127 -69 39 -43 38 6
70 9 72 8 2 -2 -26 -40 -61 -84 -100 -124 -84 -129 54 -17 30 24 56 41 59 38
5 -5 -14 -164 -24 -200 -3 -12 -1 -17 8 -14 7 2 29 46 49 96 21 51 40 96 43
99 4 3 11 -7 17 -22 37 -97 73 -174 79 -170 5 2 2 50 -6 106 -8 56 -12 104 -9
106 3 3 27 -12 53 -34 56 -46 108 -83 117 -83 11 0 -15 43 -67 108 -27 35 -47
65 -45 67 3 3 49 -1 104 -9 153 -22 144 -10 -50 69 -22 8 -37 17 -34 20 3 3
47 22 98 43 52 21 95 43 97 48 2 7 -32 6 -102 -4 -59 -7 -109 -12 -111 -9 -3
3 24 43 60 89 37 45 61 85 55 87 -10 3 -31 -12 -138 -98 l-44 -36 7 55 c19
131 22 171 15 175 -4 3 -26 -43 -49 -100 -23 -58 -44 -104 -46 -102 -3 2 -22
48 -43 103 -37 96 -66 136 -56 77z"/>
<path d="M6004 5420 c-21 -55 -42 -100 -46 -100 -3 0 -23 43 -44 95 -54 137
-64 130 -40 -30 8 -49 13 -91 11 -93 -1 -1 -37 25 -81 58 -115 88 -121 83 -34
-29 33 -43 60 -80 60 -82 0 -3 -50 2 -110 11 -61 10 -113 14 -115 10 -5 -8 47
-32 148 -70 32 -12 56 -25 52 -28 -4 -4 -46 -23 -95 -42 -48 -19 -87 -39 -86
-44 1 -12 63 -9 132 6 28 6 57 9 63 7 8 -3 -12 -36 -48 -83 -54 -69 -70 -96
-57 -96 2 0 38 27 81 60 80 62 102 72 91 43 -4 -9 -9 -53 -12 -98 l-5 -80 25
40 c14 22 33 61 42 88 8 26 19 47 22 47 4 0 25 -45 46 -100 21 -55 43 -100 47
-100 12 0 11 8 -6 120 -8 52 -12 96 -10 99 3 2 41 -24 85 -58 44 -35 85 -61
90 -59 5 2 -20 40 -56 86 -37 46 -64 85 -61 88 3 3 49 -1 103 -10 55 -9 102
-12 107 -7 5 5 -26 23 -70 40 -144 58 -135 50 -78 77 28 12 56 23 63 23 19 1
92 40 92 50 0 7 -47 2 -167 -17 -29 -5 -53 -6 -53 -2 0 4 27 42 61 84 33 42
59 81 57 87 -2 6 -41 -19 -87 -55 -47 -36 -86 -65 -87 -63 -2 2 3 45 11 97 8
52 15 103 15 113 0 40 -19 11 -56 -83z"/>
<path d="M3683 5140 c-17 -36 -36 -82 -44 -102 -7 -21 -15 -38 -19 -38 -3 0
-20 39 -39 88 -34 88 -46 110 -56 100 -5 -5 8 -121 21 -180 3 -16 2 -28 -3
-28 -4 0 -42 27 -83 60 -114 92 -122 80 -25 -40 35 -44 61 -80 57 -80 -4 0
-52 7 -107 15 -120 17 -115 17 -115 6 0 -5 42 -25 93 -46 50 -20 96 -40 100
-44 4 -5 -30 -22 -76 -40 -46 -17 -92 -38 -103 -46 -18 -14 -17 -14 13 -15 17
0 67 7 110 15 43 8 82 15 86 15 4 0 -21 -38 -57 -84 -94 -120 -88 -127 29 -36
43 33 79 59 81 57 2 -1 -3 -45 -11 -97 -17 -113 -18 -120 -6 -120 5 0 26 43
47 95 20 52 41 95 45 95 4 0 24 -43 44 -95 56 -144 66 -137 41 30 -8 50 -13
91 -11 93 1 1 41 -28 89 -64 48 -37 89 -64 92 -62 2 3 -26 44 -62 92 -37 48
-65 88 -63 90 2 2 38 -2 79 -10 85 -15 140 -18 140 -6 0 4 -45 25 -100 46 -55
21 -97 42 -95 47 3 4 31 17 63 29 89 32 132 52 132 62 0 11 -10 10 -119 -7
-52 -9 -96 -14 -98 -11 -2 2 23 39 56 82 34 44 56 81 50 83 -5 1 -44 -23 -85
-54 -41 -32 -76 -56 -78 -54 -2 2 3 47 10 99 8 52 13 101 11 110 -2 8 -18 -14
-34 -50z"/>
<path d="M4154 5109 c4 -24 9 -58 12 -76 5 -29 0 -39 -50 -91 -31 -32 -56 -62
-56 -65 0 -4 19 -7 43 -8 103 -1 113 -7 153 -89 l36 -75 37 75 37 75 72 11
c40 6 75 14 79 18 4 3 -17 31 -47 61 l-53 54 7 75 c4 42 4 76 2 76 -3 0 -35
-14 -70 -32 -56 -28 -68 -30 -88 -19 -13 6 -34 18 -48 25 -14 8 -36 17 -49 21
-23 7 -24 6 -17 -36z"/>
<path d="M2480 4970 c0 -38 -3 -70 -7 -70 -5 0 -21 21 -38 46 -29 44 -81 91
-91 81 -3 -2 23 -41 56 -86 65 -88 80 -117 80 -157 0 -36 -11 -30 -54 31 -49
69 -76 95 -76 74 0 -16 37 -75 92 -147 32 -43 32 -44 36 -178 l4 -134 -85 0
-85 0 -36 -65 c-20 -35 -40 -66 -44 -69 -6 -4 -186 98 -216 123 -7 6 -29 52
-49 103 -20 51 -46 99 -56 105 -18 11 -19 10 -11 -15 4 -15 19 -55 33 -89 14
-35 23 -63 19 -63 -4 0 -21 8 -37 18 -24 15 -39 40 -68 115 -34 86 -60 127
-71 116 -3 -2 10 -44 28 -92 18 -48 32 -87 30 -87 -2 0 -32 16 -67 35 -72 39
-77 41 -77 20 0 -8 28 -32 61 -54 l62 -39 -74 -7 c-41 -4 -83 -14 -94 -22 -18
-13 -6 -14 105 -8 113 5 128 4 153 -13 l28 -19 -38 -6 c-21 -4 -50 -7 -65 -7
-30 0 -78 -19 -78 -31 0 -4 12 -6 28 -4 131 15 208 14 239 -2 30 -17 185 -112
191 -118 2 -1 -13 -30 -33 -63 -19 -33 -35 -66 -35 -73 0 -7 16 -41 36 -77 29
-52 34 -66 23 -73 -8 -5 -62 -34 -121 -64 l-108 -56 -95 16 c-121 19 -141 20
-126 1 6 -7 48 -19 93 -26 l81 -13 -24 -19 c-25 -20 -55 -20 -226 0 -35 4 -63
5 -63 1 0 -10 49 -27 95 -34 106 -16 105 -13 24 -58 -65 -36 -71 -41 -53 -49
16 -7 34 -3 74 17 28 14 54 24 56 22 3 -2 -9 -33 -26 -68 -16 -35 -30 -70 -30
-78 0 -30 34 16 71 96 28 61 46 88 71 103 18 11 36 20 40 20 4 0 -6 -28 -22
-62 -15 -35 -31 -76 -34 -93 l-7 -30 20 25 c11 14 37 62 57 108 l37 82 126 67
c69 36 126 62 128 57 2 -5 19 -34 37 -64 l32 -55 85 -5 84 -5 3 -85 c2 -47 1
-113 -3 -148 -6 -56 -13 -71 -67 -143 -42 -58 -57 -84 -49 -92 6 -6 12 -9 14
-6 2 2 25 32 51 67 26 34 50 62 53 62 3 0 3 -20 0 -45 -5 -33 -21 -64 -61
-118 -29 -39 -59 -83 -66 -96 l-12 -24 31 22 c17 12 45 42 61 67 17 24 36 44
41 44 7 0 9 -24 7 -65 -2 -54 0 -65 15 -69 15 -4 17 5 18 77 l0 82 22 -30 c12
-16 41 -50 64 -75 66 -70 52 -25 -22 75 -54 72 -65 93 -65 126 0 21 2 39 4 39
2 0 29 -34 60 -75 31 -41 61 -75 66 -75 17 0 -7 47 -70 130 l-61 82 3 137 c2
100 6 136 16 137 6 1 43 2 80 3 l68 1 34 60 c19 33 36 60 39 60 3 -1 60 -33
126 -73 l120 -73 32 -84 c19 -47 42 -94 53 -105 28 -27 25 -6 -10 80 -15 39
-26 72 -25 73 2 2 17 -4 34 -14 24 -14 40 -40 72 -115 22 -54 47 -100 55 -103
17 -7 11 23 -22 104 -12 30 -21 56 -19 58 1 2 24 -11 51 -27 47 -31 84 -40 84
-22 0 12 -36 40 -83 66 -20 11 -37 22 -37 26 0 3 35 9 77 13 52 4 83 12 93 22
14 15 9 16 -60 10 -41 -3 -95 -8 -120 -11 -36 -5 -52 -2 -80 17 l-35 22 83 11
c45 6 88 17 95 24 10 11 -7 12 -93 5 -58 -4 -114 -7 -125 -7 -17 0 -211 109
-238 133 -5 4 10 41 32 82 l41 75 -30 56 c-16 31 -30 59 -30 61 0 3 53 33 117
67 l117 62 105 -13 c58 -7 113 -15 121 -18 11 -4 11 0 -3 15 -12 14 -36 23
-74 28 -31 4 -65 10 -76 14 -16 6 -13 10 21 25 35 16 49 17 105 7 35 -6 86
-11 113 -10 l49 1 -30 13 c-16 7 -56 16 -87 20 -32 4 -55 11 -52 16 3 5 27 20
53 34 41 20 61 40 61 60 0 8 -76 -23 -114 -46 -27 -16 -38 -19 -34 -9 4 8 21
48 38 88 17 41 29 76 26 79 -12 12 -34 -20 -75 -110 -37 -81 -48 -97 -83 -117
-23 -13 -39 -19 -36 -14 20 33 60 132 64 158 5 30 5 30 -11 11 -10 -11 -36
-61 -60 -111 l-42 -90 -119 -62 c-85 -44 -120 -58 -126 -49 -4 6 -24 41 -45
77 l-38 65 -83 3 -82 3 0 128 0 127 59 80 c33 44 65 93 71 109 10 28 7 26 -32
-16 -24 -25 -55 -61 -70 -80 l-27 -34 0 40 c-1 35 9 54 64 129 36 48 65 92 65
98 0 21 -27 -1 -75 -61 l-50 -62 -3 75 c-2 59 -6 76 -17 76 -12 0 -15 -15 -15
-70z"/>
<path d="M5189 4968 l0 -73 -32 40 c-48 59 -84 95 -96 95 -14 0 4 -29 76 -126
41 -55 53 -79 53 -107 0 -21 -3 -37 -7 -37 -5 0 -23 22 -41 49 -18 26 -43 58
-57 71 -38 36 -32 2 10 -56 103 -146 95 -123 95 -266 l0 -128 -83 0 -83 0 -39
-67 c-21 -38 -40 -70 -41 -71 -3 -4 -192 106 -215 125 -9 7 -33 56 -53 108
-21 53 -46 100 -56 105 -17 9 -18 7 -11 -18 5 -15 20 -55 34 -89 14 -35 23
-63 19 -63 -4 0 -21 8 -37 18 -24 15 -39 40 -68 115 -38 95 -67 140 -67 101 1
-11 14 -52 29 -91 16 -40 26 -73 24 -73 -3 0 -27 13 -52 29 -54 32 -91 46 -91
34 0 -16 25 -41 70 -69 l45 -28 -70 -11 c-38 -6 -79 -17 -90 -23 -16 -11 3
-12 105 -7 112 5 128 4 153 -13 l28 -19 -32 -7 c-17 -3 -46 -6 -65 -6 -33 0
-84 -18 -84 -29 0 -4 51 -2 113 2 101 8 118 7 150 -10 31 -16 186 -110 196
-119 2 -1 -13 -30 -33 -62 -20 -33 -36 -65 -36 -72 0 -7 16 -42 36 -77 20 -36
34 -66 32 -68 -2 -2 -55 -31 -118 -65 l-115 -61 -91 16 c-112 18 -137 19 -132
3 3 -7 42 -20 89 -28 l84 -16 -28 -18 c-29 -20 -36 -20 -224 2 -110 13 -61
-19 56 -37 35 -6 65 -12 67 -13 1 -2 -26 -19 -62 -38 -35 -19 -64 -38 -64 -42
0 -20 32 -17 80 7 29 14 54 24 56 22 3 -2 -9 -33 -26 -68 -33 -70 -37 -91 -16
-83 7 3 32 46 55 95 31 67 49 94 73 109 18 11 36 20 40 20 4 0 -6 -28 -22 -62
-31 -65 -39 -105 -19 -92 7 4 29 44 50 88 21 45 46 89 56 98 22 19 233 132
238 127 1 -2 19 -32 39 -66 l36 -62 83 -3 82 -3 0 -145 0 -145 -64 -83 c-46
-61 -60 -87 -52 -95 6 -6 12 -9 14 -6 77 99 101 129 103 129 2 0 4 -17 4 -38
0 -31 -12 -54 -65 -126 -68 -92 -88 -141 -39 -95 14 13 42 46 62 74 l37 50 5
-74 c3 -47 10 -76 18 -79 9 -3 12 16 12 72 0 42 4 76 8 76 5 0 28 -27 52 -59
23 -33 49 -62 58 -66 33 -12 28 -4 -81 149 -31 43 -38 60 -35 91 l3 38 59 -76
c32 -43 62 -77 67 -77 17 0 -12 54 -72 132 l-60 80 3 136 3 137 82 3 82 3 33
59 c18 33 35 60 38 60 3 -1 59 -33 125 -73 l119 -73 34 -84 c18 -47 42 -94 53
-105 27 -28 24 -5 -10 80 -16 39 -27 72 -26 73 2 2 17 -4 34 -14 24 -14 40
-40 72 -115 22 -54 47 -100 55 -103 20 -8 17 9 -16 89 -15 39 -27 71 -25 73 1
2 24 -11 51 -27 47 -31 84 -40 84 -22 0 12 -36 40 -83 66 -20 11 -37 22 -37
26 0 3 34 9 76 12 45 4 84 13 97 23 21 15 17 16 -61 10 -46 -4 -102 -9 -125
-12 -33 -4 -50 0 -77 18 l-35 22 80 11 c44 6 89 17 100 24 16 10 1 11 -85 5
-58 -4 -116 -7 -130 -7 -20 0 -211 105 -244 134 -5 4 10 39 34 79 l42 72 -31
60 c-17 32 -29 62 -27 66 3 4 56 34 119 67 l114 59 111 -15 c62 -8 112 -12
112 -8 0 15 -28 27 -80 34 -80 10 -91 19 -50 40 31 16 39 16 147 0 62 -10 116
-15 119 -12 11 10 -38 29 -109 41 l-72 12 32 20 c17 10 46 27 62 36 17 9 31
24 31 32 0 13 -5 13 -37 2 -21 -8 -55 -24 -75 -36 -21 -12 -38 -20 -38 -17 0
2 13 33 29 68 41 93 46 110 26 103 -9 -4 -37 -50 -61 -104 -39 -82 -51 -101
-84 -119 l-39 -22 31 68 c34 74 50 123 41 123 -12 0 -35 -38 -76 -125 l-43
-90 -119 -63 c-90 -49 -120 -60 -126 -50 -5 7 -25 43 -46 80 l-38 68 -82 0
-83 0 0 129 0 129 56 73 c31 40 63 89 71 108 l14 36 -38 -40 c-21 -23 -52 -59
-70 -80 l-32 -40 0 37 c-1 28 10 52 44 100 25 35 57 80 71 101 15 20 24 41 20
45 -7 7 -40 -26 -103 -104 l-32 -39 0 78 c-1 61 -4 77 -16 77 -12 0 -15 -15
-16 -72z"/>
<path d="M1164 4804 c4 -32 9 -67 12 -79 3 -14 -11 -36 -51 -78 -31 -33 -55
-61 -53 -63 3 -2 38 -9 80 -15 l75 -11 33 -69 c19 -38 37 -69 40 -69 4 0 19
27 35 60 16 34 34 65 40 70 6 5 42 14 80 20 38 6 72 13 74 16 3 2 -20 30 -51
62 l-56 57 13 78 c6 42 10 77 8 77 -2 0 -34 -16 -72 -36 l-68 -36 -73 37 -73
37 7 -58z"/>
<path d="M6160 4843 c0 -9 5 -45 11 -79 l11 -63 -58 -58 -59 -58 81 -14 81
-14 34 -68 c18 -38 36 -69 39 -69 3 0 21 31 40 69 l33 69 75 11 c42 6 78 14
81 16 3 3 -20 31 -51 63 l-56 57 13 78 c6 42 10 77 8 77 -2 0 -35 -16 -73 -35
l-70 -35 -70 35 c-58 29 -70 32 -70 18z"/>
<path d="M3789 4593 c-3 -22 4 -90 21 -202 11 -69 18 -126 16 -128 -2 -2 -52
35 -112 83 -195 155 -203 152 -65 -23 66 -84 96 -129 87 -131 -8 -2 -79 6
-157 18 -85 12 -146 17 -151 12 -6 -6 48 -32 134 -66 79 -32 147 -61 151 -65
5 -5 -56 -34 -135 -65 -135 -54 -168 -71 -157 -79 2 -2 76 6 164 19 88 12 162
21 164 19 2 -2 -40 -58 -93 -125 -138 -175 -133 -181 39 -45 66 52 124 95 128
95 5 0 6 -12 3 -27 -12 -55 -44 -298 -40 -302 9 -10 23 19 78 159 32 80 59
146 61 148 1 2 31 -67 65 -153 34 -85 66 -155 71 -155 11 0 12 -12 -15 173
-12 86 -20 157 -17 157 3 0 26 -16 51 -36 266 -213 277 -213 104 3 -47 58 -83
107 -82 109 2 2 76 -7 163 -20 218 -32 220 -25 20 54 -190 74 -175 66 -140 79
170 65 285 115 278 122 -8 8 -259 -23 -305 -37 -30 -9 -21 7 48 91 172 210
162 226 -39 62 -54 -44 -99 -78 -101 -76 -1 2 7 74 20 159 12 85 19 159 14
163 -7 8 -41 -67 -105 -231 -15 -39 -29 -71 -30 -70 -2 2 -30 74 -65 161 -57
146 -68 169 -71 150z"/>
<path d="M984 4426 c-30 -30 -34 -40 -34 -84 0 -39 6 -57 25 -81 34 -40 84
-56 129 -41 94 31 119 147 46 213 -25 22 -40 27 -81 27 -45 0 -55 -4 -85 -34z"/>
<path d="M6445 4427 c-68 -68 -52 -162 34 -200 41 -18 49 -19 85 -6 73 25 107
110 71 179 -19 38 -63 60 -116 60 -33 0 -47 -6 -74 -33z"/>
<path d="M1533 4299 c23 -123 24 -114 -32 -174 -28 -29 -51 -58 -51 -63 0 -6
31 -13 68 -17 38 -4 73 -10 78 -13 6 -4 25 -38 43 -75 l34 -68 23 38 c13 21
28 52 34 70 12 34 22 38 113 49 31 4 57 11 57 16 0 5 -23 34 -52 64 l-52 55
12 71 c7 39 10 73 8 76 -3 2 -33 -10 -67 -27 -69 -35 -85 -37 -108 -17 -9 7
-29 18 -46 24 -16 5 -39 13 -49 18 -17 6 -18 4 -13 -27z"/>
<path d="M5904 4298 c22 -125 24 -114 -39 -178 -66 -66 -68 -62 45 -78 l55 -7
38 -69 c20 -39 39 -71 40 -73 2 -1 18 28 37 65 18 37 37 70 43 73 5 4 38 10
71 14 93 9 94 14 30 75 l-57 54 10 76 c6 41 10 76 8 78 -2 2 -30 -10 -64 -27
-33 -17 -67 -31 -76 -31 -9 0 -42 14 -75 30 -33 17 -62 30 -66 30 -3 0 -4 -15
0 -32z"/>
<path d="M810 3987 c1 -17 9 -77 20 -132 l19 -100 -97 -97 c-53 -54 -94 -99
-91 -102 2 -2 56 -12 119 -20 63 -9 123 -19 132 -22 9 -3 42 -56 73 -119 31
-63 60 -115 64 -115 4 0 33 52 64 115 31 64 63 117 69 119 7 2 68 12 136 22
67 10 122 21 122 25 0 3 -37 42 -82 86 -119 114 -111 93 -88 219 23 128 24
144 8 144 -7 0 -60 -24 -118 -53 -97 -49 -140 -60 -140 -36 0 6 -4 8 -9 5 -5
-3 -42 13 -82 35 -115 64 -119 65 -119 26z"/>
<path d="M6310 4002 c0 -10 9 -69 20 -131 24 -131 32 -109 -90 -227 -47 -45
-83 -85 -80 -87 3 -3 64 -13 137 -23 l131 -18 62 -125 63 -126 58 119 c32 66
63 122 68 126 6 3 66 14 133 24 68 10 127 19 131 20 9 2 -143 154 -168 168
-20 12 -19 57 4 186 16 89 16 102 3 102 -9 0 -63 -25 -121 -56 l-105 -56 -118
61 c-64 33 -120 61 -123 61 -3 0 -5 -8 -5 -18z"/>
<path d="M5973 3459 c-7 -7 -13 -37 -13 -68 l0 -55 -49 55 c-27 30 -52 51 -56
47 -4 -4 16 -38 44 -76 49 -67 75 -132 53 -132 -6 0 -20 16 -32 35 -12 19 -35
44 -52 56 l-30 22 12 -24 c7 -13 30 -48 52 -77 22 -30 44 -68 49 -85 10 -36
12 -140 3 -150 -4 -3 -32 13 -63 37 -87 67 -213 156 -221 156 -5 0 11 -201 25
-292 7 -49 -5 -49 -75 0 -47 33 -59 48 -85 109 -36 83 -51 110 -60 102 -3 -4
6 -37 20 -74 14 -38 24 -70 22 -72 -13 -12 -59 47 -81 106 -15 37 -33 77 -40
87 -26 36 -27 7 -1 -61 14 -38 24 -69 22 -71 -1 -2 -24 11 -50 27 -44 27 -67
31 -67 9 0 -4 20 -21 44 -36 49 -31 45 -43 -14 -44 -19 0 -46 -7 -60 -16 -23
-14 -16 -14 80 -9 84 5 109 3 125 -9 20 -14 20 -14 -5 -20 -14 -3 -42 -7 -63
-8 -20 -2 -36 -7 -35 -13 2 -6 38 -9 90 -7 80 3 91 1 135 -24 108 -62 113 -52
-73 -134 -91 -40 -162 -76 -157 -81 4 -4 72 -35 151 -69 78 -35 142 -65 142
-69 0 -3 -24 -18 -53 -33 -57 -30 -93 -34 -181 -17 -31 5 -65 8 -74 6 -26 -6
50 -37 92 -37 46 0 53 -15 16 -30 -22 -9 -44 -10 -93 -1 -77 13 -117 14 -117
2 0 -5 10 -11 21 -14 19 -5 14 -12 -42 -58 -35 -29 -73 -59 -83 -68 -21 -17
-21 -12 0 157 4 29 3 52 -2 52 -5 0 -27 -45 -49 -99 -22 -55 -43 -97 -46 -93
-3 4 -23 51 -44 105 -21 53 -42 97 -46 97 -11 0 -12 9 7 -116 8 -58 14 -108
11 -110 -2 -2 -24 13 -48 34 -86 75 -142 105 -120 65 5 -10 33 -47 61 -81 28
-35 49 -66 46 -69 -3 -3 -37 -1 -75 6 -39 6 -87 11 -108 11 -35 0 -36 -1 -17
-14 11 -8 57 -28 102 -46 46 -18 81 -35 77 -38 -3 -3 -44 -22 -92 -41 -48 -20
-88 -41 -90 -47 -4 -12 -3 -12 120 7 42 6 80 9 83 6 4 -3 -11 -28 -33 -54 -59
-72 -84 -111 -75 -117 5 -3 43 22 86 56 42 33 79 58 82 56 2 -3 -3 -50 -13
-106 -24 -151 -8 -152 48 -4 18 45 35 85 40 87 4 3 24 -38 45 -90 53 -135 64
-129 42 23 -6 45 -8 85 -5 88 3 4 28 -11 54 -33 62 -52 102 -77 109 -70 4 3
-21 41 -54 84 -34 43 -57 80 -51 81 5 2 54 -4 110 -13 136 -23 148 -9 29 35
-112 42 -134 53 -114 62 167 66 212 90 185 100 -18 6 44 123 72 135 32 15 32
17 8 -38 -10 -24 -22 -55 -26 -69 -7 -24 -6 -24 11 -7 11 9 35 50 54 89 34 69
38 73 109 110 l74 39 -6 -43 c-15 -117 -30 -308 -24 -314 3 -4 62 34 131 85
68 50 132 94 141 98 16 6 17 -1 13 -74 -4 -79 -6 -82 -56 -149 -52 -70 -60
-84 -43 -84 11 0 81 80 81 92 0 4 5 8 11 8 25 0 -1 -71 -50 -135 -28 -36 -51
-70 -51 -76 0 -21 22 -6 57 40 21 28 41 50 46 50 4 1 7 -27 7 -60 0 -53 2 -60
15 -49 8 7 15 34 17 67 l3 56 40 -53 c38 -51 65 -73 65 -52 0 5 -25 43 -55 85
-41 57 -55 83 -54 109 l0 33 17 -25 c28 -41 73 -90 83 -90 17 0 9 17 -46 90
-55 73 -55 74 -55 147 0 40 3 73 8 73 4 -1 68 -46 142 -100 74 -55 136 -95
138 -90 2 5 -4 73 -12 151 -9 78 -16 152 -16 165 l0 23 48 -26 c70 -39 97 -68
118 -128 10 -30 28 -67 41 -82 l23 -28 -6 30 c-4 17 -16 50 -26 74 -10 24 -17
46 -14 48 12 12 66 -60 91 -120 15 -37 31 -70 35 -72 19 -12 17 13 -5 68 -13
31 -20 57 -16 57 5 0 29 -12 55 -26 45 -25 46 -25 46 -5 0 14 -13 27 -39 41
-58 29 -57 37 3 43 30 3 67 12 83 21 l28 15 -26 1 c-14 0 -63 -5 -108 -11 -73
-10 -84 -9 -109 7 l-27 18 52 7 c29 4 65 10 80 14 52 13 -7 24 -86 15 -40 -4
-82 -5 -94 -2 -32 7 -127 66 -124 76 2 4 71 38 155 75 83 36 152 69 152 72 0
4 -43 26 -97 50 -53 24 -121 55 -151 69 l-55 26 73 38 c73 39 73 39 135 27 34
-6 79 -11 99 -11 34 0 114 -26 105 -34 -2 -2 -47 -20 -99 -41 -52 -20 -99 -41
-104 -46 -14 -13 33 -11 137 5 48 7 87 11 87 9 0 -3 -29 -42 -65 -88 -36 -46
-62 -86 -57 -89 5 -3 46 24 91 60 46 36 84 64 86 62 1 -2 -3 -43 -11 -93 -26
-170 -17 -174 44 -21 44 112 38 114 92 -22 52 -131 60 -122 35 38 -8 52 -13
96 -11 97 2 2 43 -28 92 -66 48 -38 92 -67 96 -65 4 3 -24 44 -62 93 -39 49
-70 90 -70 93 0 3 39 -1 88 -8 173 -26 178 -18 24 43 -51 20 -89 40 -85 44 5
4 46 22 92 41 47 18 86 38 88 44 3 10 -88 4 -170 -11 -35 -7 -51 5 -28 19 18
12 124 157 118 162 -3 4 -45 -24 -92 -61 -48 -37 -88 -65 -90 -63 -2 2 3 46
11 98 16 111 17 120 5 120 -4 0 -26 -45 -47 -100 -21 -55 -41 -100 -44 -100
-3 0 -23 45 -44 100 -56 143 -66 136 -42 -25 8 -49 12 -92 10 -94 -4 -4 -3 -5
-101 73 -42 33 -73 66 -75 79 -3 16 -15 0 -47 -63 -43 -83 -64 -109 -89 -110
-9 0 -6 12 8 40 32 63 40 89 30 95 -5 3 -29 -34 -54 -82 -43 -86 -46 -89 -115
-126 l-71 -38 0 34 c0 19 7 98 16 177 8 78 13 144 10 147 -3 3 -42 -21 -86
-53 -44 -33 -107 -79 -140 -102 l-60 -44 0 82 0 83 49 66 c26 36 54 76 60 89
12 23 12 23 -12 8 -13 -9 -38 -36 -56 -61 -18 -25 -34 -45 -37 -45 -2 0 -4 13
-4 29 0 19 19 54 56 105 31 43 53 80 49 84 -4 4 -29 -18 -56 -48 l-48 -55 -3
68 c-2 55 -5 66 -15 56z m-610 -1069 c27 0 12 -16 -44 -46 -40 -23 -47 -29
-34 -37 12 -6 32 -1 66 16 27 13 49 22 49 20 0 -2 -11 -25 -25 -52 -26 -52
-26 -52 -144 -67 l-54 -7 61 79 c34 44 62 86 62 93 0 9 7 11 23 7 12 -3 30 -6
40 -6z"/>
<path d="M1756 3445 c-3 -9 -6 -40 -6 -68 l0 -52 -24 30 c-55 70 -65 80 -71
73 -9 -8 9 -41 57 -104 27 -37 38 -60 37 -85 l0 -34 -17 25 c-28 41 -91 106
-92 94 0 -11 40 -74 88 -140 20 -26 23 -40 20 -113 l-3 -82 -138 101 c-76 56
-141 99 -144 97 -4 -5 2 -72 23 -275 l7 -63 -61 36 c-71 42 -73 45 -96 105
-28 73 -48 110 -57 110 -14 0 -10 -21 15 -82 13 -32 20 -58 15 -58 -22 0 -60
52 -85 118 -27 73 -54 111 -54 78 0 -9 9 -39 20 -68 11 -29 20 -56 20 -60 0
-4 -25 6 -56 23 -31 16 -59 27 -62 24 -8 -7 29 -45 60 -61 40 -21 34 -34 -14
-34 -24 -1 -56 -7 -73 -15 -28 -14 -22 -15 72 -10 100 6 143 -2 143 -25 0 -6
-19 -10 -42 -10 -24 -1 -56 -7 -73 -16 -28 -13 -22 -14 73 -9 l102 5 70 -42
c39 -23 67 -45 63 -49 -5 -4 -60 -29 -123 -57 -148 -64 -190 -84 -190 -92 0
-3 65 -34 145 -69 80 -35 145 -67 145 -71 0 -4 -26 -21 -59 -39 -54 -28 -63
-30 -107 -22 -66 13 -132 17 -140 9 -5 -6 12 -12 106 -35 l35 -9 -25 -14 c-20
-11 -40 -11 -117 0 -85 11 -116 10 -101 -5 3 -3 36 -11 73 -18 l67 -13 -51
-31 c-76 -48 -68 -72 10 -32 23 11 43 19 45 16 2 -2 -5 -24 -16 -48 -22 -49
-26 -84 -9 -73 6 4 26 39 44 79 29 64 63 105 87 105 4 0 -4 -25 -18 -56 -14
-32 -22 -64 -18 -73 4 -11 19 10 48 69 39 81 44 87 109 124 37 21 70 36 74 32
4 -3 -2 -83 -11 -177 -10 -93 -17 -172 -15 -174 3 -2 66 41 142 96 75 54 139
99 142 99 3 0 5 -35 5 -79 l0 -79 -50 -63 c-27 -35 -50 -70 -50 -76 0 -26 20
-12 57 38 l38 50 3 -31 c3 -24 -8 -45 -47 -98 -50 -66 -63 -96 -38 -86 6 3 28
26 47 51 l35 47 3 -63 c4 -83 25 -77 32 9 l5 64 44 -57 c41 -53 61 -69 61 -48
0 5 -16 31 -35 57 -62 86 -75 109 -75 132 0 31 15 27 39 -11 25 -41 59 -73 68
-64 3 4 -6 24 -20 44 -14 21 -40 58 -56 82 -27 39 -31 52 -31 113 0 37 3 68 8
68 4 0 68 -45 142 -99 159 -117 150 -124 125 91 -8 78 -14 143 -11 145 6 6
110 -53 131 -73 8 -8 24 -40 35 -72 24 -65 59 -118 60 -90 0 10 -9 40 -20 68
-23 57 -23 60 -12 60 20 0 52 -44 72 -97 24 -66 59 -119 60 -91 0 10 -9 41
-20 69 -12 28 -19 53 -17 56 3 2 21 -6 40 -17 20 -12 46 -20 59 -18 20 3 15 9
-36 43 -58 39 -59 40 -30 43 78 6 114 14 114 24 0 8 -30 9 -98 4 -90 -6 -101
-5 -123 13 l-24 20 41 1 c57 0 104 11 104 23 0 6 -32 8 -93 3 l-94 -6 -66 37
c-37 21 -67 41 -67 44 0 3 70 37 155 74 85 38 155 72 155 75 0 7 -87 49 -239
116 l-63 28 75 38 c72 36 78 37 128 28 28 -6 70 -10 93 -10 40 1 40 1 16 14
-14 7 -47 17 -75 21 l-50 7 32 16 c28 13 43 14 116 2 46 -7 90 -10 98 -8 19 8
-35 29 -88 35 -24 3 -43 9 -43 13 0 4 18 15 41 25 42 19 72 55 46 55 -7 0 -36
-11 -62 -25 -27 -13 -50 -23 -52 -22 -1 2 9 27 22 56 14 29 25 60 25 68 0 29
-26 -5 -63 -82 -31 -64 -69 -106 -83 -92 -2 2 7 28 21 58 54 117 18 99 -43
-21 -35 -71 -41 -77 -106 -113 -38 -20 -71 -35 -74 -33 -2 3 5 84 15 181 15
137 16 174 6 171 -7 -3 -71 -48 -143 -101 -72 -52 -133 -95 -136 -95 -3 0 -4
37 -2 83 3 82 3 82 56 150 28 38 52 72 52 78 0 21 -22 6 -57 -40 -21 -28 -41
-50 -45 -50 -19 -2 -5 50 23 90 16 24 42 61 56 82 14 20 23 41 19 45 -8 7 -24
-10 -78 -79 l-27 -34 -1 60 c0 65 -12 100 -24 70z"/>
<path d="M3953 3419 c-7 -7 -13 -36 -13 -63 l0 -51 -41 48 c-38 44 -59 58 -59
38 0 -4 23 -38 51 -74 40 -52 50 -72 47 -97 l-3 -31 -38 50 c-37 50 -57 64
-57 39 0 -7 23 -42 50 -77 l50 -65 0 -113 0 -113 -67 0 -68 0 -28 -50 c-15
-27 -32 -52 -38 -55 -11 -7 -159 76 -181 103 -8 9 -25 44 -38 77 -22 58 -60
113 -60 87 0 -7 11 -39 24 -72 17 -42 21 -60 12 -60 -21 0 -53 43 -72 97 -20
57 -49 102 -59 91 -3 -3 5 -33 19 -67 13 -33 20 -61 15 -61 -5 0 -27 11 -49
25 -45 29 -60 31 -60 10 0 -8 21 -27 47 -42 l48 -28 -50 -7 c-78 -13 -95 -18
-95 -28 0 -6 39 -8 103 -4 81 5 106 3 121 -9 18 -13 15 -15 -42 -22 -33 -4
-66 -13 -73 -21 -10 -12 3 -13 89 -8 l100 7 86 -53 c47 -29 86 -59 86 -67 0
-7 -11 -31 -25 -53 -14 -22 -25 -44 -25 -50 0 -6 14 -35 31 -64 l30 -55 -93
-51 c-86 -47 -96 -50 -143 -45 -27 3 -77 8 -110 11 -59 5 -60 5 -32 -11 15 -9
50 -19 77 -22 55 -6 62 -14 26 -31 -18 -8 -47 -7 -116 4 -51 8 -95 13 -97 10
-12 -12 11 -25 55 -32 86 -13 89 -17 33 -47 -28 -16 -53 -32 -56 -37 -11 -18
50 -10 80 10 42 28 48 25 29 -11 -22 -43 -44 -109 -37 -109 11 0 34 35 63 96
25 55 60 94 82 94 5 0 1 -14 -8 -31 -8 -17 -22 -50 -30 -72 -14 -39 -14 -40 5
-23 18 16 19 16 24 -6 3 -13 9 -45 13 -71 l7 -49 -58 -58 c-64 -65 -66 -63 47
-76 l57 -7 37 -75 37 -75 30 59 c16 32 36 66 44 75 12 15 103 35 140 32 15 -1
47 29 85 77 l27 35 1 -31 c0 -22 -15 -51 -50 -100 -27 -38 -50 -72 -50 -76 0
-20 23 -4 60 43 l40 51 0 -49 c0 -27 6 -58 14 -68 13 -18 15 -14 21 40 3 33 7
64 8 68 1 4 19 -15 40 -43 35 -46 57 -63 57 -41 0 5 -20 37 -46 71 -50 69 -66
103 -58 125 4 10 17 0 46 -36 44 -56 59 -64 141 -74 64 -8 65 -9 108 -95 l32
-64 29 59 c43 85 52 92 117 100 90 10 92 15 29 82 l-55 58 10 45 c5 25 14 48
20 52 7 4 3 25 -12 64 -12 31 -20 59 -18 61 13 12 57 -46 81 -106 15 -39 32
-74 38 -77 20 -13 20 8 -1 62 -11 31 -21 58 -21 60 0 2 24 -9 53 -26 30 -16
57 -30 61 -30 18 0 -20 44 -59 69 l-44 28 71 11 c39 6 76 16 82 22 8 9 -16 10
-101 5 -91 -6 -115 -5 -133 8 -20 14 -18 15 36 22 67 8 84 14 84 27 0 6 -36 7
-94 2 l-94 -7 -91 53 c-50 29 -94 56 -96 61 -3 4 10 34 30 67 l35 60 -27 47
c-31 57 -35 52 93 117 l81 42 85 -14 c47 -7 91 -10 99 -8 19 8 -35 29 -88 35
-50 6 -54 16 -15 32 20 9 41 9 73 2 58 -14 136 -14 123 -1 -5 5 -34 14 -64 20
-29 6 -55 12 -57 13 -2 2 20 16 47 31 41 23 49 30 39 42 -9 11 -18 10 -53 -11
-63 -37 -70 -32 -41 25 24 48 34 97 16 86 -5 -3 -26 -42 -47 -86 -32 -69 -76
-121 -90 -107 -2 2 7 28 20 58 13 30 27 65 31 79 16 51 -23 0 -64 -85 l-39
-83 -95 -51 c-52 -28 -97 -51 -100 -51 -3 0 -22 29 -42 65 l-36 65 -64 0 -65
0 -1 53 c-4 152 0 167 52 237 63 84 63 111 0 42 -31 -34 -51 -49 -53 -40 -8
21 9 57 57 121 25 32 45 66 45 74 0 21 -15 8 -60 -49 l-40 -50 -1 39 c-1 21
-4 51 -8 66 -5 23 -8 26 -18 16z m-182 -974 l31 -55 69 0 69 0 0 -121 0 -121
-52 -71 -52 -72 -50 53 -49 53 11 72 c6 39 9 74 6 76 -3 3 -37 -11 -77 -30
l-72 -35 -54 33 c-30 18 -58 34 -63 35 -5 2 3 31 18 65 26 60 28 62 128 117
55 31 102 56 103 56 2 0 17 -25 34 -55z m457 13 c28 -18 71 -45 97 -61 32 -19
52 -40 65 -70 30 -64 27 -74 -34 -104 l-55 -27 -66 34 c-36 18 -68 30 -71 27
-3 -3 -1 -38 6 -78 l12 -72 -49 -48 -48 -49 -52 68 c-55 74 -59 92 -54 255 l1
57 64 0 64 0 31 50 c17 28 33 50 35 50 2 0 27 -15 54 -32z"/>
<path d="M660 3173 c0 -10 7 -58 15 -108 8 -49 12 -91 10 -93 -2 -2 -39 24
-82 57 -116 90 -124 81 -32 -34 33 -42 59 -78 57 -80 -2 -2 -46 2 -98 10 -113
17 -120 18 -120 6 0 -5 42 -25 93 -46 50 -20 96 -40 100 -44 4 -5 -30 -22 -76
-40 -46 -17 -92 -38 -103 -46 -18 -14 -18 -14 6 -14 14 -1 64 5 113 13 48 7
87 11 87 9 0 -2 -28 -40 -62 -84 -86 -111 -71 -117 51 -20 35 28 65 50 67 48
2 -1 -3 -45 -11 -97 -26 -168 -16 -174 40 -25 22 58 42 105 45 105 3 0 23 -45
44 -100 56 -143 67 -136 41 25 -8 49 -13 91 -11 92 2 2 43 -28 91 -66 49 -39
92 -68 97 -65 5 3 -7 26 -27 50 -19 24 -51 64 -70 88 -19 23 -35 45 -35 48 0
2 45 -2 101 -10 91 -13 122 -12 107 4 -4 3 -48 23 -99 44 -86 36 -92 39 -69
49 14 5 56 23 94 38 94 38 95 51 4 42 -40 -5 -88 -11 -107 -14 -40 -7 -43 -14
42 95 76 100 64 106 -43 20 -41 -33 -78 -60 -83 -60 -4 0 -5 10 -3 23 13 59
27 179 21 185 -9 9 -20 -12 -57 -105 -18 -46 -35 -83 -38 -83 -3 0 -23 45 -44
100 -37 94 -56 123 -56 83z"/>
<path d="M2744 3073 c23 -118 23 -119 -34 -179 -60 -64 -58 -69 31 -79 66 -8
76 -17 114 -98 15 -32 29 -56 31 -54 2 2 21 34 41 72 l38 69 67 11 c37 6 70
14 75 18 4 4 -17 32 -47 62 l-53 54 12 72 c6 39 9 74 7 76 -3 3 -34 -9 -69
-26 -35 -17 -69 -31 -75 -31 -7 0 -36 14 -65 30 -67 38 -80 38 -73 3z"/>
<path d="M4863 3058 c4 -24 9 -57 13 -75 6 -29 1 -38 -51 -93 -32 -33 -56 -61
-54 -61 2 -1 38 -6 79 -13 l75 -11 35 -67 c19 -38 38 -68 41 -68 4 0 23 31 43
69 l36 68 61 7 c96 11 96 11 33 78 -48 50 -55 63 -50 86 11 52 19 122 13 122
-4 0 -36 -14 -72 -32 l-65 -32 -65 32 c-36 18 -68 32 -72 32 -3 0 -3 -19 0
-42z"/>
<path d="M7246 2600 c-41 -13 -74 -48 -88 -91 -9 -32 -8 -44 10 -80 l22 -43
-26 -27 c-14 -15 -45 -41 -70 -58 l-44 -32 5 28 c14 76 25 161 25 183 -1 23
-2 24 -14 7 -8 -10 -29 -59 -47 -108 -19 -49 -36 -89 -40 -89 -4 0 -10 12 -14
28 -12 48 -67 172 -76 172 -11 0 -12 3 6 -114 8 -55 14 -101 12 -102 -1 -2
-40 26 -85 62 -45 36 -87 64 -93 62 -6 -2 19 -42 55 -88 36 -47 59 -86 53 -88
-7 -1 -55 4 -107 12 -139 20 -137 8 8 -50 51 -20 90 -40 85 -44 -4 -4 -46 -22
-93 -40 -83 -32 -114 -49 -107 -57 2 -2 52 4 111 13 59 8 110 14 112 11 2 -2
-19 -33 -47 -68 -98 -123 -91 -136 26 -45 47 37 85 65 85 63 0 -2 -7 -50 -15
-107 -9 -56 -14 -105 -11 -107 11 -12 24 11 56 101 19 53 37 96 40 96 3 0 20
-40 38 -89 19 -50 41 -98 49 -108 13 -16 14 -13 9 37 -4 30 -10 81 -14 113 -5
31 -5 57 -1 57 4 0 34 -22 66 -48 70 -58 112 -86 119 -80 2 3 -27 45 -65 94
-38 49 -68 90 -66 92 2 2 35 -1 74 -7 84 -13 149 -14 136 -2 -6 4 -52 25 -102
46 -51 21 -93 39 -93 40 0 2 43 19 95 40 84 32 115 50 104 59 -2 2 -42 -3 -89
-10 -143 -22 -139 -25 -78 56 49 64 56 70 88 68 68 -2 82 2 116 36 30 30 34
40 34 84 0 72 -34 110 -110 127 -8 2 -28 -1 -44 -5z"/>
<path d="M226 2579 c-65 -51 -71 -127 -14 -186 28 -29 38 -33 83 -33 29 0 60
6 72 15 20 14 24 11 87 -68 76 -95 76 -95 -64 -73 -141 23 -137 11 18 -50 51
-20 90 -40 85 -44 -4 -4 -47 -22 -95 -41 -49 -18 -88 -37 -88 -41 0 -11 56
-10 124 3 90 16 92 12 26 -71 -92 -117 -80 -126 39 -31 35 28 67 51 71 51 4 0
1 -39 -6 -87 -8 -49 -14 -96 -14 -105 0 -42 21 -12 56 78 20 52 40 92 45 87 4
-4 24 -50 44 -100 21 -51 41 -93 46 -93 12 0 11 7 -6 120 -8 52 -12 96 -10 99
3 2 38 -22 80 -53 41 -32 79 -56 84 -54 6 1 -17 39 -50 83 -33 44 -56 81 -50
83 5 2 36 -2 67 -7 76 -14 141 -14 128 -1 -6 6 -48 25 -93 43 -45 18 -81 37
-80 42 1 6 38 24 82 42 131 52 124 65 -24 42 -38 -6 -74 -9 -80 -7 -6 2 17 39
50 82 90 116 82 121 -44 22 -38 -30 -71 -53 -73 -52 -1 2 4 49 13 104 18 119
18 122 6 122 -4 0 -26 -45 -47 -100 -21 -55 -42 -100 -45 -100 -4 0 -24 43
-45 95 -56 136 -66 126 -40 -35 8 -47 13 -86 12 -88 -2 -1 -32 21 -67 49 -35
28 -72 55 -82 60 -15 8 -16 19 -11 78 6 66 6 68 -26 104 -29 34 -37 37 -85 37
-38 0 -60 -6 -79 -21z"/>
<path d="M2804 2468 c3 -18 10 -60 16 -92 5 -33 10 -70 10 -84 0 -23 0 -23
-41 10 -63 52 -131 99 -136 94 -8 -8 17 -46 73 -112 63 -74 65 -73 -80 -49
-49 8 -92 13 -94 10 -11 -10 16 -26 103 -60 52 -20 95 -38 95 -40 0 -4 -70
-36 -134 -61 -27 -10 -51 -24 -53 -31 -5 -13 16 -11 135 9 35 6 65 8 69 5 3
-3 -22 -40 -56 -82 -58 -72 -71 -95 -53 -95 7 0 51 33 127 94 19 16 38 26 41
23 5 -5 -8 -118 -22 -189 -12 -58 14 -24 50 67 21 52 41 97 46 100 4 3 25 -38
46 -90 53 -135 64 -129 42 23 -6 45 -8 85 -5 88 3 4 28 -11 54 -33 80 -66 113
-85 113 -65 0 4 -27 41 -60 82 -32 41 -58 76 -56 78 2 2 51 -4 109 -12 123
-19 117 -18 117 -8 0 11 -33 26 -125 59 -83 30 -95 39 -64 48 50 16 159 68
159 76 0 10 -86 3 -155 -12 -22 -4 -41 -6 -43 -4 -3 2 18 32 45 67 52 65 78
108 67 108 -9 0 -61 -37 -118 -84 l-49 -41 6 55 c4 30 9 81 13 113 4 32 3 57
-2 57 -5 0 -27 -45 -49 -99 -23 -58 -43 -94 -47 -88 -4 7 -24 54 -45 105 -37
93 -58 119 -49 60z"/>
<path d="M63 2060 c-82 -50 -81 -168 2 -213 11 -6 39 -14 63 -17 40 -7 44 -5
82 36 34 37 40 50 40 89 0 39 -5 50 -40 85 -32 32 -47 40 -77 40 -21 0 -52 -9
-70 -20z"/>
<path d="M1154 2066 c-48 -21 -74 -61 -74 -115 0 -26 7 -56 16 -69 39 -55 132
-69 182 -27 76 64 61 171 -31 213 -35 15 -54 15 -93 -2z"/>
<path d="M2324 2063 c-85 -42 -88 -175 -5 -217 53 -27 84 -26 125 2 51 35 75
95 57 141 -34 81 -104 110 -177 74z"/>
<path d="M5542 2057 c-64 -42 -78 -101 -41 -167 24 -42 54 -60 102 -60 95 0
155 96 113 178 -22 42 -47 60 -96 66 -36 5 -51 1 -78 -17z"/>
<path d="M7452 2043 c-38 -36 -42 -45 -42 -87 0 -40 5 -52 38 -88 33 -35 43
-40 81 -40 95 1 159 99 117 180 -22 44 -48 60 -102 67 -49 7 -52 6 -92 -32z"/>
<path d="M3540 860 l0 -860 255 0 255 0 0 860 0 860 -255 0 -255 0 0 -860z"/>
</g>
</svg>
